<svg xmlns="http://www.w3.org/2000/svg" width="24" height="24" viewBox="0 0 24 24">
  <g id="Grupo_32311" data-name="Grupo 32311" transform="translate(-921 -1930)">
    <g id="gps_fixed_black_24dp" transform="translate(923 1932)">
      <path id="Caminho_5106" data-name="Caminho 5106" d="M10,6.727A3.273,3.273,0,1,0,13.273,10,3.272,3.272,0,0,0,10,6.727Zm7.315,2.455a7.359,7.359,0,0,0-6.5-6.5V1H9.182V2.685a7.359,7.359,0,0,0-6.5,6.5H1v1.636H2.685a7.359,7.359,0,0,0,6.5,6.5V19h1.636V17.315a7.359,7.359,0,0,0,6.5-6.5H19V9.182ZM10,15.727A5.727,5.727,0,1,1,15.727,10,5.723,5.723,0,0,1,10,15.727Z"/>
    </g>
  </g>
</svg>
