<svg xmlns="http://www.w3.org/2000/svg" xmlns:xlink="http://www.w3.org/1999/xlink" width="26" height="26" viewBox="0 0 26 26">
  <defs>
    <clipPath id="clip-Ícones_Editar">
      <rect width="26" height="26"/>
    </clipPath>
  </defs>
  <g id="Ícones_Editar" data-name="Ícones Editar" clip-path="url(#clip-Ícones_Editar)">
    <g id="edit_black_24dp" transform="translate(1 1)">
      <path id="Caminho_3275" data-name="Caminho 3275" d="M0,0H24V24H0Z" fill="none"/>
      <path id="Caminho_3276" data-name="Caminho 3276" d="M14.06,9.02l.92.92L5.92,19H5v-.92l9.06-9.06M17.66,3a1,1,0,0,0-.7.29L15.13,5.12l3.75,3.75,1.83-1.83a1,1,0,0,0,0-1.41L18.37,3.29A.982.982,0,0,0,17.66,3Zm-3.6,3.19L3,17.25V21H6.75L17.81,9.94,14.06,6.19Z" fill="#707070"/>
    </g>
  </g>
</svg>
