<svg xmlns="http://www.w3.org/2000/svg" xmlns:xlink="http://www.w3.org/1999/xlink" width="33" height="27" viewBox="0 0 33 27">
  <defs>
    <clipPath id="clip-Icones_View">
      <rect width="33" height="27"/>
    </clipPath>
  </defs>
  <g id="Icones_View" data-name="Icones View" clip-path="url(#clip-Icones_View)">
    <g id="Grupo_1" data-name="Grupo 1" transform="translate(-104)">
      <g id="block_black_24dp" transform="translate(105 1)">
        <path id="Caminho_3277" data-name="Caminho 3277" d="M0,0H24V24H0Z" fill="none"/>
      </g>
    </g>
    <g id="Grupo_10803" data-name="Grupo 10803">
      <g id="Grupo_1-2" data-name="Grupo 1" transform="translate(-104)">
        <g id="block_black_24dp-2" data-name="block_black_24dp" transform="translate(105 1)">
          <path id="Caminho_3277-2" data-name="Caminho 3277" d="M0,0H24V24H0Z" fill="none"/>
        </g>
      </g>
      <path id="Subtração_4" data-name="Subtração 4" d="M10048.661,6650.454a7.8,7.8,0,0,1-1.954-.258l-.008,0c-.4-.136-.789-.284-1.158-.441l1.776-1.779a4,4,0,0,0,5.113-5.111l2.407-2.407c.234.181.446.361.623.513a18.571,18.571,0,0,1,2.752,2.925l0,0a.565.565,0,0,1,0,.664,18.537,18.537,0,0,1-2.757,2.928,14.333,14.333,0,0,1-3.009,2.027A8.647,8.647,0,0,1,10048.661,6650.454Zm-4.216-1.207c-.329-.167-.675-.36-1.03-.573a16.89,16.89,0,0,1-1.555-1.187,18.426,18.426,0,0,1-2.75-2.925.569.569,0,0,1,0-.667,18.782,18.782,0,0,1,2.752-2.928,14.2,14.2,0,0,1,3.014-2.022,8.074,8.074,0,0,1,7.578,0c.128.059.272.135.457.237l0-.008c.346.182.685.38,1.01.591l-2.052,2.052a3.964,3.964,0,0,0-3.209-1.613,4,4,0,0,0-2.389,7.21l-1.829,1.83v0Z" transform="translate(-10032.184 -6630.805)" fill="#a2a2a2"/>
      <circle id="Elipse_220" data-name="Elipse 220" cx="3" cy="3" r="3" transform="translate(13.5 10.422)" fill="#a2a2a2"/>
      <path id="Caminho_3455" data-name="Caminho 3455" d="M-10019.234-6626.875a6.52,6.52,0,0,1,.531,1.016c.375.813,3.266-1.625,3.266-1.625a7.311,7.311,0,0,0-3.7-2.312C-10021.109-6630.078-10019.234-6626.875-10019.234-6626.875Z" transform="translate(10039 6638)" fill="#a2a2a2"/>
      <path id="Caminho_3456" data-name="Caminho 3456" d="M-10024.984-6621.469s.125.281,1.172.656-.969,2.016-.969,2.016a6.416,6.416,0,0,1-2.594-1.172C-10028.8-6620.984-10024.984-6621.469-10024.984-6621.469Z" transform="translate(10039 6638)" fill="#a2a2a2"/>
    </g>
  </g>
</svg>
