<svg xmlns="http://www.w3.org/2000/svg" width="24" height="24" viewBox="0 0 24 24">
  <g id="Grupo_32308" data-name="Grupo 32308" transform="translate(-734 -719)">
    <g id="layer1" transform="translate(-185.436 752.895)">
      <path id="path4589" d="M923.664-12.891a2.93,2.93,0,0,1-1.3-.763,3.061,3.061,0,0,1-.924-2.1,3.03,3.03,0,0,1,.9-2.35,3.026,3.026,0,0,1,1.915-.926,2.21,2.21,0,0,1,.807.023c.224.04.45.086.5.1.082.025.123-.017.277-.283,1.067-1.843,3.439-5.955,3.483-6.038.051-.1.036-.128-.19-.365a3.037,3.037,0,0,1-.846-2.019,3.045,3.045,0,0,1,.342-1.6,3.871,3.871,0,0,1,1.2-1.268,3.24,3.24,0,0,1,3-.1,3.152,3.152,0,0,1,.946,4.93l-.3.322.389.673c3.162,5.473,3.322,5.744,3.4,5.737.045,0,.246-.041.447-.084a3.083,3.083,0,0,1,2.791.867,3.092,3.092,0,0,1,.931,2.239,3.114,3.114,0,0,1-3.151,3.129,3.1,3.1,0,0,1-3.142-3.306,3.028,3.028,0,0,1,.843-1.994l.249-.269-1.864-3.224a27.58,27.58,0,0,0-1.933-3.2,3.659,3.659,0,0,1-1.849.048,1.3,1.3,0,0,0-.235-.061c0,.005-.845,1.455-1.866,3.222l-1.857,3.212.248.268a3.014,3.014,0,0,1,.842,2.017,2.907,2.907,0,0,1-.344,1.606,3.017,3.017,0,0,1-1.921,1.558,2.366,2.366,0,0,1-.891.117,2.32,2.32,0,0,1-.9-.129Zm15.46-1.139a2.348,2.348,0,0,0,.942-.853,2.054,2.054,0,0,0-1.46-3.04A2.06,2.06,0,0,0,936.3-15.4a1.825,1.825,0,0,0,.5.889,1.88,1.88,0,0,0,1.588.635,1.494,1.494,0,0,0,.743-.158Z" transform="translate(0 0)"/>
    </g>
  </g>
</svg>
