<svg
  xmlns="http://www.w3.org/2000/svg"
  width="53"
  height="53"
  viewBox="0 0 53 53"
>
  <g id="Grupo_31522" data-name="Grupo 31522" transform="translate(-5 -4)">
    <path
      id="move_up_24dp_000000_FILL0_wght400_GRAD0_opsz24"
      d="M56.349-794.772a14.861,14.861,0,0,1-11.59-5.421A19.31,19.31,0,0,1,40-813.4a19.607,19.607,0,0,1,4.116-12.4,15.167,15.167,0,0,1,10.305-6.086l-3.678-4.39L54.013-840l9.342,10.642-9.342,10.642-3.27-3.791,3.445-3.924a11.385,11.385,0,0,0-6.831,4.589,13.9,13.9,0,0,0-2.686,8.447,13.772,13.772,0,0,0,3.416,9.411,10.61,10.61,0,0,0,8.262,3.891h7.007v5.321Zm11.678-23.944v-18.623h21.02v18.623Zm0,23.944V-813.4h21.02v18.623Zm4.671-5.321H84.375v-7.981H72.7Z"
      transform="translate(-33 847.9)"
    />
  </g>
</svg>
