<svg xmlns="http://www.w3.org/2000/svg" width="24" height="24" viewBox="1 1 22 22">
  <path id="Subtração_84" data-name="Subtração 84" d="M14582,24013h-24v-24h24v24Zm-7.962-10.191v0a4.191,4.191,0,0,1,1.958,3.439V24008h4v-1.748c0-2.043-3.564-3.178-5.96-3.439Zm-7.038-.059c-2.444,0-7,1.2-7,3.5V24008h14v-1.748C14574,24003.951,14569.444,24002.75,14567,24002.75Zm6-8.752a3.544,3.544,0,0,0-1.5.35,5.464,5.464,0,0,1,0,6.3,3.544,3.544,0,0,0,1.5.35,3.5,3.5,0,0,0,0-7Zm-6,0a3.5,3.5,0,1,0,3.5,3.5A3.506,3.506,0,0,0,14567,23994Zm4.658,12h-9.323a9.333,9.333,0,0,1,9.321,0Zm-4.658-7a1.5,1.5,0,1,1,1.494-1.5A1.5,1.5,0,0,1,14567,23999Z" transform="translate(-14557.999 -23989.004)" fill="#192338"/>
</svg>
