<svg xmlns="http://www.w3.org/2000/svg" width="24" height="24" viewBox="1 1 22 22">
  <g id="Grupo_30577" data-name="Grupo 30577" transform="translate(-942.008 -4386.992)">
    <path id="Subtração_91" data-name="Subtração 91" d="M14562,23827h-24v-24.012h24V23827Zm-12.973-22c-4.113,0-4.641,0-4.766.051-.2.1-4.074,3.969-4.184,4.18-.078.16-.078.293-.078,7.156,0,5,0,7.063.031,7.219a1.77,1.77,0,0,0,1.3,1.336c.152.043.914.047,4.559.059l.793,0h.895c4.363,0,6.117-.016,6.258-.047a1.784,1.784,0,0,0,.91-.52,1.838,1.838,0,0,0,.488-1.383v-.332l.992.977c1.082,1.082,1.215,1.18,1.762,1.273a1.493,1.493,0,0,0,.266.023,1.733,1.733,0,0,0,1.316-.633,1.7,1.7,0,0,0,.4-1.387c-.09-.562-.09-.562-2.082-2.57l-.2-.2-1.98-1.98.094-.312a4.558,4.558,0,0,0-.473-3.777l-.094-.156v-3.7c0-2.465-.016-3.738-.047-3.883a1.8,1.8,0,0,0-1.352-1.367C14553.7,23805,14552.238,23805,14549.031,23805Zm9.211,18.828a.439.439,0,0,1-.246-.066c-.137-.066-3.7-3.594-3.7-3.664a.848.848,0,0,1,.219-.2l.078-.078a3.3,3.3,0,0,0,.3-.316,1.29,1.29,0,0,1,.2-.2c.078,0,3.633,3.586,3.7,3.727a.638.638,0,0,1-.27.738A.677.677,0,0,1,14558.242,23823.832Zm-10.625,0h-1.871c-4.32,0-4.328-.012-4.437-.2a.357.357,0,0,0-.031-.051l-.094-.109v-6.7l-.016-6.684h1.715a6.346,6.346,0,0,0,1.871-.078.561.561,0,0,0,.25-.254c.078-.156.078-.223.078-1.871v-1.715h5.578c3.145,0,3.152.012,3.281.215.008.012.016.023.027.039l.078.125.016,3.129v3.145l-.2-.125a4.976,4.976,0,0,0-1.023-.473c-.629-.187-.723-.187-5.52-.187h-4.512l-.141.078a.8.8,0,0,0-.238.234c-.078.145-.078.176-.078,1.84s0,1.684.078,1.844a.549.549,0,0,0,.254.219c.156.078.234.078,2.246.078h2.094l.047.5,0,.035.016.125c.023.207.047.387.059.422l.016.094h-2.172c-2.141,0-2.184,0-2.324.078a.657.657,0,0,0-.316.5.6.6,0,0,0,.332.5c.156.078.246.078,2.547.078h2.375l.063.125a3.651,3.651,0,0,0,.3.457,4.536,4.536,0,0,0,3.586,1.77,4.449,4.449,0,0,0,1.367-.215l.316-.094.422.41.41.426v.91c0,.824,0,.91-.078,1.07a.494.494,0,0,1-.219.219C14553.605,23823.828,14553.492,23823.828,14547.617,23823.828Zm-2.344-3.977c-2.422,0-2.469,0-2.609.078a.64.64,0,0,0-.316.5.593.593,0,0,0,.332.5c.156.078.25.078,2.594.078,2.391,0,2.438,0,2.609-.078a.646.646,0,0,0,.332-.5.713.713,0,0,0-.316-.5C14547.742,23819.852,14547.742,23819.852,14545.273,23819.852Zm7.172-10.16h-2.863c-2.824,0-2.879,0-3.02.078a.674.674,0,0,0-.316.5.634.634,0,0,0,.332.5c.156.078.211.078,2.988.078s2.844,0,3-.078a.636.636,0,0,0,.328-.5.7.7,0,0,0-.312-.5Zm0-2.344h-2.863c-2.824,0-2.879,0-3.02.078a.687.687,0,0,0-.316.5.634.634,0,0,0,.332.5c.156.078.211.078,2.988.078s2.844,0,3-.078a.616.616,0,0,0,.328-.5.7.7,0,0,0-.312-.5Zm-.988,12.5a3.1,3.1,0,0,1-.445-.027,3.478,3.478,0,0,1-1.508-.66,3.33,3.33,0,0,1,1.227-5.852,4.606,4.606,0,0,1,.848-.078,3.3,3.3,0,0,1,.629.047,3.384,3.384,0,0,1,2.531,2.359,3.492,3.492,0,0,1-.109,2.09,3.37,3.37,0,0,1-2.422,2.063A4.064,4.064,0,0,1,14551.457,23819.848Zm-4.2-4.684h-3.742v-1.965h5.016l-.266.281a4.27,4.27,0,0,0-.914,1.465l-.094.219Zm-3.348-6.258h-1.891l.93-.945c.188-.176.363-.352.508-.488l.055-.055c.254-.25.391-.383.4-.383v1.871Z" transform="translate(-13596 -19416)" fill="#192338"/>
  </g>
</svg>
