<svg xmlns="http://www.w3.org/2000/svg" width="24" height="24" viewBox="1 1 22 22">
  <g id="Grupo_30589" data-name="Grupo 30589" transform="translate(-1388.997 -4490)">
    <path id="Subtração_105" data-name="Subtração 105" d="M14690,23812H14666v-24H14690v24Zm-12.332-22a7.93,7.93,0,0,0-1.186.07,6.262,6.262,0,0,0-5.366,5.09,9.317,9.317,0,0,0,.006,2.23,10.2,10.2,0,0,0,2.067,4.613,9.685,9.685,0,0,0,1.458,1.387,6.831,6.831,0,0,0,1.41.764.672.672,0,0,1,.264.127c-.007.02-.17.375-.317.693l-.311.668.634.006.633.012.03.318a3.416,3.416,0,0,0,.322,1.2,2.909,2.909,0,0,0,1.124,1.123,5.554,5.554,0,0,0,1.757.5c1.725.258,2,.324,2.253.549a.75.75,0,0,1,.233.539v.107h1.577l-.029-.264a2.364,2.364,0,0,0-2.056-2.176c-.239-.061-.81-.158-1.249-.221-1.476-.207-1.924-.375-2.182-.812a1.811,1.811,0,0,1-.2-.74v-.127l.6-.012.6-.006-.323-.705c-.177-.379-.317-.7-.316-.705s.022-.012.245-.1a7.242,7.242,0,0,0,1.356-.734,10,10,0,0,0,1.7-1.709,10.224,10.224,0,0,0,1.835-4.3,9.36,9.36,0,0,0,0-2.23,6.229,6.229,0,0,0-5.367-5.09A8.2,8.2,0,0,0,14677.671,23790Zm.011,12.881a3.569,3.569,0,0,1-1.991-.674,7.1,7.1,0,0,1-2.271-2.742,7.257,7.257,0,0,1-.813-3.484,4.493,4.493,0,0,1,1.164-2.848,5.014,5.014,0,0,1,2.822-1.5,6.316,6.316,0,0,1,1.088-.074,6.4,6.4,0,0,1,1.087.074,4.978,4.978,0,0,1,2.666,1.355,4.468,4.468,0,0,1,1.255,2.365,7.733,7.733,0,0,1-.019,1.932,8.836,8.836,0,0,1-.866,2.449,5.681,5.681,0,0,1-3.573,3.1l.007,0A3.284,3.284,0,0,1,14677.682,23802.885Zm0-9.785-.341.021a3.706,3.706,0,0,0-2.522,1.225,3.193,3.193,0,0,0-.657,1.746v.143h1.566v-.107a1.742,1.742,0,0,1,.209-.67,1.649,1.649,0,0,1,.663-.555,3.113,3.113,0,0,1,.962-.232h.12v-1.57Z" transform="translate(-13277 -19298)" fill="#192338"/>
  </g>
</svg>
