<svg xmlns="http://www.w3.org/2000/svg" width="24" height="24" viewBox="1 1 22 22">
  <g id="Grupo_30580" data-name="Grupo 30580" transform="translate(-1388.999 -4382.002)">
    <path id="Subtração_97" data-name="Subtração 97" d="M14562,23822h-24v-24h24v24Zm-20.069-20.07h0l-.288.1a2.516,2.516,0,0,0-.9.549,3,3,0,0,0-.64,1.023l-.09.268-.006,5.555,0,.824c-.011,5.09-.011,5.09.2,5.52l.022.047a2.46,2.46,0,0,0,1.692,1.354c.1.016,2.265.027,4.932.027h1.31l6.044-.006.312-.1a4.262,4.262,0,0,0,1.68-.963c.181-.184,3.017-3.773,3.372-4.268a2.018,2.018,0,0,0,.406-1.525,1.729,1.729,0,0,0-1.333-1.4,7.224,7.224,0,0,0-1.4-.061h-1.142v-.986a3.513,3.513,0,0,0-.263-1.848,2.652,2.652,0,0,0-1.017-1.068l-.014-.008c-.487-.262-.487-.262-3.776-.262h-2.972l-.024-.418a2.271,2.271,0,0,0-.382-1.256,2.329,2.329,0,0,0-1.256-1l-.287-.1h-4.178Zm6.271,13.895c-3.454,0-5.937-.014-6.038-.029a.427.427,0,0,1-.34-.232.492.492,0,0,1,.089-.461c.241-.359,3.224-4.139,3.359-4.258a3.011,3.011,0,0,1,1.028-.531,36.264,36.264,0,0,1,3.629-.055h2.547c5.925.014,5.925.014,6.032.1a.367.367,0,0,1,.084.5c-.106.213-3.217,4.189-3.432,4.387a3.162,3.162,0,0,1-.9.5C14554.052,23815.814,14553.654,23815.82,14548.2,23815.824Zm-6.853-2.254v0c-.016-.035-.022-1.979-.017-4.727v-.014c.012-4.709.012-4.709.09-4.895a1.131,1.131,0,0,1,.525-.539c.173-.08.23-.088,2.068-.088s1.9.008,2.075.088a1.084,1.084,0,0,1,.52.539,2.172,2.172,0,0,1,.1.813c.023.6.029.637.131.82a1.077,1.077,0,0,0,.526.459,30.8,30.8,0,0,0,3.318.055l.377,0h.323c2.762,0,2.771.012,3.014.27l.028.031c.308.32.317.361.335,1.494l.012,1h-4.185c-3.348,0-4.222,0-4.448.055a3.808,3.808,0,0,0-2.009,1.148c-.138.156-.811.994-1.507,1.883-.7.906-1.254,1.6-1.279,1.605Z" transform="translate(-13149 -19416)" fill="#192338"/>
  </g>
</svg>
