<svg xmlns="http://www.w3.org/2000/svg" width="24" height="24" viewBox="1 1 22 22">
  <g id="Grupo_30579" data-name="Grupo 30579" transform="translate(-1228.998 -4379.002)">
    <path id="Subtração_96" data-name="Subtração 96" d="M14562,23819h-24v-24h24v24Zm-6.652-14.131h0l-.234.119a1.323,1.323,0,0,0-.646.627l-.149.281v10.061l.149.287a1.385,1.385,0,0,0,.879.705,7.445,7.445,0,0,0,1.327.049h.55l1.7-.012.251-.115a1.438,1.438,0,0,0,.706-.705l.113-.25v-9.971l-.1-.217a1.366,1.366,0,0,0-.646-.705l-.287-.154h-3.615Zm-7.155,3.58h0l-.282.15a1.335,1.335,0,0,0-.628.65l-.119.227v6.48l.155.287a1.355,1.355,0,0,0,.873.705,7.438,7.438,0,0,0,1.326.049h.551l1.7-.012.251-.115a1.436,1.436,0,0,0,.705-.705l.12-.25v-6.4l-.1-.215a1.4,1.4,0,0,0-.646-.705l-.281-.15h-3.621Zm-7.156,2.146h0l-.228.119a1.3,1.3,0,0,0-.646.627l-.155.281v4.334l.155.287a1.389,1.389,0,0,0,.872.705,7.462,7.462,0,0,0,1.327.049h.55l1.7-.012.245-.115a1.417,1.417,0,0,0,.711-.705l.114-.25v-2.123c0-2.086,0-2.127-.1-2.344a1.416,1.416,0,0,0-.651-.705l-.281-.148h-3.622Zm15.039-13.594c-2,0-2.044,0-2.17.09a.766.766,0,0,0-.321.6.712.712,0,0,0,.3.572l.155.119,1.082.023,1.076.023-.562.551a28.2,28.2,0,0,1-7.442,5.291,27.333,27.333,0,0,1-4.807,1.828c-.823.236-.932.279-1.058.418a.714.714,0,0,0-.168.631.692.692,0,0,0,.395.5.534.534,0,0,0,.239.053,4.851,4.851,0,0,0,1.022-.232,29.552,29.552,0,0,0,12.811-7.447l.525-.51v.951c0,1.063.022,1.166.3,1.381a.743.743,0,0,0,.825,0l.012-.008c.293-.23.293-.23.293-2.354s0-2.129-.295-2.355l-.01-.006-.161-.119Zm2.511,18.578h-2.863v-9.3h2.863v9.3Zm-7.155,0h-2.857v-5.727h2.857v5.727Zm-7.149,0h-2.863V23812h2.863v3.58Z" transform="translate(-13309 -19416)" fill="#192338"/>
  </g>
</svg>
