<svg xmlns="http://www.w3.org/2000/svg" width="24" height="24" viewBox="1 1 22 22">
  <g id="Grupo_30584" data-name="Grupo 30584" transform="translate(-813.999 -4495.002)">
    <path id="Subtração_101" data-name="Subtração 101" d="M14700,23817h-24v-24h24v24Zm-11.973-22a10,10,0,1,0,10,10A10.012,10.012,0,0,0,14688.025,23795Zm0,18a8,8,0,1,1,8-8A8.013,8.013,0,0,1,14688.025,23813Zm-1-4h0v2h2v-2Zm1-8a2,2,0,0,1,2,2c0,.877-.569,1.313-1.229,1.816a3.588,3.588,0,0,0-1.772,3.182h2a3.1,3.1,0,0,1,1.44-2.354,3.413,3.413,0,0,0,1.56-2.645,4,4,0,1,0-8,0h2A2.006,2.006,0,0,1,14688.025,23801Z" transform="translate(-13862 -19298)" fill="#192338"/>
  </g>
</svg>
