<svg xmlns="http://www.w3.org/2000/svg" width="24" height="24" viewBox="1 1 22 22">
  <g id="Grupo_30153" data-name="Grupo 30153" transform="translate(-56.003 -4387)">
    <g id="Grupo_30152" data-name="Grupo 30152">
      <path id="Subtração_83" data-name="Subtração 83" d="M14194,23955h-24v-24h24v24Zm-10.894-13.111h0V23953H14192v-11.109Zm-11.11,4.449h0v6.66h8.892v-6.66Zm0-13.336h0v11.111h8.892V23933Zm11.11,0h0v6.662H14192V23933Zm6.667,17.777h-4.443v-6.666h4.443v6.666Zm-11.11,0h-4.442v-2.225h4.442v2.225Zm0-8.891h-4.442v-6.668h4.442v6.668Zm11.11-4.443h-4.443v-2.225h4.443v2.225Z" transform="translate(-14114 -19544)" fill="#192338"/>
    </g>
  </g>
</svg>
