<svg xmlns="http://www.w3.org/2000/svg" width="24" height="24" viewBox="1 1 22 22">
  <g id="Grupo_30578" data-name="Grupo 30578" transform="translate(-1077.998 -4387.998)">
    <path id="Subtração_95" data-name="Subtração 95" d="M14560,23828h-24v-24h24v24Zm-19.782-22a2.22,2.22,0,0,0-2.218,2.219v15.561a2.22,2.22,0,0,0,2.218,2.217h15.561a2.22,2.22,0,0,0,2.219-2.217v-15.561a2.22,2.22,0,0,0-2.219-2.219Zm15.561,17.779h-15.561v-15.561h15.561v15.561Zm-11.111-6.514h0l-3.337,4.289h13.336l-4.288-5.711-3.337,4.3-2.374-2.877Z" transform="translate(-13458 -19416)" fill="#192338"/>
  </g>
</svg>
