<svg xmlns="http://www.w3.org/2000/svg" width="24" height="24" viewBox="1 1 22 22">
  <g id="Grupo_30583" data-name="Grupo 30583" transform="translate(-656.003 -4496)">
    <path id="Subtração_100" data-name="Subtração 100" d="M14688,23818h-24v-24h24v24Zm-12.016-22a10,10,0,1,0,10.013,10A10.006,10.006,0,0,0,14675.987,23796Zm.013,17.961v0a13.9,13.9,0,0,1-1.906-3.955h3.819a14.1,14.1,0,0,1-1.911,3.955Zm2.588-.4v0a15.415,15.415,0,0,0,1.38-3.555h2.953a8.009,8.009,0,0,1-4.332,3.555Zm-5.177,0,0,0a8,8,0,0,1-4.332-3.555h2.953a15.371,15.371,0,0,0,1.38,3.555Zm10.329-5.559h-3.377a14.579,14.579,0,0,0,0-4h3.377a7.9,7.9,0,0,1,0,4Zm-5.4,0h-4.681a12.481,12.481,0,0,1,0-4h4.681a12.933,12.933,0,0,1,0,4Zm-6.7,0h-3.383a7.908,7.908,0,0,1,0-4h3.383a15.784,15.784,0,0,0-.144,2,15.483,15.483,0,0,0,.144,2Zm11.28-6h-2.953a15.252,15.252,0,0,0-1.381-3.557,8.036,8.036,0,0,1,4.333,3.555Zm-5.01,0h-3.819a2.439,2.439,0,1,1,3.819,0Zm-5.882,0h-2.953a8.018,8.018,0,0,1,4.334-3.557,15.371,15.371,0,0,0-1.381,3.555Z" transform="translate(-14008 -19298)" fill="#192338"/>
  </g>
</svg>
