<svg xmlns="http://www.w3.org/2000/svg" width="24" height="24" viewBox="1 1 22 22">
  <g id="Grupo_30588" data-name="Grupo 30588" transform="translate(-1242.996 -4495)">
    <path id="Subtração_104" data-name="Subtração 104" d="M14700,23817h-24v-24h24v24Zm-13.84-4.047a2.051,2.051,0,0,0,4.1,0Zm2.045-17.949a1.535,1.535,0,0,0-1.535,1.535v.691c-2.844.68-4.609,3.164-4.609,6.484v5.129l-2.057,2.055v1.027h16.414v-1.027l-2.055-2.055v-5.129c0-3.27-1.809-5.816-4.609-6.484v-.691A1.542,1.542,0,0,0,14688.2,23795Zm4.113,14.867h-8.213v-6.156c0-2.715,1.686-4.609,4.1-4.609s4.113,1.895,4.113,4.609v6.156Z" transform="translate(-13433 -19298)" fill="#192338"/>
  </g>
</svg>
