<svg xmlns="http://www.w3.org/2000/svg" width="24" height="24" viewBox="1 1 22 22">
  <g id="Grupo_30574" data-name="Grupo 30574" transform="translate(-531.004 -4381.996)">
    <path id="Subtração_88" data-name="Subtração 88" d="M14532,23822H14508v-24H14532v24Zm-12.7-22c-.164,0-8.844,3.594-9.018,3.734a.183.183,0,0,1-.035.023l-.01,0c-.246.164-.246.164-.229,5.258l0,.715.012,5.512.119.164c.119.152.625.41,4.557,2.375,3.385,1.7,4.457,2.215,4.59,2.215a8.12,8.12,0,0,0,1.672-.75l1.508-.746.3.293a4.514,4.514,0,0,0,1.932,1.074,3.882,3.882,0,0,0,.977.109,4.459,4.459,0,0,0,1.127-.133,4.144,4.144,0,0,0,1.855-1.02,4.266,4.266,0,0,0,1.336-2.918c0-.43,0-.457-.119-.621a.887.887,0,0,0-.293-.238.749.749,0,0,0-.674.066c-.229.172-.283.293-.324.727a2.89,2.89,0,0,1-2.828,2.719,2.915,2.915,0,0,1-1.318-.32,2.863,2.863,0,0,1-1.562-2.527,2.933,2.933,0,0,1,2.008-2.734,4.744,4.744,0,0,1,.7-.121c.355-.031.445-.055.564-.152a.735.735,0,0,0,.287-.492.661.661,0,0,0-.146-.5.7.7,0,0,0-.645-.285,3.873,3.873,0,0,0-.518.047,4.32,4.32,0,0,0-3.57,3.266,4.713,4.713,0,0,0,.1,2.289l.088.227-.869.434-.857.434v-9.8l3.561-1.477,3.57-1.484.021,3.156a28.744,28.744,0,0,0,.076,3.254.9.9,0,0,0,.217.219.742.742,0,0,0,.836,0l.02-.016a.089.089,0,0,0,.025-.016c.248-.18.248-.18.248-3.355v-.738c0-3.5,0-3.711-.076-3.883a.98.98,0,0,0-.217-.273C14528.1,23803.578,14519.441,23800,14519.3,23800Zm5.027,14.281a.906.906,0,0,0-.187.023.835.835,0,0,0-.533.531c-.062.363-.043.422.857,1.324a10.918,10.918,0,0,0,.977.91.655.655,0,0,0,.283.066.665.665,0,0,0,.293-.066c.08-.043.877-.8,1.693-1.617,1.3-1.3,1.549-1.57,1.584-1.715a.7.7,0,0,0-.207-.66.675.675,0,0,0-.5-.223,1.086,1.086,0,0,0-.162.016c-.141.031-.346.207-1.432,1.289l-1.26,1.25-.553-.543C14524.711,23814.41,14524.551,23814.285,14524.328,23814.285Zm-5.756,3.832h0c-.012,0-.115-.055-.285-.141-.242-.121-.625-.312-1.1-.547-.668-.336-1.525-.758-2.2-1.094l-3.559-1.789v-9.191l.2.074c.1.043,1.746.73,3.57,1.488l3.385,1.41v4.895c0,2.621-.008,4.824-.01,4.895Zm.729-11.035c-.031,0-1.756-.719-3.344-1.387-1.521-.637-3.3-1.395-3.32-1.414.014-.016,1.531-.668,3.332-1.41l3.332-1.391,3.33,1.391c1.793.746,3.307,1.395,3.322,1.41-.012.023-1.49.66-3.311,1.41l-1.146.477c-.309.129-.6.25-.854.355l-.236.1C14519.725,23806.91,14519.311,23807.082,14519.3,23807.082Z" transform="translate(-13977 -19416)" fill="#192338"/>
  </g>
</svg>
