<svg xmlns="http://www.w3.org/2000/svg" width="24" height="24" viewBox="1 1 22 22">
  <g id="Grupo_30575" data-name="Grupo 30575" transform="translate(-682 -4384.002)">
    <path id="Subtração_89" data-name="Subtração 89" d="M14562,23824h-24v-24h24v24Zm-8.669-19.779a2.224,2.224,0,0,1,2.224,2.219v9.094a3.33,3.33,0,1,0,2.225,0v-9.094a4.445,4.445,0,0,0-8.891,0v11.115a2.221,2.221,0,0,1-4.442,0v-9.088a3.337,3.337,0,1,0-2.225,0v9.088a4.445,4.445,0,0,0,8.891,0v-11.115A2.222,2.222,0,0,1,14553.331,23804.223Zm3.336,15.553a1.109,1.109,0,1,1,1.112-1.107A1.112,1.112,0,0,1,14556.667,23819.775Zm-13.333-13.334a1.109,1.109,0,1,1,1.112-1.105A1.11,1.11,0,0,1,14543.334,23806.441Z" transform="translate(-13856 -19416)" fill="#192338"/>
  </g>
</svg>
