<svg xmlns="http://www.w3.org/2000/svg" width="24" height="24" viewBox="1 1 22 22">
  <g id="Grupo_30582" data-name="Grupo 30582" transform="translate(-520.001 -4501.002)">
    <path id="Subtração_99" data-name="Subtração 99" d="M14700,23823h-24v-24h24v24Zm-16.46-5.326a1.079,1.079,0,0,1,.783.3c.242.225.318.432.455,1.236a3.2,3.2,0,0,0,.251.98,1.611,1.611,0,0,0,.992.783c.075.014.726.025,1.513.025h.544l1.907-.006.264-.121a1.57,1.57,0,0,0,.723-.682,2.978,2.978,0,0,0,.252-.98c.143-.812.214-1.008.448-1.23a1.078,1.078,0,0,1,.789-.3,2.044,2.044,0,0,1,.9.25,1.987,1.987,0,0,0,1.047.252,1.037,1.037,0,0,0,.651-.125c.422-.209.532-.359,1.471-2.01.466-.812.892-1.58.933-1.674a1.67,1.67,0,0,0-.1-1.346,2.65,2.65,0,0,0-.747-.76c-.715-.59-.831-.768-.831-1.268s.116-.676.831-1.262c.525-.441.616-.533.747-.764a1.67,1.67,0,0,0,.1-1.346c-.043-.092-.468-.857-.933-1.674-.939-1.646-1.049-1.8-1.471-2.01a.9.9,0,0,0-.522-.119h-.129a2.026,2.026,0,0,0-1.047.246,2.321,2.321,0,0,1-.9.256,1.062,1.062,0,0,1-.789-.311c-.233-.215-.3-.41-.448-1.227a3.062,3.062,0,0,0-.252-.98,1.581,1.581,0,0,0-.723-.682l-.264-.125h-3.976l-.257.125a1.578,1.578,0,0,0-.724.682,3.281,3.281,0,0,0-.251.969c-.14.818-.223,1.041-.467,1.256a1.057,1.057,0,0,1-.771.293,2.367,2.367,0,0,1-.9-.256,2.01,2.01,0,0,0-1.04-.246h-.131a.916.916,0,0,0-.515.107c-.415.2-.526.346-1.483,2.021-.483.85-.891,1.584-.933,1.674a1.678,1.678,0,0,0,.1,1.346c.132.232.223.324.747.764s.633.549.742.777a1.2,1.2,0,0,1-.114,1.166,6.442,6.442,0,0,1-.615.574c-.62.523-.666.572-.825.9a1.028,1.028,0,0,0-.12.646,1.222,1.222,0,0,0,.078.568c.041.094.471.863.938,1.68.938,1.65,1.047,1.8,1.471,2.01a1.039,1.039,0,0,0,.652.125,1.985,1.985,0,0,0,1.046-.252A2.05,2.05,0,0,1,14683.54,23817.674Zm4.461,1.775h-1.62l-.019-.09c-.006-.023-.019-.1-.034-.191l-.011-.061,0-.018c-.016-.094-.034-.2-.054-.311a3.633,3.633,0,0,0-.364-1.268,2.684,2.684,0,0,0-2.051-1.393,1.787,1.787,0,0,0-.317-.023,3.386,3.386,0,0,0-1.22.293l-.042.014-.125.045c-.245.088-.456.164-.49.168a.006.006,0,0,1,0,0c-.069,0-.226-.262-.862-1.377-.45-.795-.795-1.412-.8-1.424a3.91,3.91,0,0,1,.454-.412,8.414,8.414,0,0,0,.646-.586,2.764,2.764,0,0,0,0-3.641,8.089,8.089,0,0,0-.646-.592,3.635,3.635,0,0,1-.454-.406c.006-.02.367-.664.8-1.424.683-1.2.795-1.383.862-1.383,0,0,0,0,.006,0,.036.008.33.107.656.23a3.381,3.381,0,0,0,1.226.291,2.352,2.352,0,0,0,.312-.021,2.486,2.486,0,0,0,1.572-.789,2.764,2.764,0,0,0,.843-1.877c.018-.1.033-.191.048-.275l.01-.059c.019-.109.036-.215.044-.246l.019-.084h1.62c1.508,0,1.614.006,1.632.066.013.041.06.3.1.6a3.7,3.7,0,0,0,.371,1.273,2.713,2.713,0,0,0,2.051,1.393,2.338,2.338,0,0,0,.311.021,3.372,3.372,0,0,0,1.226-.291c.3-.115.612-.219.658-.232v0h0c.065,0,.187.2.861,1.383.426.748.8,1.4.8,1.418a3.36,3.36,0,0,1-.455.418,3.715,3.715,0,0,0-.98,1.045,2.788,2.788,0,0,0-.2,2.268,3.05,3.05,0,0,0,1.178,1.494,3.36,3.36,0,0,1,.455.418c-.006.012-.373.664-.8,1.424-.658,1.158-.794,1.377-.86,1.377,0,0,0,0-.007,0-.042-.01-.343-.113-.657-.232a3.467,3.467,0,0,0-1.224-.283,2.355,2.355,0,0,0-.312.021,2.684,2.684,0,0,0-2.051,1.393,3.629,3.629,0,0,0-.371,1.268c-.042.295-.09.563-.1.6C14689.615,23819.443,14689.509,23819.449,14688,23819.449Zm0-12.3a4.447,4.447,0,0,0-.676.049,3.857,3.857,0,0,0-3.073,3.113,4.934,4.934,0,0,0-.048.682,3.354,3.354,0,0,0,.18,1.178,3.838,3.838,0,0,0,3.33,2.674,1.219,1.219,0,0,0,.155.006,6,6,0,0,0,.825-.066,3.844,3.844,0,0,0,2.924-2.613,3.347,3.347,0,0,0,.179-1.178,4.588,4.588,0,0,0-.048-.682,3.855,3.855,0,0,0-3.072-3.113A4.467,4.467,0,0,0,14688,23807.15Zm-.062,6.135a1.949,1.949,0,0,1-.309-.023,2.342,2.342,0,0,1-1.578-1.113,2.306,2.306,0,0,1,.8-3.121,2.234,2.234,0,0,1,1.143-.316,2.258,2.258,0,0,1,1.955,1.131,2.289,2.289,0,0,1-.007,2.313,2.361,2.361,0,0,1-1.279,1.035A2.688,2.688,0,0,1,14687.938,23813.285Z" transform="translate(-14156 -19298)" fill="#192338"/>
  </g>
</svg>
