<svg xmlns="http://www.w3.org/2000/svg" width="24" height="24" viewBox="1 1 22 22">
  <g id="Grupo_30576" data-name="Grupo 30576" transform="translate(-804 -4385.998)">
    <path id="Subtração_90" data-name="Subtração 90" d="M14562,23826h-24v-24h24v24Zm-17.476-19.969a3.813,3.813,0,0,0-1.862.506,4.212,4.212,0,0,0-1.214,1.213,4.52,4.52,0,0,0-.317.7l-.132.383v6.154c0,5.742.006,6.166.09,6.469a3.521,3.521,0,0,0,2.512,2.451c.349.088.528.09,6.4.094l.046,0c5.979,0,6.093,0,6.47-.1a3.379,3.379,0,0,0,2.308-1.9l.038-.078c.3-.619.3-.619.292-6.436v-.65l-.018-6.01-.149-.424a3.438,3.438,0,0,0-.766-1.262,3.615,3.615,0,0,0-2.582-1.115c-.082,0-.171,0-.271.01l-.371.035-.06-.328a2.063,2.063,0,0,0-1.459-1.65c-.293-.1-.47-.1-3.414-.1a16.753,16.753,0,0,0-3.4.09,2.08,2.08,0,0,0-1.471,1.656l-.06.328-.371-.035A2.388,2.388,0,0,0,14544.526,23806.031Zm5.51,16.43c-2.743-.006-5.719-.023-5.848-.049a1.851,1.851,0,0,1-1.076-.52,1.778,1.778,0,0,1-.526-1.178c-.073-.531-.073-10.826,0-11.355.161-1.184.745-1.686,2.016-1.74l.538-.023.054.293a2.128,2.128,0,0,0,.55,1.088,2.09,2.09,0,0,0,.9.568,20.161,20.161,0,0,0,3.426.082c3.009,0,3.2,0,3.462-.1a1.985,1.985,0,0,0,.879-.572,2.086,2.086,0,0,0,.532-1.07l.054-.293.539.023a1.8,1.8,0,0,1,2.021,1.77c.036.285.048,2.162.036,5.908-.012,5.113-.024,5.529-.1,5.793a1.616,1.616,0,0,1-.437.783,1.736,1.736,0,0,1-1.017.516C14555.714,23822.451,14555.04,23822.461,14550.036,23822.461Zm-4.634-5.107a.728.728,0,0,0-.682.418c-.2.418-.116.627.515,1.238a2.281,2.281,0,0,0,.651.514.793.793,0,0,0,.2.031.877.877,0,0,0,.383-.1c.065-.037.471-.418.9-.85.629-.629.794-.822.843-.986a.756.756,0,0,0-.131-.662.765.765,0,0,0-.612-.3,1.031,1.031,0,0,0-.112.008c-.2.035-.274.078-.747.537-.367.354-.483.451-.543.451a.045.045,0,0,1-.037-.02A.894.894,0,0,0,14545.4,23817.354Zm7.271-.012c-2.228,0-2.293.006-2.458.1a.675.675,0,0,0-.377.693.69.69,0,0,0,.389.641,10.451,10.451,0,0,0,2.446.082h2.3l.155-.107a.779.779,0,0,0,.377-.555.811.811,0,0,0-.365-.742l-.179-.113Zm-7.243-4.1a.834.834,0,0,0-.339.078.773.773,0,0,0-.443.873,4.518,4.518,0,0,0,1.119,1.18.836.836,0,0,0,.322.064.9.9,0,0,0,.365-.078,7.566,7.566,0,0,0,.938-.873c.856-.873.927-.986.831-1.344a.758.758,0,0,0-.76-.586c-.247,0-.378.086-.873.574a3.7,3.7,0,0,1-.478.436,1.061,1.061,0,0,1-.228-.15A.718.718,0,0,0,14545.431,23813.244Zm7.171,0-.028,0h-.021c-2.193.018-2.235.018-2.372.117a.819.819,0,0,0-.355.611.737.737,0,0,0,.254.59.921.921,0,0,0,.233.156c.071.027.862.045,2.35.053h.252c2.2,0,2.2-.006,2.433-.311l.013-.018a.575.575,0,0,0,.132-.436.593.593,0,0,0-.132-.449l-.014-.02c-.2-.262-.232-.3-1.643-.3-.21,0-.449,0-.725,0l-.15,0Zm-2.319-5.15c-1.586,0-3.235-.025-3.319-.07-.223-.121-.245-.23-.245-1.184-.006-.99.016-1.08.287-1.215.153-.076.383-.084,3.062-.084s2.914.008,3.067.084c.266.131.287.221.287,1.209.006.959-.023,1.094-.263,1.2C14553.063,23808.072,14551.646,23808.09,14550.282,23808.09Z" transform="translate(-13734 -19416)" fill="#192338"/>
  </g>
</svg>
