<svg xmlns="http://www.w3.org/2000/svg" width="24" height="24" viewBox="1 1 22 22">
  <g id="Grupo_30572" data-name="Grupo 30572" transform="translate(-259.999 -4386.996)">
    <path id="Subtração_86" data-name="Subtração 86" d="M14515,23827h-24v-24h24v24Zm-12-10.752a18.542,18.542,0,0,0-6.251,1.254c-1.709.686-3.747,1.893-3.747,3.746V23825h20v-3.754c0-1.854-2.038-3.061-3.747-3.746A18.542,18.542,0,0,0,14503,23816.248Zm0-11.248a5,5,0,1,0,5,5A5,5,0,0,0,14503,23805Zm7.5,17.5h-15v-1.238c.252-.9,4.128-2.512,7.5-2.512s7.245,1.6,7.5,2.5v1.25Zm-7.5-10a2.5,2.5,0,1,1,2.5-2.5A2.5,2.5,0,0,1,14503,23812.5Z" transform="translate(-14231 -19416)" fill="#192338"/>
  </g>
</svg>
