<svg xmlns="http://www.w3.org/2000/svg" xmlns:xlink="http://www.w3.org/1999/xlink" width="36" height="36" viewBox="0 0 36 36">
  <defs>
    <clipPath id="clip-Humor_ícone_Laranja">
      <rect width="36" height="36"/>
    </clipPath>
  </defs>
  <g id="Humor_ícone_Laranja" data-name="Humor_ícone Laranja" clip-path="url(#clip-Humor_ícone_Laranja)">
    <rect id="Retângulo_1" data-name="Retângulo 1" width="36" height="36" fill="none"/>
    <g id="Grupo_1" data-name="Grupo 1" transform="translate(-298 -310)">
      <g id="Grupo_10568" data-name="Grupo 10568">
        <g id="_002-sad" data-name="002-sad" transform="translate(301.928 314)">
          <g id="Grupo_10564" data-name="Grupo 10564" transform="translate(0.072)">
            <g id="group-3svg" transform="translate(0)">
              <path id="path-1_21_" d="M347.8,178.233a1.619,1.619,0,1,1-1.619-1.619A1.619,1.619,0,0,1,347.8,178.233Z" transform="translate(-327.568 -167.903)" fill="#fb8702"/>
              <path id="path-2_21_" d="M159.883,178.233a1.619,1.619,0,1,1-1.619-1.619A1.619,1.619,0,0,1,159.883,178.233Z" transform="translate(-148.92 -167.903)" fill="#fb8702"/>
              <path id="path-3_21_" d="M159.737,340.6a.667.667,0,0,1-.667-.667,5.2,5.2,0,0,1,5.164-5.223h2.249a5.185,5.185,0,0,1,5.164,5.194.667.667,0,1,1-1.334,0,3.849,3.849,0,0,0-3.83-3.859h-2.249a3.863,3.863,0,0,0-3.83,3.888A.667.667,0,0,1,159.737,340.6Z" transform="translate(-151.245 -318.214)" fill="#fb8702"/>
              <path id="path-4_21_" d="M14.072,28a14,14,0,1,1,14-14A14.016,14.016,0,0,1,14.072,28Zm0-26.67A12.67,12.67,0,1,0,26.742,14,12.685,12.685,0,0,0,14.072,1.33Z" transform="translate(-0.072 0)" fill="#fb8702"/>
            </g>
          </g>
        </g>
      </g>
    </g>
  </g>
</svg>
