<svg xmlns="http://www.w3.org/2000/svg" xmlns:xlink="http://www.w3.org/1999/xlink" width="36" height="36" viewBox="0 0 36 36">
  <defs>
    <clipPath id="clip-Humor_ícone_Verde_Claro">
      <rect width="36" height="36"/>
    </clipPath>
  </defs>
  <g id="Humor_ícone_Verde_Claro" data-name="Humor_ícone Verde Claro" clip-path="url(#clip-Humor_ícone_Verde_Claro)">
    <rect id="Retângulo_1" data-name="Retângulo 1" width="36" height="36" fill="none"/>
    <g id="Grupo_10571" data-name="Grupo 10571" transform="translate(-415 -310)">
      <g id="_001-happy-1" data-name="001-happy-1" transform="translate(418.928 314)">
        <g id="Grupo_10563" data-name="Grupo 10563" transform="translate(0.072)">
          <g id="group-2svg" transform="translate(0)">
            <path id="path-1_10_" d="M347.893,178.278a1.664,1.664,0,1,1-1.664-1.664A1.664,1.664,0,0,1,347.893,178.278Z" transform="translate(-327.63 -167.932)" fill="#76b100"/>
            <path id="path-2_10_" d="M159.974,178.278a1.664,1.664,0,1,1-1.664-1.664A1.665,1.665,0,0,1,159.974,178.278Z" transform="translate(-148.949 -167.932)" fill="#76b100"/>
            <path id="path-3_10_" d="M166.681,340.916H164.37a5.283,5.283,0,0,1-5.309-5.246.686.686,0,0,1,1.372,0,3.864,3.864,0,0,0,3.937,3.874h2.311a3.834,3.834,0,0,0,3.937-3.81.686.686,0,1,1,1.372,0A5.191,5.191,0,0,1,166.681,340.916Z" transform="translate(-151.415 -318.585)" fill="#76b100"/>
            <path id="path-4_10_" d="M14.072,28.007a14,14,0,1,1,14-14A14.018,14.018,0,0,1,14.072,28.007Zm0-26.677A12.674,12.674,0,1,0,26.742,14,12.686,12.686,0,0,0,14.072,1.33Z" transform="translate(-0.072)" fill="#76b100"/>
          </g>
        </g>
      </g>
    </g>
  </g>
</svg>
