<svg version="1.2" xmlns="http://www.w3.org/2000/svg" viewBox="0 0 18 18" width="18" height="18">
	<title>check_green-svg</title>
	<defs>
		<clipPath clipPathUnits="userSpaceOnUse" id="cp1">
			<path d="m-8-8h34v34h-34z"/>
		</clipPath>
	</defs>
	<style>
		.s0 { fill: #32ba7c } 
		.s1 { fill: #0aa06e } 
		.s2 { fill: #ffffff } 
	</style>
	<g id="Clip-Path: Check_Ativo_2" clip-path="url(#cp1)">
		<g id="Check_Ativo_2">
			<g id="Grupo_10809">
				<circle id="Elipse_282" class="s0" cx="9" cy="9" r="8.7"/>
				<path id="Caminho_3525" class="s1" d="m14.2 5.5l3.5 3.3v0.2q0 1.4-0.4 2.8-0.5 1.4-1.4 2.5-0.9 1.1-2.1 1.9-1.2 0.8-2.5 1.2l-4.5-4.5z"/>
				<path id="Caminho_3526" class="s2" d="m9.2 11q0.2 0.1 0.2 0.3 0.1 0.2 0.1 0.4 0 0.2-0.1 0.4 0 0.1-0.2 0.3l-0.8 0.8q-0.1 0.1-0.3 0.2-0.2 0.1-0.4 0.1-0.2 0-0.4-0.1-0.2-0.1-0.3-0.2l-3.5-3.5q-0.1-0.2-0.2-0.4-0.1-0.2-0.1-0.4 0-0.2 0.1-0.3 0.1-0.2 0.2-0.4l0.8-0.8q0.1-0.1 0.3-0.2 0.2-0.1 0.4-0.1 0.2 0 0.4 0.1 0.2 0.1 0.3 0.2z"/>
				<path id="Caminho_3527" class="s2" d="m12.3 4.9q0.1-0.2 0.3-0.2 0.2-0.1 0.4-0.1 0.2 0 0.4 0.1 0.2 0 0.3 0.2l0.8 0.8q0.1 0.1 0.2 0.3 0.1 0.2 0.1 0.4 0 0.2-0.1 0.4-0.1 0.2-0.2 0.3l-6 6q-0.2 0.2-0.4 0.2-0.2 0.1-0.4 0.1-0.2 0-0.3-0.1-0.2 0-0.4-0.2l-0.8-0.8q-0.1-0.1-0.2-0.3-0.1-0.2-0.1-0.4 0-0.2 0.1-0.4 0.1-0.2 0.2-0.3z"/>
			</g>
		</g>
	</g>
</svg>