<svg xmlns="http://www.w3.org/2000/svg" width="120" height="90" viewBox="0 0 120 90">
  <g id="Grupo_15729" data-name="Grupo 15729" transform="translate(-5944 -19372.1)">
    <g id="Caminho_3574" data-name="Caminho 3574" transform="translate(5944 19372.1)" fill="#292929" opacity="0.5">
      <path d="M 115 89.5 L 5 89.5 C 2.518692255020142 89.5 0.5 87.48130798339844 0.5 85 L 0.5 5 C 0.5 2.518692255020142 2.518692255020142 0.5 5 0.5 L 115 0.5 C 117.4813079833984 0.5 119.5 2.518692255020142 119.5 5 L 119.5 85 C 119.5 87.48130798339844 117.4813079833984 89.5 115 89.5 Z" stroke="none"/>
      <path d="M 5 1 C 2.794403076171875 1 1 2.794403076171875 1 5 L 1 85 C 1 87.20559692382812 2.794403076171875 89 5 89 L 115 89 C 117.2055969238281 89 119 87.20559692382812 119 85 L 119 5 C 119 2.794403076171875 117.2055969238281 1 115 1 L 5 1 M 5 0 L 115 0 C 117.7614135742188 0 120 2.23858642578125 120 5 L 120 85 C 120 87.76141357421875 117.7614135742188 90 115 90 L 5 90 C 2.23858642578125 90 0 87.76141357421875 0 85 L 0 5 C 0 2.23858642578125 2.23858642578125 0 5 0 Z" stroke="none" fill="#e2e2e3"/>
    </g>
    <g id="Grupo_14783" data-name="Grupo 14783" transform="translate(5567 17793.703)">
      <circle id="Elipse_475" data-name="Elipse 475" cx="19" cy="19" r="19" transform="translate(418 1604.396)" fill="#fff" opacity="0.5"/>
      <path id="Caminho_3570" data-name="Caminho 3570" d="M16.861,7A.857.857,0,0,0,16,7.857v9.595A1.646,1.646,0,0,1,14.28,19H7.438a1.646,1.646,0,0,1-1.723-1.551V7.857A.857.857,0,0,0,4,7.857v9.595a3.359,3.359,0,0,0,3.438,3.266H14.28a3.359,3.359,0,0,0,3.438-3.266V7.857A.857.857,0,0,0,16.861,7Z" transform="translate(425.857 1612.541)" fill="#fff"/>
      <path id="Caminho_3571" data-name="Caminho 3571" d="M17.575,3.572H14.146V1.857A.857.857,0,0,0,13.288,1H8.144a.857.857,0,0,0-.857.857V3.572H3.857a.857.857,0,0,0,0,1.715H17.575a.857.857,0,1,0,0-1.715ZM9,3.572V2.715h3.429v.857Z" transform="translate(426 1613.396)" fill="#fff"/>
      <path id="Caminho_3572" data-name="Caminho 3572" d="M10.715,15.859v-6A.857.857,0,1,0,9,9.857v6a.857.857,0,1,0,1.715,0Z" transform="translate(425.145 1612.256)" fill="#fff"/>
      <path id="Caminho_3573" data-name="Caminho 3573" d="M14.715,15.859v-6a.857.857,0,1,0-1.715,0v6a.857.857,0,1,0,1.715,0Z" transform="translate(424.574 1612.256)" fill="#fff"/>
    </g>
  </g>
</svg>
