<svg xmlns="http://www.w3.org/2000/svg" width="38" height="38" viewBox="0 0 38 38">
  <g id="Grupo_15730" data-name="Grupo 15730" transform="translate(-1030 -204)">
    <g id="Grupo_14783" data-name="Grupo 14783" transform="translate(612 -1400.396)">
      <circle id="Elipse_475" data-name="Elipse 475" cx="19" cy="19" r="19" transform="translate(418 1604.396)" fill="#fff" opacity="0.5"/>
      <path id="Caminho_3570" data-name="Caminho 3570" d="M16.861,7A.857.857,0,0,0,16,7.857v9.595A1.646,1.646,0,0,1,14.28,19H7.438a1.646,1.646,0,0,1-1.723-1.551V7.857A.857.857,0,0,0,4,7.857v9.595a3.359,3.359,0,0,0,3.438,3.266H14.28a3.359,3.359,0,0,0,3.438-3.266V7.857A.857.857,0,0,0,16.861,7Z" transform="translate(425.857 1612.541)" fill="#fff"/>
      <path id="Caminho_3571" data-name="Caminho 3571" d="M17.575,3.572H14.146V1.857A.857.857,0,0,0,13.288,1H8.144a.857.857,0,0,0-.857.857V3.572H3.857a.857.857,0,0,0,0,1.715H17.575a.857.857,0,1,0,0-1.715ZM9,3.572V2.715h3.429v.857Z" transform="translate(426 1613.396)" fill="#fff"/>
      <path id="Caminho_3572" data-name="Caminho 3572" d="M10.715,15.859v-6A.857.857,0,1,0,9,9.857v6a.857.857,0,1,0,1.715,0Z" transform="translate(425.145 1612.256)" fill="#fff"/>
      <path id="Caminho_3573" data-name="Caminho 3573" d="M14.715,15.859v-6a.857.857,0,1,0-1.715,0v6a.857.857,0,1,0,1.715,0Z" transform="translate(424.574 1612.256)" fill="#fff"/>
    </g>
  </g>
</svg>
