<svg version="1.2" xmlns="http://www.w3.org/2000/svg" viewBox="0 0 12 14" width="12" height="14">
	<title>icon_calendar-svg</title>
	<defs>
		<clipPath clipPathUnits="userSpaceOnUse" id="cp1">
			<path d="m-7-7h26v28h-26z"/>
		</clipPath>
	</defs>
	<style>
		.s0 { fill: none } 
		.s1 { fill: #999999 } 
	</style>
	<g id="Clip-Path: Icones_Calendar" clip-path="url(#cp1)">
		<g id="Icones_Calendar">
			<g id="Grupo_1">
				<g id="block_black_24dp">
					<path id="Caminho_3277" class="s0" d="m-6-6h24v24h-24z"/>
				</g>
			</g>
			<path id="Caminho_3289" fill-rule="evenodd" class="s1" d="m10 0v1.3h0.7q0.2 0 0.5 0.1 0.2 0.1 0.4 0.3 0.2 0.2 0.3 0.5 0.1 0.2 0.1 0.5v9.3q0 0.3-0.1 0.5-0.1 0.3-0.3 0.4-0.2 0.2-0.4 0.3-0.3 0.1-0.5 0.1h-9.4q-0.2 0-0.5-0.1-0.2-0.1-0.4-0.3-0.2-0.1-0.3-0.4-0.1-0.2-0.1-0.5v-9.3q0-0.3 0.1-0.5 0.1-0.3 0.3-0.5 0.2-0.2 0.4-0.3 0.3-0.1 0.5-0.1h0.7v-1.3h1.3v1.3h5.4v-1.3zm0.6 4.7h-9.3v7.3h9.3zm-1.3 6h-3.3v-3.3h3.3z"/>
		</g>
	</g>
</svg>