<svg xmlns="http://www.w3.org/2000/svg" width="114.926" height="114.926" viewBox="0 0 114.926 114.926">
  <g id="Group_5352" data-name="Group 5352" transform="translate(20355.57 22377.148)">
    <g id="Group_5351" data-name="Group 5351" transform="translate(-20361.379 -22387)">
      <g id="Group_4105" data-name="Group 4105" transform="translate(55.087 0) rotate(31)">
        <path id="Subtraction_3" data-name="Subtraction 3" d="M30.8,57.758h0a51.04,51.04,0,0,0-2.3-7.236,39.7,39.7,0,0,0-8.074-13.042c-3.978-4-9.322-6.689-13.1-8.243A53.19,53.19,0,0,0,0,26.8a.081.081,0,0,1,.01-.015c.239-.345,1.523-2.174,3.27-4.252a30.9,30.9,0,0,1,6.937-6.414,10.644,10.644,0,0,1,5.452-1.51,9.839,9.839,0,0,1,3.836.736l0,0a57.811,57.811,0,0,1,4.483-4.087A56.787,56.787,0,0,1,35.073,3.98,41.278,41.278,0,0,1,43.947.97,38.811,38.811,0,0,1,52.012,0c2.48,0,4.231.365,4.931,1.027a4.945,4.945,0,0,1,1.092,2.7A20.776,20.776,0,0,1,58.2,8.279a31.679,31.679,0,0,1-2.612,10.851,56.421,56.421,0,0,1-3.959,7.116c-1.258,1.94-2.673,3.9-4.2,5.835a70.883,70.883,0,0,1-4.7,5.4,8.024,8.024,0,0,1,.653,2.665,10.083,10.083,0,0,1-.18,2.9,11.762,11.762,0,0,1-1.4,3.566,36.877,36.877,0,0,1-6.612,7.474c-2.33,2.111-4.357,3.656-4.377,3.671Zm7.049-45.291a7.355,7.355,0,1,0,7.355,7.355A7.363,7.363,0,0,0,37.853,12.467Z" transform="translate(0 41.188) rotate(-45)" fill="#fff"/>
        <path id="Rectangle_2977" data-name="Rectangle 2977" d="M4.243,0H45.331a1.061,1.061,0,0,1,1.061,1.061V7.425a1.061,1.061,0,0,1-1.061,1.061H4.243A4.243,4.243,0,0,1,0,4.243v0A4.243,4.243,0,0,1,4.243,0Z" transform="matrix(0.017, -1, 1, 0.017, 35.634, 106.809)" fill="#fff"/>
        <path id="Rectangle_2978" data-name="Rectangle 2978" d="M4.243,0H22.7a1.061,1.061,0,0,1,1.061,1.061V7.425A1.061,1.061,0,0,1,22.7,8.486H4.243A4.243,4.243,0,0,1,0,4.243v0A4.243,4.243,0,0,1,4.243,0Z" transform="matrix(0.017, -1, 1, 0.017, 20.661, 88.843)" fill="#fff"/>
        <path id="Rectangle_2979" data-name="Rectangle 2979" d="M4.243,0H22.7a1.061,1.061,0,0,1,1.061,1.061V7.425A1.061,1.061,0,0,1,22.7,8.486H4.243A4.243,4.243,0,0,1,0,4.243v0A4.243,4.243,0,0,1,4.243,0Z" transform="matrix(0.017, -1, 1, 0.017, 50.646, 88.843)" fill="#fff"/>
      </g>
      <rect id="Rectangle_3494" data-name="Rectangle 3494" width="114.926" height="114.926" transform="translate(5.808 9.851)" fill="none"/>
    </g>
  </g>
</svg>
