<svg xmlns="http://www.w3.org/2000/svg" width="16" height="16" viewBox="6 6 16 16"><defs><clipPath id="search_semantic_svg__a"><path d="M0 0h28v28H0z"></path></clipPath></defs><g data-name="Icones Lupa" clip-path="url(#search_semantic_svg__a)"><g data-name="Grupo 1"><path data-name="Caminho 3277" d="M1 1h24v24H1z" fill="none"></path></g><path d="M20.75 19.054l-2.714-2.715a.653.653 0 00-.463-.191h-.444a5.661 5.661 0 10-.98.98v.444a.653.653 0 00.191.463l2.715 2.715a.651.651 0 00.923 0l.771-.771a.657.657 0 00.001-.925zm-8.087-2.905a3.485 3.485 0 113.486-3.486 3.483 3.483 0 01-3.486 3.486z" fill="rgba(0,0,0,0.4)"></path></g></svg>
