<svg xmlns="http://www.w3.org/2000/svg" xmlns:xlink="http://www.w3.org/1999/xlink" width="44.6" height="85" viewBox="0 0 44.6 85">
  <defs>
    <clipPath id="clip-Arrow_Dir_azul">
      <rect width="44.6" height="85"/>
    </clipPath>
  </defs>
  <g id="Arrow_Dir_azul" data-name="Arrow Dir azul" clip-path="url(#clip-Arrow_Dir_azul)">
    <g id="check_circle_black_24dp" transform="translate(5 7)">
      <path id="Caminho_3271" data-name="Caminho 3271" d="M0,0H24V20.767H0Z" fill="none"/>
    </g>
    <g id="Componente_15_1" data-name="Componente 15 – 1" transform="translate(8.92 6.85)">
      <path id="Subtração_81" data-name="Subtração 81" d="M0,0V71.506a36.3,36.3,0,0,0,11.152-4.8,36.741,36.741,0,0,0,8.869-8.047A36.535,36.535,0,0,0,25.883,48.1,36.784,36.784,0,0,0,28,35.753a36.78,36.78,0,0,0-2.117-12.347,36.579,36.579,0,0,0-5.861-10.564A36.737,36.737,0,0,0,11.152,4.8,36.262,36.262,0,0,0,0,0Z" transform="translate(28 71.506) rotate(180)" fill="#3455ab"/>
      <path id="Caminho_4108" data-name="Caminho 4108" d="M5.88,3.7l6.3,6.3-6.3,6.3,1.7,1.7,8-8-8-8Z" transform="translate(5.422 25.999)" fill="#fff"/>
    </g>
  </g>
</svg>
