<svg xmlns="http://www.w3.org/2000/svg" xmlns:xlink="http://www.w3.org/1999/xlink" width="44.6" height="85" viewBox="0 0 44.6 85">
  <defs>
    <clipPath id="clip-Arrow_Dir_Cinza">
      <rect width="44.6" height="85"/>
    </clipPath>
  </defs>
  <g id="Arrow_Dir_Cinza" data-name="Arrow Dir Cinza" clip-path="url(#clip-Arrow_Dir_Cinza)">
    <g id="check_circle_black_24dp" transform="translate(5 7)">
      <path id="Caminho_3271" data-name="Caminho 3271" d="M0,0H24V20.767H0Z" fill="none"/>
    </g>
    <path id="Subtração_81" data-name="Subtração 81" d="M0,71.506V0A36.309,36.309,0,0,1,11.153,4.8a36.805,36.805,0,0,1,8.872,8.047,36.681,36.681,0,0,1,5.859,10.564A36.81,36.81,0,0,1,28,35.752,36.81,36.81,0,0,1,25.883,48.1a36.681,36.681,0,0,1-5.859,10.564,36.805,36.805,0,0,1-8.872,8.047A36.311,36.311,0,0,1,0,71.506Z" transform="translate(35.92 78.356) rotate(180)" fill="#ededed"/>
    <path id="Caminho_4108" data-name="Caminho 4108" d="M5.88,3.7l6.3,6.3-6.3,6.3,1.7,1.7,8-8-8-8Z" transform="translate(13.342 32.849)" fill="#adadad"/>
  </g>
</svg>
