<svg xmlns="http://www.w3.org/2000/svg" xmlns:xlink="http://www.w3.org/1999/xlink" width="31" height="30" viewBox="0 0 31 30">
  <defs>
    <clipPath id="clip-Atualizar_Galeria">
      <rect width="31" height="30"/>
    </clipPath>
  </defs>
  <g id="Atualizar_Galeria" data-name="Atualizar Galeria" clip-path="url(#clip-Atualizar_Galeria)">
    <g id="Grupo_15642" data-name="Grupo 15642" transform="translate(0 -2)">
      <g id="check_circle_black_24dp" transform="translate(5 7)">
        <path id="Caminho_3271" data-name="Caminho 3271" d="M0,0H24V20.767H0Z" fill="none"/>
      </g>
    </g>
    <g id="Grupo_15644" data-name="Grupo 15644" transform="translate(1)">
      <path id="Caminho_3483" data-name="Caminho 3483" d="M9.963,2.992a6.873,6.873,0,0,1,3.565,1h-.578a1,1,0,1,0,0,1.992h2.988a1,1,0,0,0,1-1V2a1,1,0,1,0-1.992,0v.515A8.963,8.963,0,0,0,1,9.963a1,1,0,1,0,1.992,0A6.979,6.979,0,0,1,9.963,2.992Z" transform="translate(4.418 5.119)" fill="#b2b2b2"/>
      <path id="Caminho_3484" data-name="Caminho 3484" d="M17.938,9a1,1,0,0,0-1,1,6.979,6.979,0,0,1-6.971,6.971,6.873,6.873,0,0,1-3.565-1h.578a1,1,0,1,0,0-1.992H4a1,1,0,0,0-1,1v2.988a1,1,0,1,0,1.992,0v-.515A8.963,8.963,0,0,0,18.934,10a1,1,0,0,0-1-1Z" transform="translate(4.41 5.086)" fill="#b2b2b2"/>
    </g>
  </g>
</svg>
