<svg xmlns="http://www.w3.org/2000/svg" xmlns:xlink="http://www.w3.org/1999/xlink" width="34" height="28" viewBox="0 0 34 28">
  <defs>
    <clipPath id="clip-Deslike_Thumbnail_">
      <rect width="34" height="28"/>
    </clipPath>
  </defs>
  <g id="Deslike_Thumbnail_" data-name="Deslike Thumbnail " clip-path="url(#clip-Deslike_Thumbnail_)">
    <g id="Grupo_15710" data-name="Grupo 15710" transform="translate(-1021 -385)">
      <g id="Elipse_569" data-name="Elipse 569" transform="translate(1026 387)" fill="#e23851" stroke="#fff" stroke-width="2">
        <circle cx="12" cy="12" r="12" stroke="none"/>
        <circle cx="12" cy="12" r="11" fill="none"/>
      </g>
      <path id="Caminho_4246" data-name="Caminho 4246" d="M.195,4.771A1.239,1.239,0,0,0,.8,5.834,1.238,1.238,0,0,0,1.817,7.776H4.432c-.08.363-.19.908-.266,1.478-.2,1.484-.063,2.307.427,2.59a1.071,1.071,0,0,0,.927.1,1.219,1.219,0,0,0,.705-.817l.687-1.8a7.873,7.873,0,0,1,2.54-2.6h2.387a.355.355,0,0,0,.355-.355V1.16A.355.355,0,0,0,11.839.8H9.411A11.489,11.489,0,0,0,5.178,0H2.329A1.238,1.238,0,0,0,1.277,1.89,1.238,1.238,0,0,0,.8,3.708,1.239,1.239,0,0,0,.195,4.771ZM9.7,1.515h1.785V6.022H9.7ZM1.433,4.243h.384a.355.355,0,1,0,0-.71.528.528,0,0,1,0-1.056h.512a.355.355,0,1,0,0-.71.528.528,0,1,1,0-1.056H5.178A10.78,10.78,0,0,1,8.989,1.4V6.188A8.256,8.256,0,0,0,6.252,9.066l0,.006-.691,1.809-.005.015a.58.58,0,0,1-.286.384.384.384,0,0,1-.319-.052s-.3-.223-.079-1.876a18.493,18.493,0,0,1,.355-1.845.355.355,0,0,0-.344-.443H1.817a.528.528,0,0,1,0-1.056.355.355,0,1,0,0-.71H1.433a.528.528,0,1,1,0-1.056Z" transform="translate(1032.155 393.793)" fill="#fff" stroke="#fff" stroke-width="0.75"/>
    </g>
  </g>
</svg>
