<svg xmlns="http://www.w3.org/2000/svg" xmlns:xlink="http://www.w3.org/1999/xlink" width="38" height="37.1" viewBox="0 0 38 37.1">
  <defs>
    <clipPath id="clip-Dislike_Flutuante">
      <rect width="38" height="37.1"/>
    </clipPath>
  </defs>
  <g id="Dislike_Flutuante" data-name="Dislike Flutuante" clip-path="url(#clip-Dislike_Flutuante)">
    <g id="Grupo_15642" data-name="Grupo 15642" transform="translate(0 -2)">
      <g id="check_circle_black_24dp" transform="translate(5 7)">
        <path id="Caminho_3271" data-name="Caminho 3271" d="M0,0H24V20.767H0Z" fill="none"/>
      </g>
    </g>
    <path id="Caminho_3721" data-name="Caminho 3721" d="M.195,9.535A2.476,2.476,0,0,0,1.4,11.659,2.473,2.473,0,0,0,3.44,15.54H8.668c-.16.726-.379,1.814-.532,2.954-.4,2.966-.126,4.611.854,5.177a2.143,2.143,0,0,0,1.855.2,2.437,2.437,0,0,0,1.41-1.633l1.374-3.6c.911-2.249,4.282-4.645,5.08-5.189h4.775a.71.71,0,0,0,.711-.71V2.318a.71.71,0,0,0-.711-.71H18.628A23,23,0,0,0,10.161,0h-5.7a2.474,2.474,0,0,0-2.1,3.778A2.472,2.472,0,0,0,1.4,7.41,2.476,2.476,0,0,0,.195,9.535ZM19.2,3.028h3.57v9.008H19.2ZM2.672,8.48H3.44a.71.71,0,1,0,0-1.42,1.055,1.055,0,1,1,0-2.11H4.464a.71.71,0,1,0,0-1.42,1.055,1.055,0,1,1,0-2.11h5.7A21.576,21.576,0,0,1,17.783,2.8v9.564c-1.073.74-4.452,3.218-5.474,5.752l0,.012-1.382,3.616-.011.031a1.159,1.159,0,0,1-.572.767.768.768,0,0,1-.638-.1c-.006,0-.6-.445-.158-3.748a36.937,36.937,0,0,1,.71-3.688.71.71,0,0,0-.689-.885H3.44a1.055,1.055,0,1,1,0-2.11.71.71,0,1,0,0-1.42H2.672a1.055,1.055,0,1,1,0-2.11Z" transform="translate(6.805 6.721)" fill="#a8a6aa"/>
  </g>
</svg>
