<svg xmlns="http://www.w3.org/2000/svg" xmlns:xlink="http://www.w3.org/1999/xlink" width="28" height="30" viewBox="0 0 28 30">
  <defs>
    <clipPath id="clip-dislike_Ativo">
      <rect width="28" height="30"/>
    </clipPath>
  </defs>
  <g id="dislike_Ativo" data-name="dislike Ativo" clip-path="url(#clip-dislike_Ativo)">
    <g id="Grupo_15642" data-name="Grupo 15642" transform="translate(0 -2)">
      <g id="check_circle_black_24dp" transform="translate(5 7)">
        <path id="Caminho_3271" data-name="Caminho 3271" d="M0,0H24V20.767H0Z" fill="none"/>
      </g>
    </g>
    <g id="like" transform="translate(-5 6.421)">
      <g id="Grupo_11775" data-name="Grupo 11775" transform="translate(0 0)">
        <path id="Caminho_3489" data-name="Caminho 3489" d="M.195,7.322a1.9,1.9,0,0,0,.926,1.631,1.9,1.9,0,0,0,1.564,2.98H6.7c-.123.557-.291,1.393-.408,2.269-.3,2.278-.1,3.541.655,3.976a1.643,1.643,0,0,0,1.423.155A1.871,1.871,0,0,0,9.45,17.079L10.5,14.318c.7-1.727,3.286-3.567,3.9-3.985h3.664a.545.545,0,0,0,.545-.545V1.78a.545.545,0,0,0-.545-.545H14.34A17.634,17.634,0,0,0,7.843,0H3.471A1.9,1.9,0,0,0,1.856,2.9a1.9,1.9,0,0,0-.734,2.789A1.9,1.9,0,0,0,.195,7.322Zm14.587-5h2.74V9.243h-2.74ZM2.1,6.512h.589a.545.545,0,1,0,0-1.09.81.81,0,0,1,0-1.62h.786a.545.545,0,1,0,0-1.09.81.81,0,1,1,0-1.62H7.843a16.546,16.546,0,0,1,5.849,1.063V9.5c-.823.568-3.416,2.471-4.2,4.417l0,.009L8.427,16.7l-.008.024a.89.89,0,0,1-.439.589.589.589,0,0,1-.489-.08s-.46-.342-.121-2.879a28.385,28.385,0,0,1,.545-2.832.545.545,0,0,0-.528-.68h-4.7a.81.81,0,1,1,0-1.62.545.545,0,1,0,0-1.09H2.1a.81.81,0,1,1,0-1.62Z" transform="translate(9.805 0)" fill="#e23851"/>
      </g>
    </g>
  </g>
</svg>
