<svg xmlns="http://www.w3.org/2000/svg" xmlns:xlink="http://www.w3.org/1999/xlink" width="34" height="30" viewBox="0 0 34 30">
  <defs>
    <clipPath id="clip-Expandir">
      <rect width="34" height="30"/>
    </clipPath>
  </defs>
  <g id="Expandir" clip-path="url(#clip-Expandir)">
    <path id="Caminho_4277" data-name="Caminho 4277" d="M16,10H14v2h2Zm0,4H14v2h2ZM8,10H6v2H8Zm4,0H10v2h2Zm8-6H4A2.006,2.006,0,0,0,2,6V18a2.006,2.006,0,0,0,2,2H20a2.006,2.006,0,0,0,2-2V6A2.006,2.006,0,0,0,20,4Zm0,14H4V6H20Z" transform="translate(5 3)" fill="#fff"/>
  </g>
</svg>
