<svg xmlns="http://www.w3.org/2000/svg" xmlns:xlink="http://www.w3.org/1999/xlink" width="38" height="37.1" viewBox="0 0 38 37.1">
  <defs>
    <clipPath id="clip-Favorito_Barra_Flutuante">
      <rect width="38" height="37.1"/>
    </clipPath>
  </defs>
  <g id="Favorito_Barra_Flutuante" data-name="Favorito Barra Flutuante" clip-path="url(#clip-Favorito_Barra_Flutuante)">
    <g id="Grupo_15642" data-name="Grupo 15642" transform="translate(0 -2)">
      <g id="check_circle_black_24dp" transform="translate(5 7)">
        <path id="Caminho_3271" data-name="Caminho 3271" d="M0,0H24V20.767H0Z" fill="none"/>
      </g>
    </g>
    <path id="Caminho_3722" data-name="Caminho 3722" d="M19,24.522a2.436,2.436,0,0,1-1.092-.273l-4.894-2.534-4.9,2.534a2.327,2.327,0,0,1-3.375-2.458l.939-5.462L1.7,12.463A2.327,2.327,0,0,1,2.988,8.5L8.45,7.7,10.9,2.73a2.351,2.351,0,0,1,4.206,0L17.549,7.7l5.462.8A2.327,2.327,0,0,1,24.3,12.463L20.324,16.33l.939,5.462a2.338,2.338,0,0,1-2.294,2.731ZM13.016,3.615a.131.131,0,0,0-.131.087l-2.7,5.462a1.092,1.092,0,0,1-.83.59L3.3,10.638a.258.258,0,0,0-.12.295L7.554,15.2a1.092,1.092,0,0,1,.317.961L6.779,22.2a.153.153,0,0,0,.055.142.131.131,0,0,0,.153,0l5.407-2.851a1.092,1.092,0,0,1,1.016,0l5.462,2.851a.131.131,0,0,0,.153,0,.153.153,0,0,0,.055-.142l-1.038-6.03a1.092,1.092,0,0,1,.437-1l4.369-4.271a.151.151,0,0,0-.109-.2l-6.052-.885a1.092,1.092,0,0,1-.83-.59l-2.7-5.462a.142.142,0,0,0-.142-.142Z" transform="translate(6 5.57)" fill="#a8a6aa"/>
  </g>
</svg>
