<svg xmlns="http://www.w3.org/2000/svg" xmlns:xlink="http://www.w3.org/1999/xlink" width="75.6" height="78.7" viewBox="0 0 75.6 78.7">
  <defs>
    <clipPath id="clip-Imagem_Bloqueada">
      <rect width="75.6" height="78.7"/>
    </clipPath>
  </defs>
  <g id="Imagem_Bloqueada" data-name="Imagem Bloqueada" clip-path="url(#clip-Imagem_Bloqueada)">
    <g id="check_circle_black_24dp" transform="translate(5 7)">
      <path id="Caminho_3271" data-name="Caminho 3271" d="M0,0H24V20.767H0Z" fill="none"/>
    </g>
    <path id="image-block-svgrepo-com" d="M59.1,5.516a15.4,15.4,0,1,0,4.5,10.9,15.4,15.4,0,0,0-4.5-10.9ZM38.96,16.419A9.2,9.2,0,0,1,52.173,8.1l-12.32,12.32A9.24,9.24,0,0,1,38.96,16.419Zm15.77,6.53A9.486,9.486,0,0,1,44.258,24.7l12.32-12.32A9.442,9.442,0,0,1,54.73,22.948Zm-.37,15.03a3.08,3.08,0,0,0-3.08,3.08v1.2l-4.558-4.589a8.84,8.84,0,0,0-12.1,0l-2.156,2.187-7.638-7.669a8.84,8.84,0,0,0-12.1,0L8.16,36.778V19.5a3.08,3.08,0,0,1,3.08-3.08H23.56a3.08,3.08,0,0,0,0-6.16H11.24A9.24,9.24,0,0,0,2,19.5v36.96a9.24,9.24,0,0,0,9.24,9.24H48.2a9.24,9.24,0,0,0,2.926-.524H51.4a9.24,9.24,0,0,0,6.037-7.361,4.4,4.4,0,0,0,0-.678V41.059A3.08,3.08,0,0,0,54.36,37.979ZM11.24,59.539a3.08,3.08,0,0,1-3.08-3.08v-11l8.932-8.9a2.433,2.433,0,0,1,3.357,0l9.825,9.794h0L43.457,59.539Zm40.04-3.08a3.08,3.08,0,0,1-.554,1.663L36.8,44.139l2.187-2.156a2.433,2.433,0,0,1,3.357,0l8.932,8.963Z" transform="translate(5 6.009)" fill="#fff"/>
  </g>
</svg>
