<svg xmlns="http://www.w3.org/2000/svg" xmlns:xlink="http://www.w3.org/1999/xlink" width="34" height="28" viewBox="0 0 34 28">
  <defs>
    <clipPath id="clip-Like_Thumbnail">
      <rect width="34" height="28"/>
    </clipPath>
  </defs>
  <g id="Like_Thumbnail" data-name="Like Thumbnail" clip-path="url(#clip-Like_Thumbnail)">
    <g id="Grupo_15705" data-name="Grupo 15705" transform="translate(-1021 -385)">
      <g id="Elipse_569" data-name="Elipse 569" transform="translate(1026 387)" fill="#66bb6a" stroke="#fff" stroke-width="2">
        <circle cx="12" cy="12" r="12" stroke="none"/>
        <circle cx="12" cy="12" r="11" fill="none"/>
      </g>
      <path id="Caminho_4246" data-name="Caminho 4246" d="M12.195,7.238a1.239,1.239,0,0,0-.6-1.063,1.238,1.238,0,0,0-1.019-1.942H7.958c.08-.363.19-.908.266-1.478C8.423,1.271,8.287.447,7.8.164a1.071,1.071,0,0,0-.927-.1,1.219,1.219,0,0,0-.705.817l-.687,1.8a7.873,7.873,0,0,1-2.54,2.6H.55a.355.355,0,0,0-.355.355v5.218A.355.355,0,0,0,.55,11.2H2.978a11.49,11.49,0,0,0,4.234.8h2.849a1.238,1.238,0,0,0,1.052-1.891A1.238,1.238,0,0,0,11.591,8.3,1.239,1.239,0,0,0,12.195,7.238Zm-9.5,3.256H.906V5.987H2.691Zm8.266-2.728h-.384a.355.355,0,1,0,0,.711.528.528,0,0,1,0,1.056h-.512a.355.355,0,0,0,0,.711.528.528,0,1,1,0,1.056H7.212A10.781,10.781,0,0,1,3.4,10.606V5.82A8.257,8.257,0,0,0,6.138,2.942l0-.006.691-1.809.005-.015A.58.58,0,0,1,7.123.728.384.384,0,0,1,7.442.78s.3.223.079,1.876A18.494,18.494,0,0,1,7.166,4.5a.355.355,0,0,0,.344.443h3.062a.528.528,0,0,1,0,1.056.355.355,0,0,0,0,.711h.384a.528.528,0,1,1,0,1.056Z" transform="translate(1032.104 392.793)" fill="#fff" stroke="#fff" stroke-width="0.75"/>
    </g>
  </g>
</svg>
