<svg xmlns="http://www.w3.org/2000/svg" xmlns:xlink="http://www.w3.org/1999/xlink" width="38" height="37.1" viewBox="0 0 38 37.1">
  <defs>
    <clipPath id="clip-Like_Barra_Flutuante_">
      <rect width="38" height="37.1"/>
    </clipPath>
  </defs>
  <g id="Like_Barra_Flutuante_" data-name="Like  Barra Flutuante " clip-path="url(#clip-Like_Barra_Flutuante_)">
    <g id="Grupo_15642" data-name="Grupo 15642" transform="translate(0 -2)">
      <g id="check_circle_black_24dp" transform="translate(5 7)">
        <path id="Caminho_3271" data-name="Caminho 3271" d="M0,0H24V20.767H0Z" fill="none"/>
      </g>
    </g>
    <path id="Caminho_3720" data-name="Caminho 3720" d="M24.177,14.465a2.476,2.476,0,0,0-1.206-2.124,2.474,2.474,0,0,0-2.036-3.88H15.71c.16-.726.379-1.814.532-2.954.4-2.966.126-4.611-.853-5.177a2.14,2.14,0,0,0-1.853-.2A2.436,2.436,0,0,0,12.126,1.76l-1.373,3.6C9.842,7.6,6.474,10,5.676,10.544H.9a.71.71,0,0,0-.71.71V21.682a.71.71,0,0,0,.71.71H5.758A22.962,22.962,0,0,0,14.218,24h5.693a2.474,2.474,0,0,0,2.1-3.778,2.473,2.473,0,0,0,.956-3.632A2.476,2.476,0,0,0,24.177,14.465ZM5.182,20.972H1.615V11.964H5.182ZM21.7,15.52h-.767a.71.71,0,1,0,0,1.42,1.055,1.055,0,0,1,0,2.11H19.911a.71.71,0,1,0,0,1.42,1.055,1.055,0,1,1,0,2.11H14.218A21.545,21.545,0,0,1,6.6,21.2V11.632c1.072-.74,4.448-3.218,5.47-5.752l0-.012,1.381-3.616.011-.031a1.159,1.159,0,0,1,.572-.767.767.767,0,0,1,.637.1c.006,0,.6.445.158,3.748a36.961,36.961,0,0,1-.709,3.688.71.71,0,0,0,.688.885h6.12a1.055,1.055,0,0,1,0,2.11.71.71,0,1,0,0,1.42H21.7a1.055,1.055,0,1,1,0,2.11Z" transform="translate(7.805 7)" fill="#a8a6aa"/>
  </g>
</svg>
