<svg xmlns="http://www.w3.org/2000/svg" xmlns:xlink="http://www.w3.org/1999/xlink" width="28" height="30" viewBox="0 0 28 30">
  <defs>
    <clipPath id="clip-Like_Ativo">
      <rect width="28" height="30"/>
    </clipPath>
  </defs>
  <g id="Like_Ativo" data-name="Like Ativo" clip-path="url(#clip-Like_Ativo)">
    <g id="Grupo_15642" data-name="Grupo 15642" transform="translate(0 -2)">
      <g id="check_circle_black_24dp" transform="translate(5 7)">
        <path id="Caminho_3271" data-name="Caminho 3271" d="M0,0H24V20.767H0Z" fill="none"/>
      </g>
    </g>
    <path id="Caminho_3489" data-name="Caminho 3489" d="M18.195,10.857a1.859,1.859,0,0,0-.905-1.595A1.857,1.857,0,0,0,15.761,6.35H11.84c.12-.545.285-1.362.4-2.217.3-2.226.094-3.461-.641-3.886A1.606,1.606,0,0,0,10.207.1,1.829,1.829,0,0,0,9.15,1.321L8.119,4.02c-.684,1.688-3.212,3.487-3.81,3.895H.728a.533.533,0,0,0-.533.533v7.827a.533.533,0,0,0,.533.533H4.37a17.235,17.235,0,0,0,6.35,1.207h4.273a1.857,1.857,0,0,0,1.579-2.836,1.856,1.856,0,0,0,.718-2.726A1.859,1.859,0,0,0,18.195,10.857ZM3.938,15.741H1.261V8.98H3.938Zm12.4-4.092h-.576a.533.533,0,1,0,0,1.066.792.792,0,0,1,0,1.584h-.768a.533.533,0,1,0,0,1.066.792.792,0,0,1,0,1.584H10.721A16.171,16.171,0,0,1,5,15.909V8.731c.8-.555,3.339-2.415,4.105-4.317l0-.009L10.15,1.69l.008-.023a.87.87,0,0,1,.429-.576.575.575,0,0,1,.478.078s.449.334.119,2.813a27.742,27.742,0,0,1-.532,2.768.533.533,0,0,0,.516.665h4.594a.792.792,0,0,1,0,1.584.533.533,0,0,0,0,1.066h.576a.792.792,0,1,1,0,1.584Z" transform="translate(4.805 5.7)" fill="#66bb6a"/>
  </g>
</svg>
