<svg xmlns="http://www.w3.org/2000/svg" xmlns:xlink="http://www.w3.org/1999/xlink" width="25.9" height="28.3" viewBox="0 0 25.9 28.3">
  <defs>
    <clipPath id="clip-MAPS">
      <rect width="25.9" height="28.3"/>
    </clipPath>
  </defs>
  <g id="MAPS" clip-path="url(#clip-MAPS)">
    <g id="fullscreen_black_24dp" transform="translate(0 0.6)">
      <path id="Caminho_4231" data-name="Caminho 4231" d="M0,0H24V24H0Z" fill="none"/>
    </g>
    <g id="Grupo_15746" data-name="Grupo 15746" transform="translate(11177 6920.506)">
      <circle id="Elipse_570" data-name="Elipse 570" cx="3" cy="3" r="3" transform="translate(-11167 -6910.162)" fill="#831829"/>
      <g id="Grupo_15745" data-name="Grupo 15745" transform="translate(-11170.012 -6913.506)">
        <path id="Caminho_4272" data-name="Caminho 4272" d="M9.977,2A5.862,5.862,0,0,0,4,7.959q0,3.466,5.484,8.161a.776.776,0,0,0,.994,0q5.469-4.7,5.476-8.161A5.862,5.862,0,0,0,9.977,2Zm0,7.267a1.454,1.454,0,1,1,1.494-1.453A1.479,1.479,0,0,1,9.977,9.267Z" transform="translate(-4 -2)" fill="#c5474c"/>
      </g>
    </g>
  </g>
</svg>
