<svg xmlns="http://www.w3.org/2000/svg" xmlns:xlink="http://www.w3.org/1999/xlink" width="50" height="50" viewBox="0 0 50 50">
  <defs>
    <clipPath id="clip-Modulo_2_imagens_az">
      <rect width="50" height="50"/>
    </clipPath>
  </defs>
  <g id="Modulo_2_imagens_az" data-name="Modulo 2 imagens az" clip-path="url(#clip-Modulo_2_imagens_az)">
    <g id="check_circle_black_24dp" transform="translate(5 7)">
      <path id="Caminho_3271" data-name="Caminho 3271" d="M0,0H24V20.767H0Z" fill="none"/>
    </g>
    <g id="Grupo_15749" data-name="Grupo 15749" transform="translate(21084.6 6100)">
      <path id="Subtração_87" data-name="Subtração 87" d="M-9664,1181h-32a2,2,0,0,1-2-2v-32a2,2,0,0,1,2-2h32a2,2,0,0,1,2,2v32A2,2,0,0,1-9664,1181Zm-13-17a2,2,0,0,0-2,2v11a2,2,0,0,0,2,2h11a2,2,0,0,0,2-2v-11a2,2,0,0,0-2-2Zm-17,0a2,2,0,0,0-2,2v11a2,2,0,0,0,2,2h11a2,2,0,0,0,2-2v-11a2,2,0,0,0-2-2Zm17-17a2,2,0,0,0-2,2v11a2,2,0,0,0,2,2h11a2,2,0,0,0,2-2v-11a2,2,0,0,0-2-2Zm-17,0a2,2,0,0,0-2,2v11a2,2,0,0,0,2,2h11a2,2,0,0,0,2-2v-11a2,2,0,0,0-2-2Z" transform="translate(-11379 -7238)" fill="#3455ab"/>
    </g>
  </g>
</svg>
