<svg xmlns="http://www.w3.org/2000/svg" xmlns:xlink="http://www.w3.org/1999/xlink" width="50" height="50" viewBox="0 0 50 50">
  <defs>
    <clipPath id="clip-Modulo_dinamico_imagens_cz">
      <rect width="50" height="50"/>
    </clipPath>
  </defs>
  <g id="Modulo_dinamico_imagens_cz" data-name="Modulo dinamico imagens cz" clip-path="url(#clip-Modulo_dinamico_imagens_cz)">
    <g id="check_circle_black_24dp" transform="translate(5 7)">
      <path id="Caminho_3271" data-name="Caminho 3271" d="M0,0H24V20.767H0Z" fill="none"/>
    </g>
    <g id="Grupo_15751" data-name="Grupo 15751" transform="translate(-307.4 -1751.5)">
      <g id="Grupo_15896" data-name="Grupo 15896">
        <g id="Grupo_15889" data-name="Grupo 15889" transform="translate(21392 7852)">
          <path id="Subtração_88" data-name="Subtração 88" d="M-9664,1099h-32a2,2,0,0,1-2-2v-32a2,2,0,0,1,2-2h32a2,2,0,0,1,2,2v32A2,2,0,0,1-9664,1099Zm-13-34a2,2,0,0,0-2,2v28a2,2,0,0,0,2,2h11a2,2,0,0,0,2-2v-28a2,2,0,0,0-2-2Zm-17,15a2,2,0,0,0-2,2v13a2,2,0,0,0,2,2h11a2,2,0,0,0,2-2v-13a2,2,0,0,0-2-2Zm0-15a2,2,0,0,0-2,2V1076a2,2,0,0,0,2,2h11a2,2,0,0,0,2-2V1067a2,2,0,0,0-2-2Z" transform="translate(-11379 -7156)" fill="#c8c8c8"/>
        </g>
      </g>
    </g>
  </g>
</svg>
