<svg xmlns="http://www.w3.org/2000/svg" xmlns:xlink="http://www.w3.org/1999/xlink" width="33" height="30" viewBox="0 0 33 30">
  <defs>
    <clipPath id="clip-Ocultar_imagem_inativo">
      <rect width="33" height="30"/>
    </clipPath>
  </defs>
  <g id="Ocultar_imagem_inativo" data-name="Ocultar imagem inativo" clip-path="url(#clip-Ocultar_imagem_inativo)">
    <g id="Grupo_15642" data-name="Grupo 15642" transform="translate(0 -2)">
      <g id="check_circle_black_24dp" transform="translate(5 7)">
        <path id="Caminho_3271" data-name="Caminho 3271" d="M0,0H24V20.767H0Z" fill="none"/>
      </g>
    </g>
    <path id="Caminho_4179" data-name="Caminho 4179" d="M12,4.5A11.827,11.827,0,0,0,1,12a11.817,11.817,0,0,0,22,0A11.827,11.827,0,0,0,12,4.5ZM12,17a5,5,0,1,1,5-5A5,5,0,0,1,12,17Zm0-8a3,3,0,1,0,3,3A3,3,0,0,0,12,9Z" transform="translate(4.463 3)" fill="#b2b2b2"/>
  </g>
</svg>
