<svg xmlns="http://www.w3.org/2000/svg" xmlns:xlink="http://www.w3.org/1999/xlink" width="33" height="30" viewBox="0 0 33 30">
  <defs>
    <clipPath id="clip-Ocultar_imagem_ativo">
      <rect width="33" height="30"/>
    </clipPath>
  </defs>
  <g id="Ocultar_imagem_ativo" data-name="Ocultar imagem ativo" clip-path="url(#clip-Ocultar_imagem_ativo)">
    <g id="Grupo_15642" data-name="Grupo 15642" transform="translate(0 -2)">
      <g id="check_circle_black_24dp" transform="translate(5 7)">
        <path id="Caminho_3271" data-name="Caminho 3271" d="M0,0H24V20.767H0Z" fill="none"/>
      </g>
    </g>
    <path id="Caminho_4183" data-name="Caminho 4183" d="M12,7a5,5,0,0,1,5,5,4.853,4.853,0,0,1-.36,1.83l2.92,2.92A11.817,11.817,0,0,0,22.99,12a11.827,11.827,0,0,0-11-7.5,11.645,11.645,0,0,0-3.98.7l2.16,2.16A4.853,4.853,0,0,1,12,7ZM2,4.27,4.28,6.55l.46.46A11.8,11.8,0,0,0,1,12a11.822,11.822,0,0,0,15.38,6.66l.42.42L19.73,22,21,20.73,3.27,3ZM7.53,9.8l1.55,1.55A2.821,2.821,0,0,0,9,12a3,3,0,0,0,3,3,2.821,2.821,0,0,0,.65-.08l1.55,1.55A4.967,4.967,0,0,1,7.53,9.8Zm4.31-.78,3.15,3.15.02-.16a3,3,0,0,0-3-3Z" transform="translate(5.472 3.299)" fill="#fbcf30"/>
  </g>
</svg>
