<svg xmlns="http://www.w3.org/2000/svg" xmlns:xlink="http://www.w3.org/1999/xlink" width="58" height="33" viewBox="0 0 58 33">
  <defs>
    <clipPath id="clip-PDF_Extrair_Houver">
      <rect width="58" height="33"/>
    </clipPath>
  </defs>
  <g id="PDF_Extrair_Houver" data-name="PDF Extrair – Houver" clip-path="url(#clip-PDF_Extrair_Houver)">
    <g id="Grupo_15741" data-name="Grupo 15741" transform="translate(10942 7283)">
      <g id="Retângulo_7335" data-name="Retângulo 7335" transform="translate(-10935 -7277)" fill="#3455ab" stroke="#3455ab" stroke-width="1">
        <rect width="44" height="21" rx="10" stroke="none"/>
        <rect x="0.5" y="0.5" width="43" height="20" rx="9.5" fill="none"/>
      </g>
      <text id="PDF" transform="translate(-10928 -7263)" fill="#fff" font-size="10" font-family="Lato-Semibold, Lato" font-weight="600"><tspan x="0" y="0">PDF</tspan></text>
      <path id="Caminho_4264" data-name="Caminho 4264" d="M40.35,19a.539.539,0,0,0-.539.539v6.15L37.75,23.627a.539.539,0,0,0-.762.762l2.982,2.981a.539.539,0,0,0,.762,0l2.982-2.982a.539.539,0,0,0-.762-.762l-2.062,2.062v-6.15A.539.539,0,0,0,40.35,19Z" transform="translate(-10941.83 -7289.765)" fill="#fff"/>
    </g>
  </g>
</svg>
