<svg xmlns="http://www.w3.org/2000/svg" xmlns:xlink="http://www.w3.org/1999/xlink" width="29.4" height="29.4" viewBox="0 0 29.4 29.4">
  <defs>
    <clipPath id="clip-position_User_fora">
      <rect width="29.4" height="29.4"/>
    </clipPath>
  </defs>
  <g id="position_User_fora" data-name="position User fora" clip-path="url(#clip-position_User_fora)">
    <path id="Caminho_4273" data-name="Caminho 4273" d="M6.109,7.109A1.554,1.554,0,1,0,4.554,5.554,1.554,1.554,0,0,0,6.109,7.109Zm0-2.332a.777.777,0,1,1-.777.777A.78.78,0,0,1,6.109,4.777ZM3.777,9.441A3.081,3.081,0,0,1,5.7,8.687L6.5,7.91a3.63,3.63,0,0,0-.389-.023C5.071,7.886,3,8.407,3,9.441v.777H6.5L5.72,9.441ZM9.84,7.3l.544.548Z" transform="translate(7.69 7.599)" fill="#c5474c"/>
    <text id="x" transform="translate(16.103 17.435)" fill="#c5474c" font-size="3" font-family="Lato-Bold, Lato" font-weight="700"><tspan x="-0.783" y="0">x</tspan></text>
    <path id="Caminho_4274" data-name="Caminho 4274" d="M9.681,2a7.681,7.681,0,1,0,7.681,7.681A7.684,7.684,0,0,0,9.681,2Zm0,13.826a6.145,6.145,0,1,1,6.145-6.145A6.153,6.153,0,0,1,9.681,15.826Z" transform="translate(4.988 5)" fill="#c5474c"/>
  </g>
</svg>
