<svg xmlns="http://www.w3.org/2000/svg" xmlns:xlink="http://www.w3.org/1999/xlink" width="35.4" height="35.3" viewBox="0 0 35.4 35.3">
  <defs>
    <clipPath id="clip-position_User_dentro">
      <rect width="35.4" height="35.3"/>
    </clipPath>
  </defs>
  <g id="position_User_dentro" data-name="position User dentro" clip-path="url(#clip-position_User_dentro)">
    <g id="Grupo_15747" data-name="Grupo 15747" transform="translate(2.086 2.195)">
      <g id="how_to_reg-24px" transform="translate(9.137 9.029)">
        <path id="Caminho_3290" data-name="Caminho 3290" d="M0,0H12.936V12.936H0Z" fill="none"/>
        <path id="Caminho_3291" data-name="Caminho 3291" d="M7.312,8.312A2.156,2.156,0,1,0,5.156,6.156,2.155,2.155,0,0,0,7.312,8.312Zm0-3.234A1.078,1.078,0,1,1,6.234,6.156,1.081,1.081,0,0,1,7.312,5.078ZM4.078,11.546c.108-.34,1.385-.906,2.673-1.046l1.1-1.078a5.035,5.035,0,0,0-.539-.032C5.873,9.39,3,10.112,3,11.546v1.078H7.851L6.773,11.546Zm8.409-2.965L9.721,11.368,8.606,10.247l-.755.76,1.87,1.887,3.52-3.552Z" transform="translate(-1.383 -1.844)" fill="#1b8a20"/>
      </g>
      <path id="Caminho_4275" data-name="Caminho 4275" d="M12.654,2A10.654,10.654,0,1,0,23.308,12.654,10.658,10.658,0,0,0,12.654,2Zm0,19.177a8.523,8.523,0,1,1,8.523-8.523A8.534,8.534,0,0,1,12.654,21.177Z" transform="translate(2.914 2.805)" fill="#1b8a20"/>
    </g>
  </g>
</svg>
