<svg xmlns="http://www.w3.org/2000/svg" xmlns:xlink="http://www.w3.org/1999/xlink" width="35.4" height="35.3" viewBox="0 0 35.4 35.3">
  <defs>
    <clipPath id="clip-PPT">
      <rect width="35.4" height="35.3"/>
    </clipPath>
  </defs>
  <g id="PPT" clip-path="url(#clip-PPT)">
    <g id="Grupo_12676" data-name="Grupo 12676" transform="translate(-714.5 -721.5)">
      <path id="Caminho_3495" data-name="Caminho 3495" d="M266.407,252.316a2.75,2.75,0,0,0-.663.063v2.093a2.455,2.455,0,0,0,.537.042c.852,0,1.378-.431,1.378-1.157C267.658,252.705,267.206,252.316,266.407,252.316Z" transform="translate(466.454 486.405)" fill="#a8a6aa"/>
      <path id="Caminho_3496" data-name="Caminho 3496" d="M128.614,253.357c0-.652-.452-1.041-1.251-1.041a2.75,2.75,0,0,0-.663.063v2.093a2.456,2.456,0,0,0,.536.042C128.089,254.514,128.614,254.083,128.614,253.357Z" transform="translate(599.445 486.405)" fill="#a8a6aa"/>
      <path id="Caminho_3497" data-name="Caminho 3497" d="M51.413,8.585h-.576V5.8a.406.406,0,0,0-.005-.052.462.462,0,0,0-.112-.3L46.093.161l0,0A.467.467,0,0,0,46,.079L45.965.061a.485.485,0,0,0-.093-.039L45.847.013A.469.469,0,0,0,45.739,0H34.367a.942.942,0,0,0-.941.941V8.584h-.576A1.345,1.345,0,0,0,31.5,9.93v7a1.345,1.345,0,0,0,1.345,1.345h.576v4.789a.942.942,0,0,0,.941.941H49.9a.942.942,0,0,0,.941-.941V18.27h.576a1.345,1.345,0,0,0,1.345-1.345v-7A1.345,1.345,0,0,0,51.413,8.585ZM34.367.941h10.9V5.757a.471.471,0,0,0,.471.471H49.9V8.585H34.367ZM45.183,11.984a2.246,2.246,0,0,1-.646,1.668,3.262,3.262,0,0,1-2.284.74,4.061,4.061,0,0,1-.542-.031v2.513H40.136V9.941a13.027,13.027,0,0,1,2.148-.146,3.37,3.37,0,0,1,2.148.563A2.054,2.054,0,0,1,45.183,11.984Zm-11.105,4.89V9.941a13.027,13.027,0,0,1,2.148-.146,3.369,3.369,0,0,1,2.148.563,2.054,2.054,0,0,1,.751,1.627,2.245,2.245,0,0,1-.646,1.668,3.261,3.261,0,0,1-2.284.74,4.067,4.067,0,0,1-.542-.031v2.513H34.077ZM49.9,22.8H34.367V18.27H49.9V22.8Zm1.168-11.622H49.145v5.693h-1.6V11.182H45.663V9.847h5.4Z" transform="translate(690.496 727.737)" fill="#a8a6aa"/>
    </g>
  </g>
</svg>
