<svg xmlns="http://www.w3.org/2000/svg" xmlns:xlink="http://www.w3.org/1999/xlink" width="35.4" height="35.3" viewBox="0 0 35.4 35.3">
  <defs>
    <clipPath id="clip-Zip">
      <rect width="35.4" height="35.3"/>
    </clipPath>
  </defs>
  <g id="Zip" clip-path="url(#clip-Zip)">
    <g id="Grupo_12677" data-name="Grupo 12677" transform="translate(-669.7 -722.5)">
      <path id="Caminho_3498" data-name="Caminho 3498" d="M51.269,8.585h-.576V5.8a.4.4,0,0,0-.005-.052.462.462,0,0,0-.112-.3L45.949.161l0,0a.463.463,0,0,0-.094-.079L45.821.061a.491.491,0,0,0-.093-.039L45.7.013A.468.468,0,0,0,45.595,0H34.223a.942.942,0,0,0-.941.941V8.584h-.576A1.345,1.345,0,0,0,31.36,9.93v7a1.345,1.345,0,0,0,1.345,1.345h.576v4.789a.942.942,0,0,0,.941.941H49.752a.942.942,0,0,0,.941-.941V18.27h.576a1.345,1.345,0,0,0,1.345-1.345v-7A1.345,1.345,0,0,0,51.269,8.585ZM34.223.941h10.9V5.757a.471.471,0,0,0,.471.471h4.157V8.585H34.223Zm9.917,8.848v7.027h-1.6V9.789ZM36.392,11.1V9.789h5.1v.918l-3.274,4.754V15.5h3.326v1.314H36.079v-.855l3.347-4.817V11.1Zm13.36,11.7H34.223V18.27H49.752V22.8Zm.164-9.209a3.258,3.258,0,0,1-2.283.74,3.985,3.985,0,0,1-.542-.031v2.513H45.516V9.883a12.96,12.96,0,0,1,2.148-.146,3.372,3.372,0,0,1,2.148.563,2.055,2.055,0,0,1,.75,1.627A2.246,2.246,0,0,1,49.916,13.6Z" transform="translate(645.64 728.737)" fill="#a8a6aa"/>
      <path id="Caminho_3499" data-name="Caminho 3499" d="M391.478,249.838a3.083,3.083,0,0,0-.754.072v2.38a2.784,2.784,0,0,0,.61.048c.968,0,1.567-.491,1.567-1.315C392.9,250.281,392.386,249.838,391.478,249.838Z" transform="translate(301.78 489.674)" fill="#a8a6aa"/>
    </g>
  </g>
</svg>
