<svg xmlns="http://www.w3.org/2000/svg" xmlns:xlink="http://www.w3.org/1999/xlink" width="30" height="30" viewBox="6.5 7 15 13">
  <defs>
    <clipPath id="clip-Icones_Photo">
      <rect width="30" height="30"/>
    </clipPath>
  </defs>
  <g id="Icones_Photo" data-name="Icones Photo" clip-path="url(#clip-Icones_Photo)">
    <g id="Grupo_1" data-name="Grupo 1" transform="translate(-104)">
      <g id="block_black_24dp" transform="translate(105 1)">
        <path id="Caminho_3277" data-name="Caminho 3277" d="M0,0H24V24H0Z" fill="none"/>
      </g>
    </g>
    <path id="Caminho_3275" data-name="Caminho 3275" d="M14,3.333H11.887L10.667,2h-4L5.447,3.333H3.333A1.337,1.337,0,0,0,2,4.667v8A1.337,1.337,0,0,0,3.333,14H14a1.337,1.337,0,0,0,1.333-1.333v-8A1.337,1.337,0,0,0,14,3.333Zm0,9.333H3.333v-8h2.7l1.22-1.333H10.08L11.3,4.667H14ZM8.667,5.333A3.333,3.333,0,1,0,12,8.667,3.335,3.335,0,0,0,8.667,5.333Zm0,5.333a2,2,0,1,1,2-2A2.006,2.006,0,0,1,8.667,10.667Z" transform="translate(5.334 5.333)" fill="#717171"/>
  </g>
</svg>
