<svg xmlns="http://www.w3.org/2000/svg" xmlns:xlink="http://www.w3.org/1999/xlink" width="30" height="30" viewBox="7 7 16 16">
  <defs>
    <clipPath id="clip-Icones_GPS_Position">
      <rect width="30" height="30"/>
    </clipPath>
  </defs>
  <g id="Icones_GPS_Position" data-name="Icones GPS Position" clip-path="url(#clip-Icones_GPS_Position)">
    <g id="Grupo_1" data-name="Grupo 1" transform="translate(-104)">
      <g id="block_black_24dp" transform="translate(105 1)">
        <path id="Caminho_3277" data-name="Caminho 3277" d="M0,0H24V24H0Z" fill="none"/>
      </g>
    </g>
    <path id="Caminho_3277-2" data-name="Caminho 3277" d="M8.292,5.64a2.652,2.652,0,1,0,2.652,2.652A2.651,2.651,0,0,0,8.292,5.64Zm5.926,1.989A5.962,5.962,0,0,0,8.955,2.366V1H7.629V2.366A5.962,5.962,0,0,0,2.366,7.629H1V8.955H2.366a5.962,5.962,0,0,0,5.263,5.263v1.366H8.955V14.218a5.962,5.962,0,0,0,5.263-5.263h1.366V7.629H14.218Zm-5.926,5.3a4.64,4.64,0,1,1,4.64-4.64A4.637,4.637,0,0,1,8.292,12.932Z" transform="translate(6.709 6.708)" fill="#717171"/>
  </g>
</svg>
