<svg xmlns="http://www.w3.org/2000/svg" xmlns:xlink="http://www.w3.org/1999/xlink" width="30" height="30" viewBox="7 6 16 16">
  <defs>
    <clipPath id="clip-Icones_Report">
      <rect width="30" height="30"/>
    </clipPath>
  </defs>
  <g id="Icones_Report" data-name="Icones Report" clip-path="url(#clip-Icones_Report)">
    <g id="Grupo_1" data-name="Grupo 1" transform="translate(-104)">
      <g id="block_black_24dp" transform="translate(105 1)">
        <path id="Caminho_3277" data-name="Caminho 3277" d="M0,0H24V24H0Z" fill="none"/>
      </g>
    </g>
    <g id="Grupo_10800" data-name="Grupo 10800" transform="translate(2)">
      <path id="Caminho_3278" data-name="Caminho 3278" d="M18,11v1.709h3.418V11Z" transform="translate(0.252 1.798)" fill="#717171"/>
      <path id="Caminho_3279" data-name="Caminho 3279" d="M16,17.376c.82.607,1.888,1.41,2.734,2.042.342-.453.684-.914,1.025-1.367-.846-.632-1.914-1.436-2.734-2.051C16.684,16.461,16.342,16.923,16,17.376Z" transform="translate(0.807 0.713)" fill="#717171"/>
      <path id="Caminho_3280" data-name="Caminho 3280" d="M19.76,5.367c-.342-.453-.684-.914-1.025-1.367C17.888,4.632,16.82,5.436,16,6.051c.342.453.684.914,1.025,1.367C17.846,6.8,18.914,6.008,19.76,5.367Z" transform="translate(0.807 3.178)" fill="#717171"/>
      <path id="Caminho_3281" data-name="Caminho 3281" d="M3.709,8.277A1.627,1.627,0,0,0,2,9.794v1.518A1.627,1.627,0,0,0,3.709,12.83h.855v3.036H6.273V12.83h.855L11.4,15.107V6L7.127,8.277Zm4.3,1.3,1.683-.9v3.749l-1.683-.9-.41-.22H3.709V9.794H7.6Z" transform="translate(3.822 3.127)" fill="#717171"/>
      <path id="Caminho_3282" data-name="Caminho 3282" d="M15.282,11.513A3.828,3.828,0,0,0,14,8.65v5.717A3.8,3.8,0,0,0,15.282,11.513Z" transform="translate(1.327 2.146)" fill="#717171"/>
    </g>
  </g>
</svg>
