<svg xmlns="http://www.w3.org/2000/svg" xmlns:xlink="http://www.w3.org/1999/xlink" width="30" height="30" viewBox="6 7 16 16">
  <defs>
    <clipPath id="clip-Ampulheta">
      <rect width="30" height="30"/>
    </clipPath>
  </defs>
  <g id="Ampulheta" clip-path="url(#clip-Ampulheta)">
    <g id="Grupo_1" data-name="Grupo 1" transform="translate(-103)">
      <g id="block_black_24dp" transform="translate(105 1)">
        <path id="Caminho_3277" data-name="Caminho 3277" d="M0,0H24V24H0Z" fill="none"/>
      </g>
    </g>
    <g id="refresh_black_24dp" transform="translate(2 2)">
      <path id="Caminho_3448" data-name="Caminho 3448" d="M0,0H24V24H0Z" fill="none"/>
      <g id="hourglass" transform="translate(-23.103 5.491)">
        <path id="Caminho_3530" data-name="Caminho 3530" d="M40.408,1.89a.378.378,0,0,0,.291-.368V.378A.378.378,0,0,0,40.321,0H29.981A.378.378,0,0,0,29.6.378V1.522a.378.378,0,0,0,.291.368,6.5,6.5,0,0,0,2.878,5.045l.713.478-.713.478a6.5,6.5,0,0,0-2.878,5.045.378.378,0,0,0-.291.368v1.144a.378.378,0,0,0,.378.378h10.34a.378.378,0,0,0,.378-.378V13.3a.378.378,0,0,0-.291-.368A6.5,6.5,0,0,0,37.53,7.891l-.713-.478.713-.478A6.5,6.5,0,0,0,40.408,1.89ZM30.359.756h9.584v.388H30.359ZM39.943,14.07H30.359v-.388h9.584ZM35.927,7.1a.378.378,0,0,0,0,.628l1.182.792a5.748,5.748,0,0,1,2.541,4.407h-9a5.748,5.748,0,0,1,2.541-4.407l1.182-.792a.378.378,0,0,0,0-.628l-1.182-.792A5.748,5.748,0,0,1,30.652,1.9h9a5.748,5.748,0,0,1-2.541,4.407Z" fill="#717171"/>
        <path id="Caminho_3531" data-name="Caminho 3531" d="M98.361,82.66H96.39a.378.378,0,0,0-.252.66l.986.882a.378.378,0,0,0,.5,0l.986-.882a.378.378,0,0,0-.252-.66Z" transform="translate(-62.224 -77.452)" fill="#717171"/>
        <path id="Caminho_3532" data-name="Caminho 3532" d="M83.2,140.128l-.959.616a3.025,3.025,0,0,0-1.342,2.513h4.821a3.025,3.025,0,0,0-1.342-2.513l-.959-.616A.214.214,0,0,0,83.2,140.128Z" transform="translate(-48.069 -131.271)" fill="#717171"/>
      </g>
    </g>
  </g>
</svg>
