<svg xmlns="http://www.w3.org/2000/svg" xmlns:xlink="http://www.w3.org/1999/xlink" width="16" height="16" viewBox="0 0 32.5 34.3">
  <defs>
    <clipPath id="clip-Icones_Menu">
      <rect width="32.5" height="34.3"/>
    </clipPath>
  </defs>
  <g id="Icones_Menu" data-name="Icones Menu" clip-path="url(#clip-Icones_Menu)">
    <g id="Grupo_1" data-name="Grupo 1" transform="translate(-104)">
      <g id="block_black_24dp" transform="translate(105 1)">
        <path id="Caminho_3277" data-name="Caminho 3277" d="M0,0H24V24H0Z" fill="none"/>
      </g>
    </g>
    <path id="more-vertical" d="M0,10.122a2.248,2.248,0,1,1,.171.861A2.248,2.248,0,0,1,0,10.122ZM0,2.245a2.248,2.248,0,1,1,.171.861A2.248,2.248,0,0,1,0,2.245ZM0,18a2.248,2.248,0,1,1,.171.861A2.248,2.248,0,0,1,0,18Z" transform="translate(18.496 27.251) rotate(180)" fill="rgba(38,48,70,0.5)"/>
  </g>
</svg>
