<?xml version="1.0" encoding="utf-8"?>
<svg viewBox="459.082 176.189 14.814 14.814" xmlns="http://www.w3.org/2000/svg">
  <path class="b" d="M 472.25 189.357 L 460.728 189.357 L 460.728 177.835 L 466.489 177.835 L 466.489 176.189 L 460.728 176.189 C 459.818 176.189 459.082 176.926 459.082 177.835 L 459.082 189.357 C 459.082 190.266 459.818 191.003 460.728 191.003 L 472.25 191.003 C 473.157 191 473.893 190.265 473.896 189.357 L 473.896 183.596 L 472.25 183.596 L 472.25 189.357 Z M 468.135 176.189 L 468.135 177.835 L 471.09 177.835 L 463 185.925 L 464.16 187.085 L 472.25 178.995 L 472.25 181.95 L 473.896 181.95 L 473.896 176.189 L 468.135 176.189 Z" />
</svg>
