<svg xmlns="http://www.w3.org/2000/svg" xmlns:xlink="http://www.w3.org/1999/xlink" width="36" height="36" viewBox="0 0 36 36">
  <defs>
    <clipPath id="clip-Humor_ícone_Vermelho">
      <rect width="36" height="36"/>
    </clipPath>
  </defs>
  <g id="Humor_ícone_Vermelho" data-name="Humor_ícone Vermelho" clip-path="url(#clip-Humor_ícone_Vermelho)">
    <g id="Grupo_1" data-name="Grupo 1" transform="translate(-237 -312)">
      <rect id="Retângulo_1" data-name="Retângulo 1" width="36" height="36" transform="translate(237 312)" fill="none"/>
      <g id="Grupo_1-2" data-name="Grupo 1" transform="translate(-4 2)">
        <g id="_005-sad-1" data-name="005-sad-1" transform="translate(244.933 314)">
          <path id="Caminho_3376" data-name="Caminho 3376" d="M174.914,341.622h-2.3a5.252,5.252,0,0,0-5.286,5.213.678.678,0,0,0,.683.677.7.7,0,0,0,.683-.7,3.861,3.861,0,0,1,3.92-3.874h2.3a3.92,3.92,0,0,1,3.92,3.9.688.688,0,0,0,.683.689.671.671,0,0,0,.683-.668A5.265,5.265,0,0,0,174.914,341.622Z" transform="translate(-159.186 -324.884)" fill="#c31717"/>
          <path id="Caminho_3377" data-name="Caminho 3377" d="M14.067,0A13.876,13.876,0,0,0,8.244,1.266C7.928.9,7.682.646,7.607.571a.675.675,0,0,0-.478-.2A.664.664,0,0,0,6.655.58a12.539,12.539,0,0,0-2.2,3.257.67.67,0,0,0-.092.074A14,14,0,1,0,14.067,0ZM7.15,2.036A7.626,7.626,0,0,1,9.015,5.3,1.84,1.84,0,0,1,8.74,6.753a2.112,2.112,0,0,1-1.6.481A1.989,1.989,0,0,1,5.62,6.788a1.864,1.864,0,0,1-.228-1.473A7.809,7.809,0,0,1,7.15,2.036ZM14.067,26.67A12.685,12.685,0,0,1,1.4,14,12.549,12.549,0,0,1,4.044,6.245,2.5,2.5,0,0,0,4.617,7.66a3.145,3.145,0,0,0,2.519.9,3.322,3.322,0,0,0,2.6-.927,3.067,3.067,0,0,0,.6-2.491,6.62,6.62,0,0,0-1.25-2.8A12.556,12.556,0,0,1,14.067,1.33a12.67,12.67,0,1,1,0,25.341Z" transform="translate(0)" fill="#c31717"/>
          <path id="Caminho_3378" data-name="Caminho 3378" d="M342.056,210.8a.683.683,0,0,0,0-1.366,1.712,1.712,0,0,1-1.652-1.725.683.683,0,1,0-1.366,0A3.1,3.1,0,0,0,342.056,210.8Z" transform="translate(-322.307 -196.852)" fill="#c31717"/>
          <path id="Caminho_3379" data-name="Caminho 3379" d="M156.166,208.418a.683.683,0,0,0-1.366,0,1.712,1.712,0,0,1-1.724,1.653.683.683,0,0,0,0,1.366A3.1,3.1,0,0,0,156.166,208.418Z" transform="translate(-144.839 -197.526)" fill="#c31717"/>
        </g>
      </g>
    </g>
  </g>
</svg>
