<?xml version="1.0" encoding="UTF-8" standalone="no"?>
<svg
   width="28"
   height="40"
   viewBox="3 0 14 20"
   version="1.1"
   id="svg7"
   xmlns="http://www.w3.org/2000/svg"
   xmlnsSvg="http://www.w3.org/2000/svg">
  <defs
     id="defs11" />
  <rect
     style="opacity:0.001;fill:#ff0000;stroke-width:2.39253"
     id="rect850"
     width="28"
     height="40"
     x="0"
     y="0" />
  <g
     id="Grupo_30139"
     data-name="Grupo 30139"
     transform="matrix(0.65591189,0,0,0.65591189,-10760.352,3487.9755)">
    <g
       id="Grupo_16403"
       data-name="Grupo 16403"
       transform="translate(16410.625,-5316.75)">
      <g
         id="Grupo_16404"
         data-name="Grupo 16404">
        <path
           id="Caminho_4118"
           data-name="Caminho 4118"
           d="m 5.553,2.019 -3.842,9.773 2.415,4.832 5.491,2.745 5.6,-2.745 a 31.135,31.135 0 0 0 1.976,-3.4 c 0,-0.33 -1.318,-6.918 -1.318,-6.918 L 13.46,2.019 Z"
           transform="translate(0.205,0.242)"
           fill="#3455ab" />
        <path
           id="Caminho_4117"
           data-name="Caminho 4117"
           d="M 14.8,2 A 9.811,9.811 0 0 0 5,11.8 c 0,7.35 9.8,18.2 9.8,18.2 0,0 9.8,-10.85 9.8,-18.2 A 9.811,9.811 0 0 0 14.8,2 Z m 0,2.8 A 2.8,2.8 0 1 1 12,7.6 2.808,2.808 0 0 1 14.8,4.8 Z m 0,14 A 6.7,6.7 0 0 1 9.2,15.79 c 0.028,-1.848 3.738,-2.87 5.6,-2.87 1.862,0 5.572,1.022 5.6,2.87 a 6.7,6.7 0 0 1 -5.6,3.01 z"
           transform="translate(-5,-2)"
           fill="#ffffff"
           stroke="#3455ab"
           stroke-width="2" />
      </g>
    </g>
  </g>
</svg>
