<svg xmlns="http://www.w3.org/2000/svg" width="20.081" height="13.333" viewBox="0 0 20.081 13.333"><defs><style>.a{fill:#4ba543;}.b{fill:#43a047;}.c{fill:#fece3f;}.d{fill:#2387eb;}.e{fill:#207bd6;}.f{fill:#efefef;}.g{fill:#dcdcdc;}</style></defs><path class="a" d="M19.924,99.353H.157A.157.157,0,0,1,0,99.2V86.177a.157.157,0,0,1,.157-.157H19.924a.157.157,0,0,1,.157.157V99.2A.157.157,0,0,1,19.924,99.353Z" transform="translate(0 -86.02)"/><path class="b" d="M481.095,86.02V99.353h1.055a.157.157,0,0,0,.157-.157V86.177a.157.157,0,0,0-.157-.157Z" transform="translate(-462.227 -86.02)"/><path class="c" d="M68.477,129.032l7.2-5.021a.157.157,0,0,1,.179,0l7.2,5.021a.157.157,0,0,1,0,.257l-7.2,5.021a.157.157,0,0,1-.179,0l-7.2-5.021A.157.157,0,0,1,68.477,129.032Z" transform="translate(-65.727 -122.494)"/><circle class="d" cx="2.909" cy="2.909" r="2.909" transform="translate(7.131 3.758)"/><path class="e" d="M241.153,181.827a2.919,2.919,0,0,0-.606.064,2.909,2.909,0,0,1,0,5.691,2.909,2.909,0,1,0,.606-5.754Z" transform="translate(-231.113 -178.069)"/><path class="f" d="M183.12,214.6l5.618,1.459a2.9,2.9,0,0,0,.149-.92,2.944,2.944,0,0,0-.015-.3l-5.277-1.37a2.892,2.892,0,0,0-.476,1.129Z" transform="translate(-175.938 -208.469)"/><path class="g" d="M297.539,241.285l1.131.294a2.9,2.9,0,0,0,.149-.92,2.952,2.952,0,0,0-.015-.3l-1.265-.329a2.927,2.927,0,0,1,0,1.252Z" transform="translate(-285.87 -233.993)"/></svg>