<svg viewBox="0 0 125 114" xmlns="http://www.w3.org/2000/svg" xmlns:xlink="http://www.w3.org/1999/xlink">
    <defs>
        <path id="a" d="M.769.187h120.92V70H.768z"/>
    </defs>
    <g fill="none" fill-rule="evenodd">
        <g transform="translate(1 43.576)">
            <mask id="b" fill="#fff">
                <use xlink:href="#a"/>
            </mask>
            <path d="M73.002 69.333l47.531-27.441c1.712-.99 1.495-2.733-.482-3.874L56.163 1.132C54.186-.01 51.167-.135 49.454.854L1.924 28.296c-1.713.989-1.496 2.73.481 3.873l63.888 36.886c1.978 1.142 4.996 1.267 6.71.278" fill-opacity=".25" fill="#F9D28C" mask="url(#b)"/>
        </g>
        <path stroke="#33475C" stroke-width="5" stroke-linecap="round" stroke-linejoin="round" d="M55.714 18.463L10.45 44.66l64.7 38.026 45.844-26.534zM75.149 84.494s-8.317 1.21-7.64 9.235c.632 7.464 7.64 1.887 7.64 1.887l43.119-24.956V59.538l-43.12 24.956z"/>
        <path d="M69.47 100.547s-.416-.122-.959-.553L6.336 64.134c-1.87-1.409-3.836-3.987-3.836-8.65 0-8.89 7.95-10.825 7.95-10.825l12.971 7.58L75.15 82.686s-8.308 1.657-9.34 8.138c-.904 5.67 1.744 8.618 2.702 9.17" stroke="#33475C" stroke-width="5" stroke-linecap="round" stroke-linejoin="round"/>
        <path d="M70.995 101.54c-.246 0-.499-.017-.757-.057-1.817-.284-3.412-1.641-4.377-3.726-1.804-3.901-1.104-8.846 1.78-12.598 2.515-3.27 5.146-3.83 7.145-3.574l44.093-25.51c.956-.553 2.178-.225 2.731.73.555.957.228 2.18-.728 2.733L76.15 85.417c-.452.262-.988.336-1.493.208-.907-.23-2.163-.214-3.844 1.973-1.959 2.546-2.49 5.954-1.322 8.48.377.812.752 1.142 1.338 1.337.41.138 1.037-.036 1.58-.336.553-.305 1.493-1.116 2.1-1.626l.36-.305c.088-.072.18-.136.278-.193l43.402-25.1c.956-.553 2.18-.226 2.732.729.554.956.228 2.18-.728 2.733L77.303 98.33l-.216.18c-1.237 1.043-2.436 2.015-3.514 2.457-.636.26-1.544.574-2.578.574z" stroke="#33475C" stroke-width="5" stroke-linecap="round" stroke-linejoin="round"/>
        <path d="M67.642 85.159c-2.885 3.752-3.584 8.697-1.781 12.598.965 2.085 2.56 3.442 4.378 3.726.257.04.51.058.756.058 1.034 0 1.942-.314 2.579-.574 1.078-.442 2.277-1.414 3.512-2.456l.216-.181c.233-3.046-2.432-3.182-2.432-3.182l-.362.305c-.605.51-1.546 1.32-2.098 1.626-.544.3-1.171.473-1.581.336-.586-.195-.961-.526-1.337-1.337-1.168-2.526-.637-5.935 1.321-8.481 1.681-2.186 2.936-2.202 3.845-1.972.505.128 1.041.054 1.493-.208.957-3.271-1.364-3.832-1.364-3.832-1.999-.256-4.63.303-7.145 3.574zM58.576 2.5L21.074 24.216l56.938 33.546 38.084-22.053zM78.011 59.569s-8.063 1.193-7.64 9.234c.541 10.294 7.64 1.888 7.64 1.888l35.358-20.476V39.093L78.01 59.569z" stroke="#33475C" stroke-width="5" stroke-linecap="round" stroke-linejoin="round"/>
        <path d="M72.33 75.622s-.415-.121-.956-.552L16.959 43.69c-1.87-1.41-3.836-3.987-3.836-8.65 0-8.891 7.95-10.824 7.95-10.824l12.971 7.58 43.968 25.966s-8.308 1.657-9.341 8.138c-.905 5.669 1.744 8.618 2.703 9.17" stroke="#33475C" stroke-width="5" stroke-linecap="round" stroke-linejoin="round"/>
        <path stroke="#33475C" stroke-width="5" stroke-linecap="round" stroke-linejoin="round" d="M58.576 2.5L21.074 24.216 78.012 57.76l38.084-22.052z"/>
        <path d="M74.33 76.801c-.263 0-.525-.02-.784-.06-1.8-.282-4.405-1.893-5.267-3.755-1.71-3.7-1.048-8.389 1.686-11.945.668-.87 4.058-5 8.126-5.058l35.526-20.627c.956-.554 2.18-.228 2.733.728.553.956.227 2.18-.73 2.734L79.595 59.735c-.366.212-.792.305-1.212.257-1.555-.162-3.819 1.63-5.247 3.488-1.809 2.352-2.466 5.638-1.388 7.67.237.446.897 1.194 1.59 1.39.614.172 1.42.184 1.769.06.782-.278 1.172-.572 1.82-1.546.171-.256.397-.469.663-.623l35.78-20.725c.957-.553 2.18-.226 2.733.73.553.955.227 2.178-.728 2.732L79.977 73.671c-1.055 1.436-2.079 2.017-3.118 2.524-.823.401-1.683.606-2.528.606z" stroke="#33475C" stroke-width="5" stroke-linecap="round" stroke-linejoin="round"/>
        <path d="M69.964 61.042c-2.733 3.556-3.396 8.244-1.685 11.944.862 1.863 3.466 3.474 5.266 3.755.26.04.522.06.785.06.845 0 1.705-.204 2.53-.606 1.04-.507 2.062-1.088 3.116-2.523.02-4.13-2.387-3.24-2.387-3.24-.266.154-.492.367-.663.623-.648.973-1.038 1.267-1.82 1.546-.349.124-1.156.112-1.769-.061-.693-.195-1.352-.943-1.59-1.39-1.078-2.031-.42-5.317 1.388-7.67 1.43-1.857 3.692-3.65 5.246-3.487.42.048.847-.046 1.212-.258.918-2.676-1.503-3.752-1.503-3.752-4.066.059-7.457 4.189-8.126 5.059zM101.735 66.004l-12.41-7.165 9-5.194 12.409 7.163-8.83.098z" stroke="#33475C" stroke-width="5" stroke-linecap="round" stroke-linejoin="round"/>
        <path fill="#FF9B7E" d="M55.714 18.463L10.45 44.66l64.7 38.026 45.844-26.534z"/>
        <path stroke="#33475C" stroke-linecap="round" stroke-linejoin="round" d="M55.714 18.463L10.45 44.66l64.7 38.026 45.844-26.534z"/>
        <path d="M75.149 84.494s-8.317 1.21-7.64 9.235c.632 7.464 7.64 1.887 7.64 1.887l43.119-24.956V59.538l-43.12 24.956z" fill="#EAF0F6"/>
        <path d="M75.149 84.494s-8.317 1.21-7.64 9.235c.632 7.464 7.64 1.887 7.64 1.887l43.119-24.956V59.538l-43.12 24.956z" stroke="#33475C" stroke-linecap="round" stroke-linejoin="round"/>
        <path d="M69.47 100.547s-.416-.122-.959-.553L6.336 64.134c-1.87-1.409-3.836-3.987-3.836-8.65 0-8.89 7.95-10.825 7.95-10.825l12.971 7.58L75.15 82.686s-8.308 1.657-9.34 8.138c-.904 5.67 1.744 8.618 2.702 9.17" fill="#FF7A53"/>
        <path d="M69.47 100.547s-.416-.122-.959-.553L6.336 64.134c-1.87-1.409-3.836-3.987-3.836-8.65 0-8.89 7.95-10.825 7.95-10.825l12.971 7.58L75.15 82.686s-8.308 1.657-9.34 8.138c-.904 5.67 1.744 8.618 2.702 9.17" stroke="#33475C" stroke-linecap="round" stroke-linejoin="round"/>
        <path d="M70.995 101.54c-.246 0-.499-.017-.757-.057-1.817-.284-3.412-1.641-4.377-3.726-1.804-3.901-1.104-8.846 1.78-12.598 2.515-3.27 5.146-3.83 7.145-3.574l44.093-25.51c.956-.553 2.178-.225 2.731.73.555.957.228 2.18-.728 2.733L76.15 85.417c-.452.262-.988.336-1.493.208-.907-.23-2.163-.214-3.844 1.973-1.959 2.546-2.49 5.954-1.322 8.48.377.812.752 1.142 1.338 1.337.41.138 1.037-.036 1.58-.336.553-.305 1.493-1.116 2.1-1.626l.36-.305c.088-.072.18-.136.278-.193l43.402-25.1c.956-.553 2.18-.226 2.732.729.554.956.228 2.18-.728 2.733L77.303 98.33l-.216.18c-1.237 1.043-2.436 2.015-3.514 2.457-.636.26-1.544.574-2.578.574" fill="#FF7A53"/>
        <path d="M70.995 101.54c-.246 0-.499-.017-.757-.057-1.817-.284-3.412-1.641-4.377-3.726-1.804-3.901-1.104-8.846 1.78-12.598 2.515-3.27 5.146-3.83 7.145-3.574l44.093-25.51c.956-.553 2.178-.225 2.731.73.555.957.228 2.18-.728 2.733L76.15 85.417c-.452.262-.988.336-1.493.208-.907-.23-2.163-.214-3.844 1.973-1.959 2.546-2.49 5.954-1.322 8.48.377.812.752 1.142 1.338 1.337.41.138 1.037-.036 1.58-.336.553-.305 1.493-1.116 2.1-1.626l.36-.305c.088-.072.18-.136.278-.193l43.402-25.1c.956-.553 2.18-.226 2.732.729.554.956.228 2.18-.728 2.733L77.303 98.33l-.216.18c-1.237 1.043-2.436 2.015-3.514 2.457-.636.26-1.544.574-2.578.574z" stroke="#33475C" stroke-linecap="round" stroke-linejoin="round"/>
        <path d="M67.642 85.159c-2.885 3.752-3.584 8.697-1.781 12.598.965 2.085 2.56 3.442 4.378 3.726.257.04.51.058.756.058 1.034 0 1.942-.314 2.579-.574 1.078-.442 2.277-1.414 3.512-2.456l.216-.181c.233-3.046-2.432-3.182-2.432-3.182l-.362.305c-.605.51-1.546 1.32-2.098 1.626-.544.3-1.171.473-1.581.336-.586-.195-.961-.526-1.337-1.337-1.168-2.526-.637-5.935 1.321-8.481 1.681-2.186 2.936-2.202 3.845-1.972.505.128 1.041.054 1.493-.208.957-3.271-1.364-3.832-1.364-3.832-1.999-.256-4.63.303-7.145 3.574" fill="#FF7A53"/>
        <path d="M67.642 85.159c-2.885 3.752-3.584 8.697-1.781 12.598.965 2.085 2.56 3.442 4.378 3.726.257.04.51.058.756.058 1.034 0 1.942-.314 2.579-.574 1.078-.442 2.277-1.414 3.512-2.456l.216-.181c.233-3.046-2.432-3.182-2.432-3.182l-.362.305c-.605.51-1.546 1.32-2.098 1.626-.544.3-1.171.473-1.581.336-.586-.195-.961-.526-1.337-1.337-1.168-2.526-.637-5.935 1.321-8.481 1.681-2.186 2.936-2.202 3.845-1.972.505.128 1.041.054 1.493-.208.957-3.271-1.364-3.832-1.364-3.832-1.999-.256-4.63.303-7.145 3.574z" stroke="#33475C" stroke-linecap="round" stroke-linejoin="round"/>
        <path fill="#F9D28C" d="M58.576 2.5L21.074 24.216l56.938 33.546 38.084-22.053z"/>
        <path stroke="#33475C" stroke-linecap="round" stroke-linejoin="round" d="M58.576 2.5L21.074 24.216l56.938 33.546 38.084-22.053z"/>
        <path d="M78.011 59.569s-8.063 1.193-7.64 9.234c.541 10.294 7.64 1.888 7.64 1.888l35.358-20.476V39.093L78.01 59.569z" fill="#EAF0F6"/>
        <path d="M78.011 59.569s-8.063 1.193-7.64 9.234c.541 10.294 7.64 1.888 7.64 1.888l35.358-20.476V39.093L78.01 59.569z" stroke="#33475C" stroke-linecap="round" stroke-linejoin="round"/>
        <path d="M72.33 75.622s-.414-.121-.956-.552L16.959 43.69c-1.87-1.41-3.836-3.987-3.836-8.65 0-8.891 7.95-10.824 7.95-10.824l12.972 7.58 43.967 25.966s-8.308 1.657-9.341 8.138c-.904 5.669 1.745 8.618 2.703 9.17" fill="#F6C364"/>
        <path d="M72.33 75.622s-.414-.121-.956-.552L16.959 43.69c-1.87-1.41-3.836-3.987-3.836-8.65 0-8.891 7.95-10.824 7.95-10.824l12.972 7.58 43.967 25.966s-8.308 1.657-9.341 8.138c-.904 5.669 1.745 8.618 2.703 9.17" stroke="#33475C" stroke-linecap="round" stroke-linejoin="round"/>
        <path fill="#F9D28C" d="M58.576 2.5L21.074 24.216 78.012 57.76l38.084-22.052z"/>
        <path stroke="#33475C" stroke-linecap="round" stroke-linejoin="round" d="M58.576 2.5L21.074 24.216 78.012 57.76l38.084-22.052z"/>
        <path d="M74.33 76.801c-.263 0-.525-.02-.784-.06-1.8-.282-4.405-1.893-5.267-3.755-1.71-3.7-1.048-8.389 1.686-11.945.668-.87 4.058-5 8.126-5.058l35.526-20.627c.956-.554 2.18-.228 2.733.728.553.956.227 2.18-.73 2.734L79.595 59.735c-.366.212-.792.305-1.212.257-1.555-.162-3.819 1.63-5.247 3.488-1.809 2.352-2.466 5.638-1.388 7.67.237.446.897 1.194 1.59 1.39.614.172 1.42.184 1.769.06.782-.278 1.172-.572 1.82-1.546.171-.256.397-.469.663-.623l35.78-20.725c.957-.553 2.18-.226 2.733.73.553.955.227 2.178-.728 2.732L79.977 73.671c-1.055 1.436-2.079 2.017-3.118 2.524-.823.401-1.683.606-2.528.606" fill="#F6C364"/>
        <path d="M74.33 76.801c-.263 0-.525-.02-.784-.06-1.8-.282-4.405-1.893-5.267-3.755-1.71-3.7-1.048-8.389 1.686-11.945.668-.87 4.058-5 8.126-5.058l35.526-20.627c.956-.554 2.18-.228 2.733.728.553.956.227 2.18-.73 2.734L79.595 59.735c-.366.212-.792.305-1.212.257-1.555-.162-3.819 1.63-5.247 3.488-1.809 2.352-2.466 5.638-1.388 7.67.237.446.897 1.194 1.59 1.39.614.172 1.42.184 1.769.06.782-.278 1.172-.572 1.82-1.546.171-.256.397-.469.663-.623l35.78-20.725c.957-.553 2.18-.226 2.733.73.553.955.227 2.178-.728 2.732L79.977 73.671c-1.055 1.436-2.079 2.017-3.118 2.524-.823.401-1.683.606-2.528.606z" stroke="#33475C" stroke-linecap="round" stroke-linejoin="round"/>
        <path d="M69.964 61.042c-2.733 3.556-3.396 8.244-1.685 11.944.862 1.863 3.466 3.474 5.266 3.755.26.04.522.06.785.06.845 0 1.705-.204 2.53-.606 1.04-.507 2.062-1.088 3.116-2.523.02-4.13-2.387-3.24-2.387-3.24-.266.154-.492.367-.663.623-.648.973-1.038 1.267-1.82 1.546-.349.124-1.156.112-1.769-.061-.693-.195-1.352-.943-1.59-1.39-1.078-2.031-.42-5.317 1.388-7.67 1.43-1.857 3.692-3.65 5.246-3.487.42.048.847-.046 1.212-.258.918-2.676-1.503-3.752-1.503-3.752-4.066.059-7.457 4.189-8.126 5.059" fill="#F6C364"/>
        <path d="M69.964 61.042c-2.733 3.556-3.396 8.244-1.685 11.944.862 1.863 3.466 3.474 5.266 3.755.26.04.522.06.785.06.845 0 1.705-.204 2.53-.606 1.04-.507 2.062-1.088 3.116-2.523.02-4.13-2.387-3.24-2.387-3.24-.266.154-.492.367-.663.623-.648.973-1.038 1.267-1.82 1.546-.349.124-1.156.112-1.769-.061-.693-.195-1.352-.943-1.59-1.39-1.078-2.031-.42-5.317 1.388-7.67 1.43-1.857 3.692-3.65 5.246-3.487.42.048.847-.046 1.212-.258.918-2.676-1.503-3.752-1.503-3.752-4.066.059-7.457 4.189-8.126 5.059z" stroke="#33475C" stroke-linecap="round" stroke-linejoin="round"/>
        <path fill="#40CEBB" d="M101.735 66.004l-12.41-7.165 9-5.194 12.409 7.163-8.83.098z"/>
        <path stroke="#33475C" stroke-linecap="round" stroke-linejoin="round" d="M101.735 66.004l-12.41-7.165 9-5.194 12.409 7.163-8.83.098z"/>
        <g>
            <path d="M62.252 22.409c0-.467.123-.926.355-1.33l1.126-1.951v-2.251c0-.947.511-1.83 1.331-2.304l1.951-1.126 1.126-1.95c.47-.82 1.355-1.33 2.303-1.33h2.251l1.951-1.126c.823-.474 1.84-.473 2.66-.001l1.951 1.127h2.251c.95 0 1.833.51 2.305 1.332l1.126 1.948 1.95 1.125c.82.475 1.33 1.358 1.33 2.305v2.25l1.125 1.95c.233.405.356.865.356 1.332 0 .466-.123.926-.357 1.33l-1.124 1.95v2.25c0 .95-.512 1.833-1.333 2.306l-1.947 1.124-1.127 1.95c-.47.82-1.355 1.33-2.304 1.33h-2.25l-1.952 1.128c-.819.474-1.839.474-2.66-.001l-1.95-1.125h-2.25c-.95 0-1.834-.512-2.305-1.332l-1.126-1.948-1.95-1.126c-.82-.475-1.332-1.357-1.332-2.305v-2.25l-1.126-1.951c-.23-.4-.355-.861-.355-1.33" fill="#00BEA5"/>
            <path d="M62.252 22.409c0-.467.123-.926.355-1.33l1.126-1.951v-2.251c0-.947.511-1.83 1.331-2.304l1.951-1.126 1.126-1.95c.47-.82 1.355-1.33 2.303-1.33h2.251l1.951-1.126c.823-.474 1.84-.473 2.66-.001l1.951 1.127h2.251c.95 0 1.833.51 2.305 1.332l1.126 1.948 1.95 1.125c.82.475 1.33 1.358 1.33 2.305v2.25l1.125 1.95c.233.405.356.865.356 1.332 0 .466-.123.926-.357 1.33l-1.124 1.95v2.25c0 .95-.512 1.833-1.333 2.306l-1.947 1.124-1.127 1.95c-.47.82-1.355 1.33-2.304 1.33h-2.25l-1.952 1.128c-.819.474-1.839.474-2.66-.001l-1.95-1.125h-2.25c-.95 0-1.834-.512-2.305-1.332l-1.126-1.948-1.95-1.126c-.82-.475-1.332-1.357-1.332-2.305v-2.25l-1.126-1.951c-.23-.4-.355-.861-.355-1.33" stroke="#33475C" stroke-width="3" stroke-linecap="round" stroke-linejoin="round"/>
        </g>
        <path d="M76.541 29.687l4.16-4.168c.405-.406.405-1.063 0-1.469-.405-.405-1.062-.405-1.468 0l-2.388 2.388v-9.982c0-.576-.467-1.042-1.042-1.042s-1.042.466-1.042 1.042v9.974l-2.389-2.38c-.405-.417-1.072-.426-1.489-.02-.417.405-.427 1.071-.022 1.49l4.22 4.167c.407.401 1.062.401 1.47 0h-.01z" fill="#FFF"/>
    </g>
</svg>
