<svg viewBox="0 0 126 150" xmlns="http://www.w3.org/2000/svg" xmlns:xlink="http://www.w3.org/1999/xlink">
    <defs>
        <path id="a" d="M.049.831h125V73h-125z"/>
    </defs>
    <g fill="none" fill-rule="evenodd">
        <g stroke="#33475C" stroke-linecap="round" stroke-linejoin="round" stroke-width="5">
            <path d="M6.451 42.624v29.14l44.325-25.725V17.367zM3.796 31.29l1.562.906V71.6l-1.562-.909z"/>
            <path d="M3.796 31.29v10.487l1.562.908V32.196zM50.684 6.714L6.543 32.198v10.487L50.683 17.2zM48.526 4.776l1.566.91L5.952 31.17l-1.567-.91z"/>
            <path d="M33.719 56.598l2.784-1.607 14.774-8.53V5.688L48.529 4.09 25.865 17.175 3.203 30.259v40.774l2.748 1.596z"/>
            <path d="M37.973 54.142l13.304-7.681V5.687L28.614 18.773 5.952 31.857v40.772zM3.203 30.259l2.748 1.598"/>
        </g>
        <path d="M10.06 50.103l37.544-21.677M10.06 57.386l32.302-18.65M14.25 42.403v19.933M20.77 39.136v17.562M27.286 35.352v16.377M9.429 32.7c-.17 0-.341-.044-.497-.135-.478-.274-.641-.884-.365-1.36.707-1.227.707-3.377 0-4.604-.234-.404-.523-.656-.753-.656-.232 0-.521.252-.754.656-.253.44-.425 1.01-.495 1.653-.061.547-.547.942-1.1.881-.547-.06-.942-.553-.882-1.1.102-.913.36-1.754.75-2.43.608-1.05 1.512-1.653 2.48-1.653.969 0 1.873.602 2.48 1.653 1.067 1.85 1.067 4.746 0 6.595-.185.32-.52.5-.864.5z" stroke="#33475C" stroke-width="5" stroke-linecap="round" stroke-linejoin="round"/>
        <path d="M14.825 29.634c-.169 0-.34-.043-.497-.134-.477-.274-.64-.884-.364-1.36.708-1.226.708-3.377 0-4.603-.234-.405-.522-.657-.753-.657-.232 0-.52.252-.754.657-.254.44-.425 1.01-.496 1.653-.06.547-.544.944-1.1.88-.547-.06-.94-.552-.88-1.1.1-.913.36-1.754.75-2.43.608-1.05 1.511-1.652 2.48-1.652h.001c.968 0 1.872.602 2.477 1.653 1.068 1.849 1.068 4.746 0 6.595-.184.32-.519.498-.864.498z" stroke="#33475C" stroke-width="5" stroke-linecap="round" stroke-linejoin="round"/>
        <path d="M20.224 26.57c-.17 0-.341-.043-.497-.135-.477-.274-.641-.884-.365-1.36.709-1.226.709-3.377 0-4.603-.234-.405-.523-.657-.753-.657-.232 0-.52.252-.753.656-.254.441-.425 1.011-.496 1.654-.061.547-.542.946-1.1.881-.547-.06-.941-.553-.882-1.1.102-.914.362-1.754.752-2.43.606-1.05 1.509-1.653 2.478-1.653.97 0 1.873.601 2.48 1.653 1.068 1.85 1.068 4.746 0 6.595-.184.32-.52.498-.864.498z" stroke="#33475C" stroke-width="5" stroke-linecap="round" stroke-linejoin="round"/>
        <path d="M25.622 23.505c-.169 0-.34-.042-.497-.133-.477-.275-.64-.885-.365-1.36.707-1.227.707-3.378 0-4.605-.234-.404-.523-.656-.753-.656-.232 0-.52.252-.754.657-.254.44-.426 1.012-.495 1.65-.06.548-.556.94-1.099.884-.547-.06-.942-.552-.883-1.1.1-.91.36-1.75.75-2.43.608-1.051 1.512-1.653 2.481-1.653.968 0 1.872.602 2.48 1.653 1.066 1.849 1.066 4.746 0 6.595-.186.32-.52.498-.865.498z" stroke="#33475C" stroke-width="5" stroke-linecap="round" stroke-linejoin="round"/>
        <path d="M31.02 20.44c-.17 0-.341-.043-.498-.133-.477-.275-.64-.885-.364-1.36.708-1.227.708-3.377 0-4.603-.234-.405-.522-.657-.753-.657-.231 0-.52.252-.754.657-.254.439-.425 1.01-.496 1.653-.06.547-.537.942-1.1.88-.546-.06-.941-.552-.881-1.1.1-.914.36-1.754.75-2.43.609-1.05 1.512-1.652 2.48-1.652h.002c.968 0 1.872.602 2.477 1.653 1.069 1.849 1.069 4.745 0 6.595-.184.319-.52.497-.863.497z" stroke="#33475C" stroke-width="5" stroke-linecap="round" stroke-linejoin="round"/>
        <path d="M36.417 17.376c-.169 0-.34-.043-.497-.134-.477-.275-.64-.885-.364-1.36.708-1.226.707-3.377 0-4.604-.235-.405-.524-.656-.754-.656-.232 0-.52.251-.753.656-.254.44-.425 1.011-.496 1.654-.061.547-.55.943-1.1.881-.547-.061-.941-.553-.882-1.101.102-.914.362-1.754.752-2.43.606-1.05 1.509-1.652 2.478-1.653h.001c.969 0 1.872.602 2.479 1.653 1.068 1.851 1.068 4.747 0 6.596-.184.319-.519.498-.864.498zM20.224 26.57c-.17 0-.341-.043-.497-.135-.477-.274-.641-.884-.365-1.36.709-1.226.709-3.377 0-4.603-.234-.405-.523-.657-.753-.657-.232 0-.52.252-.753.656-.254.441-.425 1.011-.496 1.654-.061.547-.542.946-1.1.881-.547-.06-.941-.553-.882-1.1.102-.914.362-1.754.752-2.43.606-1.05 1.509-1.653 2.478-1.653.97 0 1.873.601 2.48 1.653 1.068 1.85 1.068 4.746 0 6.595-.184.32-.52.498-.864.498z" stroke="#33475C" stroke-width="5" stroke-linecap="round" stroke-linejoin="round"/>
        <path d="M41.815 14.312c-.17 0-.341-.043-.497-.134-.477-.274-.642-.885-.365-1.36.708-1.227.708-3.377 0-4.604-.234-.404-.523-.656-.753-.656-.232 0-.52.252-.754.656-.253.442-.425 1.013-.494 1.652-.061.547-.55.935-1.1.883-.546-.06-.941-.552-.883-1.1.1-.91.36-1.751.75-2.43.608-1.051 1.512-1.654 2.481-1.654.968 0 1.872.603 2.48 1.653 1.068 1.85 1.066 4.747-.002 6.596-.184.319-.518.498-.863.498zM25.622 23.505c-.169 0-.34-.042-.497-.133-.477-.275-.64-.885-.365-1.36.707-1.227.707-3.378 0-4.605-.234-.404-.523-.656-.753-.656-.232 0-.52.252-.754.657-.254.44-.426 1.012-.495 1.65-.06.548-.556.94-1.099.884-.547-.06-.942-.552-.883-1.1.1-.91.36-1.75.75-2.43.608-1.051 1.512-1.653 2.481-1.653.968 0 1.872.602 2.48 1.653 1.066 1.849 1.066 4.746 0 6.595-.186.32-.52.498-.865.498z" stroke="#33475C" stroke-width="5" stroke-linecap="round" stroke-linejoin="round"/>
        <path d="M47.213 11.247c-.17 0-.341-.043-.497-.134-.478-.274-.641-.885-.365-1.36.708-1.227.708-3.377 0-4.604-.234-.405-.523-.656-.753-.656-.232 0-.52.251-.753.656-.254.44-.426 1.011-.497 1.653-.06.547-.546.94-1.1.881-.546-.06-.941-.553-.881-1.1.102-.914.362-1.754.75-2.43.608-1.05 1.51-1.652 2.48-1.653.969 0 1.873.602 2.479 1.653 1.068 1.85 1.068 4.746 0 6.596-.184.32-.52.498-.863.498zM52.988 38.573c-1.019-.503-1.76-1.393-2.212-2.65L6.451 71.763l48.987-32.669c-.764.031-1.66-.13-2.45-.52z" stroke="#33475C" stroke-width="5" stroke-linecap="round" stroke-linejoin="round"/>
        <path fill="#FFF" d="M6.451 42.624v29.14l44.325-25.725V17.367z"/>
        <path fill="#E6EFF6" d="M3.796 31.29l1.562.906V71.6l-1.562-.909z"/>
        <path stroke="#E6EFF6" d="M3.796 31.29l1.562.906V71.6l-1.562-.909z"/>
        <path fill="#F55257" d="M3.796 31.29v10.487l1.562.908V32.196z"/>
        <path stroke="#F55257" d="M3.796 31.29v10.487l1.562.908V32.196z"/>
        <path fill="#F55257" d="M50.684 6.714L6.543 32.198v10.487L50.683 17.2z"/>
        <path stroke="#F55257" d="M50.684 6.714L6.543 32.198v10.487L50.683 17.2z"/>
        <path fill="#F55257" d="M48.526 4.776l1.566.91L5.952 31.17l-1.567-.91z"/>
        <path stroke="#F55257" d="M48.526 4.776l1.566.91L5.952 31.17l-1.567-.91z"/>
        <path stroke="#33475C" stroke-linecap="round" stroke-linejoin="round" d="M33.719 56.598l2.784-1.607 14.774-8.53V5.688L48.529 4.09 25.865 17.175 3.203 30.259v40.774l2.748 1.596z"/>
        <path stroke="#33475C" stroke-linecap="round" stroke-linejoin="round" d="M37.973 54.142l13.304-7.681V5.687L28.614 18.773 5.952 31.857v40.772z"/>
        <path d="M3.203 30.259l2.748 1.598" fill="#FFF"/>
        <path d="M3.203 30.259l2.748 1.598" stroke="#33475C" stroke-linecap="round" stroke-linejoin="round"/>
        <path d="M10.06 50.103l37.544-21.677" fill="#33475C"/>
        <path d="M10.06 50.103l37.544-21.677" stroke="#D4E7F7" stroke-linecap="round" stroke-linejoin="round"/>
        <path d="M10.06 57.386l32.302-18.65" fill="#33475C"/>
        <path d="M10.06 57.386l32.302-18.65" stroke="#D4E7F7" stroke-linecap="round" stroke-linejoin="round"/>
        <path d="M14.25 42.403v19.933" fill="#33475C"/>
        <path d="M14.25 42.403v19.933" stroke="#D4E7F7" stroke-linecap="round" stroke-linejoin="round"/>
        <path d="M20.77 39.136v17.562" fill="#33475C"/>
        <path d="M20.77 39.136v17.562" stroke="#D4E7F7" stroke-linecap="round" stroke-linejoin="round"/>
        <path d="M27.286 35.352v16.377" fill="#33475C"/>
        <path d="M27.286 35.352v16.377" stroke="#D4E7F7" stroke-linecap="round" stroke-linejoin="round"/>
        <path d="M9.429 32.7c-.17 0-.341-.044-.497-.135-.478-.274-.641-.884-.365-1.36.707-1.227.707-3.377 0-4.604-.234-.404-.523-.656-.753-.656-.232 0-.521.252-.754.656-.253.44-.425 1.01-.495 1.653-.061.547-.547.942-1.1.881-.547-.06-.942-.553-.882-1.1.102-.913.36-1.754.75-2.43.608-1.05 1.512-1.653 2.48-1.653.969 0 1.873.602 2.48 1.653 1.067 1.85 1.067 4.746 0 6.595-.185.32-.52.5-.864.5" fill="#F6C364"/>
        <path d="M14.825 29.634c-.169 0-.34-.043-.497-.134-.477-.274-.64-.884-.364-1.36.708-1.226.708-3.377 0-4.603-.234-.405-.522-.657-.753-.657-.232 0-.52.252-.754.657-.254.44-.425 1.01-.496 1.653-.06.547-.544.944-1.1.88-.547-.06-.94-.552-.88-1.1.1-.913.36-1.754.75-2.43.608-1.05 1.511-1.652 2.48-1.652h.001c.968 0 1.872.602 2.477 1.653 1.068 1.849 1.068 4.746 0 6.595-.184.32-.519.498-.864.498" fill="#F6C364"/>
        <path d="M20.224 26.57c-.17 0-.341-.043-.497-.135-.477-.274-.641-.884-.365-1.36.709-1.226.709-3.377 0-4.603-.234-.405-.523-.657-.753-.657-.232 0-.52.252-.753.656-.254.441-.425 1.011-.496 1.654-.061.547-.542.946-1.1.881-.547-.06-.941-.553-.882-1.1.102-.914.362-1.754.752-2.43.606-1.05 1.509-1.653 2.478-1.653.97 0 1.873.601 2.48 1.653 1.068 1.85 1.068 4.746 0 6.595-.184.32-.52.498-.864.498" fill="#F6C364"/>
        <path d="M25.622 23.505c-.169 0-.34-.042-.497-.133-.477-.275-.64-.885-.365-1.36.707-1.227.707-3.378 0-4.605-.234-.404-.523-.656-.753-.656-.232 0-.52.252-.754.657-.254.44-.426 1.012-.495 1.65-.06.548-.556.94-1.099.884-.547-.06-.942-.552-.883-1.1.1-.91.36-1.75.75-2.43.608-1.051 1.512-1.653 2.481-1.653.968 0 1.872.602 2.48 1.653 1.066 1.849 1.066 4.746 0 6.595-.186.32-.52.498-.865.498" fill="#F6C364"/>
        <path d="M31.02 20.44c-.17 0-.341-.043-.498-.133-.477-.275-.64-.885-.364-1.36.708-1.227.708-3.377 0-4.603-.234-.405-.522-.657-.753-.657-.231 0-.52.252-.754.657-.254.439-.425 1.01-.496 1.653-.06.547-.537.942-1.1.88-.546-.06-.941-.552-.881-1.1.1-.914.36-1.754.75-2.43.609-1.05 1.512-1.652 2.48-1.652h.002c.968 0 1.872.602 2.477 1.653 1.069 1.849 1.069 4.745 0 6.595-.184.319-.52.497-.863.497" fill="#F6C364"/>
        <path d="M36.417 17.376c-.169 0-.34-.043-.497-.134-.477-.275-.64-.885-.364-1.36.708-1.226.707-3.377 0-4.604-.235-.405-.524-.656-.754-.656-.232 0-.52.251-.753.656-.254.44-.425 1.011-.496 1.654-.061.547-.55.943-1.1.881-.547-.061-.941-.553-.882-1.101.102-.914.362-1.754.752-2.43.606-1.05 1.509-1.652 2.478-1.653h.001c.969 0 1.872.602 2.479 1.653 1.068 1.851 1.068 4.747 0 6.596-.184.319-.519.498-.864.498M20.224 26.57c-.17 0-.341-.043-.497-.135-.477-.274-.641-.884-.365-1.36.709-1.226.709-3.377 0-4.603-.234-.405-.523-.657-.753-.657-.232 0-.52.252-.753.656-.254.441-.425 1.011-.496 1.654-.061.547-.542.946-1.1.881-.547-.06-.941-.553-.882-1.1.102-.914.362-1.754.752-2.43.606-1.05 1.509-1.653 2.478-1.653.97 0 1.873.601 2.48 1.653 1.068 1.85 1.068 4.746 0 6.595-.184.32-.52.498-.864.498" fill="#F6C364"/>
        <path d="M41.815 14.312c-.17 0-.341-.043-.497-.134-.477-.274-.642-.885-.365-1.36.708-1.227.708-3.377 0-4.604-.234-.404-.523-.656-.753-.656-.232 0-.52.252-.754.656-.253.442-.425 1.013-.494 1.652-.061.547-.55.935-1.1.883-.546-.06-.941-.552-.883-1.1.1-.91.36-1.751.75-2.43.608-1.051 1.512-1.654 2.481-1.654.968 0 1.872.603 2.48 1.653 1.068 1.85 1.066 4.747-.002 6.596-.184.319-.518.498-.863.498M25.622 23.505c-.169 0-.34-.042-.497-.133-.477-.275-.64-.885-.365-1.36.707-1.227.707-3.378 0-4.605-.234-.404-.523-.656-.753-.656-.232 0-.52.252-.754.657-.254.44-.426 1.012-.495 1.65-.06.548-.556.94-1.099.884-.547-.06-.942-.552-.883-1.1.1-.91.36-1.75.75-2.43.608-1.051 1.512-1.653 2.481-1.653.968 0 1.872.602 2.48 1.653 1.066 1.849 1.066 4.746 0 6.595-.186.32-.52.498-.865.498" fill="#F6C364"/>
        <path d="M47.213 11.247c-.17 0-.341-.043-.497-.134-.478-.274-.641-.885-.365-1.36.708-1.227.708-3.377 0-4.604-.234-.405-.523-.656-.753-.656-.232 0-.52.251-.753.656-.254.44-.426 1.011-.497 1.653-.06.547-.546.94-1.1.881-.546-.06-.941-.553-.881-1.1.102-.914.362-1.754.75-2.43.608-1.05 1.51-1.652 2.48-1.653.969 0 1.873.602 2.479 1.653 1.068 1.85 1.068 4.746 0 6.596-.184.32-.52.498-.863.498" fill="#F6C364"/>
        <path d="M52.988 38.573c-1.019-.503-1.76-1.393-2.212-2.65L6.451 71.763l48.987-32.669c-.764.031-1.66-.13-2.45-.52" fill="#E6EFF6"/>
        <path d="M6.451 71.763l48.987-32.67" fill="#FFF"/>
        <path d="M6.451 71.763l48.987-32.67" stroke="#33475C" stroke-linecap="round" stroke-linejoin="round"/>
        <g transform="translate(0 76.612)">
            <mask id="b" fill="#fff">
                <use xlink:href="#a"/>
            </mask>
            <path d="M123.562 37.436c.992.572 1.487 1.327 1.487 2.08 0 .756-.495 1.51-1.487 2.083l-52.9 30.542c-1.984 1.146-5.228 1.146-7.211 0L1.537 36.396C.545 35.823.049 35.069.049 34.314c0-.755.496-1.51 1.488-2.082l52.9-30.542c1.983-1.145 5.229-1.145 7.212 0l61.913 35.746z" fill="#FF8F52" opacity=".2" mask="url(#b)"/>
        </g>
        <path d="M121.17 92.442c.952.55 1.429 1.275 1.429 2 0 .725-.477 1.45-1.429 2l-50.827 29.345c-1.905 1.1-5.023 1.1-6.928 0L3.929 91.442c-.952-.55-1.429-1.274-1.429-2 0-.725.477-1.449 1.429-2l50.827-29.345c1.905-1.099 5.022-1.099 6.928 0l59.486 34.345z" stroke="#33475C" stroke-width="5" stroke-linecap="round" stroke-linejoin="round"/>
        <path d="M122.241 95.508c-.238.34-.596.659-1.072.935l-25.413 14.67-25.413 14.674c-.633.366-1.406.598-2.218.72-.409.063-.825.105-1.246.105-1.256 0-2.512-.275-3.464-.825L16.5 98.7 3.928 91.443c-.476-.275-.833-.594-1.07-.934-.239-.341-.358-.703-.358-1.066v4c0 .725.476 1.45 1.428 2l59.487 34.344c1.905 1.1 5.022 1.1 6.928 0l50.826-29.344c.953-.55 1.43-1.276 1.43-2v-4c0 .362-.12.724-.358 1.065z" stroke="#33475C" stroke-width="5" stroke-linecap="round" stroke-linejoin="round"/>
        <path stroke="#33475C" stroke-width="5" stroke-linecap="round" stroke-linejoin="round" d="M111.33 94.442l-44.45 25.664-53.112-30.664L58.22 63.778z"/>
        <path d="M58.22 63.778s35.32 15.563 57.11 14.664l-44.451 25.664c-21.428 8.735-57.11-14.664-57.11-14.664l44.45-25.664z" stroke="#33475C" stroke-width="5" stroke-linecap="round" stroke-linejoin="round"/>
        <path d="M98.272 73.253c-15.615 1.929-40.185-9.475-40.185-9.475L13.768 89.442s25.184 16.884 40.184 9.475l2.315-1.341L98.27 73.253M17.205 83.31l30.042-17.346-2.165-4.816L15.04 78.494z" stroke="#33475C" stroke-width="5" stroke-linecap="round" stroke-linejoin="round"/>
        <path d="M50.363 64.098c-.81-.468-1.549-.51-2.088-.198L18.233 81.245c.538-.311 1.276-.27 2.087.199.016.008.03.022.046.03 1.618.965 2.935 3.284 2.935 5.19L53.344 69.32c0-1.926-1.34-4.275-2.98-5.222z" stroke="#33475C" stroke-width="5" stroke-linecap="round" stroke-linejoin="round"/>
        <path d="M20.32 81.443c-.81-.469-1.549-.51-2.087-.198-.55.318-.893 1.004-.893 1.976l2.98-1.72v-.058zM66.611 77.549c-.496 5.998-2.613 14.903-10.345 20.027L98.27 73.253c9.65-4.766 12.122-14.807 12.662-21.37L66.612 77.55zM97.29 80.622c.611.105 1.122.384 1.34.73-1.648.507-3.715 1.153-5.362 1.661l.966.595c-2.214.584-4.373 1.241-6.463 1.965.624.072 1.192.283 1.561.58-2.698.498-5.229 1.32-7.38 2.395.47.184.94.368 1.407.553-2.24.451-4.302 1.215-5.956 2.208.535.114 1.02.301 1.406.542l-3.22.76c-.787.187-1.632.401-2.059.826-.427.426-.1 1.108.74 1.14-2.32.638-4.542 1.401-6.624 2.276l1.71.521c.154.372-.608.645-1.234.782l-5.53 1.217c.611.106 1.121.384 1.34.73l-4.943 1.522" stroke="#33475C" stroke-width="5" stroke-linecap="round" stroke-linejoin="round"/>
        <path d="M64.549 86.915c-.786.186-2.085.45-2.616.735-.943.506-1.247.662-.574 1.392-2.322.638-2.75.555-4.832 1.43l1.708.521c.155.371-.636.55-1.233.782-1.607.63-2.85.887-4.917 1.671.613.106 1.123.384 1.342.73l-4.942 1.522M102.434 93.53c-1.647.508-2.068.646-3.716 1.153.322.2.645.398.967.596-2.213.584-4.372 1.24-6.463 1.965.625.072 1.192.283 1.56.581-2.698.498-5.227 1.318-7.38 2.394.47.184.939.37 1.409.552-2.242.451-4.303 1.216-5.956 2.208.534.114 1.019.302 1.405.542l-3.221.761c-.787.186-1.631.4-2.058.826-.426.426-.1 1.108.74 1.14-2.32.637-4.541 1.401-6.624 2.276l1.709.522c.155.371-.607.644-1.232.782-1.845.405-3.69.81-5.533 1.217.613.105 1.123.382 1.342.73-1.647.506-3.296 1.014-4.943 1.522M38.168 94.974c-.023.366.416.62.776.554.361-.067.643-.34.902-.6l5.497-5.52c.339.3.354.825.257 1.266-.097.442-.282.876-.249 1.327.032.452.396.928.844.865.274-.04.482-.262.653-.48.889-1.132 1.443-2.498 2.334-3.63.238-.303.639-.614.969-.415.151.09.234.267.382.36.182.113.414.079.623.033 1.705-.377 3.278-1.331 4.402-2.668M35.872 86.459c.706-.517.048-1.789-.827-1.83-.874-.04-1.597.674-2.063 1.415-.764 1.216-1.167 2.656-1.14 4.093.005.352.04.717.21 1.025.271.49.84.749 1.395.827 2.142.3 3.946-1.55 5.142-3.351 1.734-2.613 3.057-5.497 3.907-8.516-2.893 1.237-4.647 4.679-3.95 7.746.143.629.521 1.348 1.167 1.357.55.007.942-.51 1.238-.973l3.53-5.512c-.322.272-.656.56-.804.953-.149.394-.033.921.354 1.084 1.18-1.131 2.195-2.434 3-3.857-.375.476-.56 1.095-.513 1.698l2.212-2.209c-.153.288.184.639.51.628.326-.011.6-.24.842-.457l5.727-5.119" stroke="#33475C" stroke-width="5" stroke-linecap="round" stroke-linejoin="round"/>
        <path d="M59.568 82.35c-1.824.297-4.272-.633-5.44-2.064-.337-.414-.532-.825-.594-1.208h-.002l1.39 7.594 5.763-4.734c-.288.196-.663.339-1.117.413" stroke="#33475C" stroke-width="5" stroke-linecap="round" stroke-linejoin="round"/>
        <path d="M78.522 37.214c-.222.56-.808.98-1.71 1.127-1.823.295-4.272-.634-5.44-2.065-.567-.695-.728-1.383-.54-1.944l-.004-.001-17.245 44.01h.004c-.188.56-.026 1.25.54 1.944 1.168 1.432 3.617 2.362 5.441 2.066.94-.153 1.535-.603 1.733-1.2l.005.003 17.216-43.94z" stroke="#33475C" stroke-width="5" stroke-linecap="round" stroke-linejoin="round"/>
        <path d="M78.005 35.2c1.168 1.431.632 2.845-1.192 3.14-1.825.296-4.273-.633-5.441-2.065-1.168-1.432-.632-2.846 1.193-3.14 1.824-.297 4.272.632 5.44 2.064" stroke="#33475C" stroke-width="5" stroke-linecap="round" stroke-linejoin="round"/>
        <path d="M78.005 35.2c1.168 1.431.632 2.845-1.192 3.14-1.825.296-4.273-.633-5.441-2.065-1.168-1.432-.632-2.846 1.193-3.14 1.824-.297 4.272.632 5.44 2.064zM57.751 84.344c-.143.097-.328.169-.554.206-.896.146-2.099-.311-2.674-1.016-.134-.165-.219-.33-.264-.486l.663 3.624 2.832-2.326-.003-.002z" stroke="#33475C" stroke-width="5" stroke-linecap="round" stroke-linejoin="round"/>
        <path d="M76.813 38.34c-1.332.217-2.995-.223-4.25-1.03L55.317 81.319c1.258.809 2.919 1.248 4.25 1.032.94-.153 1.535-.603 1.733-1.198h.005l17.216-43.94c-.223.56-.808.982-1.71 1.128" stroke="#33475C" stroke-width="5" stroke-linecap="round" stroke-linejoin="round"/>
        <path d="M59.568 82.35c.94-.151 1.534-.602 1.733-1.197l.004.002 17.217-43.941c-.223.56-.808.98-1.71 1.126-.462.075-.964.072-1.474 0l-1.308 3.343-16.022 40.654c.54.082 1.073.093 1.56.014" stroke="#33475C" stroke-width="5" stroke-linecap="round" stroke-linejoin="round"/>
        <path d="M78.522 37.214c-.18.454-.604.813-1.237 1.013-.147.046-.302.086-.472.114-1.825.295-4.273-.634-5.44-2.065-.099-.121-.18-.241-.255-.36-.353-.57-.442-1.121-.286-1.584l-.004-.001-.43 1.177-.52 1.429c.001-.006.007-.011.008-.016-.233.572-.081 1.295.513 2.022 1.168 1.432 3.617 2.362 5.44 2.066.939-.152 1.535-.6 1.734-1.193-.005.014-.008.03-.014.044l.963-2.646z" stroke="#33475C" stroke-width="5" stroke-linecap="round" stroke-linejoin="round"/>
        <path d="M78.522 37.214c-.18.454-.604.813-1.237 1.013-.147.046-.302.086-.472.114-1.825.295-4.273-.634-5.44-2.065-.099-.121-.18-.241-.255-.36-.353-.57-.442-1.121-.286-1.584l-.004-.001-.43 1.177-.52 1.429c.001-.006.007-.011.008-.016-.233.572-.081 1.295.513 2.022 1.168 1.432 3.617 2.362 5.44 2.066.939-.152 1.535-.6 1.734-1.193-.005.014-.008.03-.014.044l.963-2.646z" stroke="#33475C" stroke-width="5" stroke-linecap="round" stroke-linejoin="round"/>
        <path d="M77.06 40.514c-.3.237-.706.41-1.221.495-1.823.296-4.272-.634-5.44-2.065-.32-.392-.507-.781-.58-1.146-.062-.314-.04-.612.068-.878-.002.006-.007.01-.01.017l.042-.112-.041.112-.535 1.47c.009-.023.022-.044.033-.067-.284.586-.15 1.342.473 2.105 1.168 1.43 3.616 2.36 5.44 2.065.993-.16 1.6-.653 1.762-1.3-.015.064-.033.126-.057.186l.005.002.56-1.538c.006-.015.009-.03.014-.045-.09.268-.265.504-.512.699" stroke="#33475C" stroke-width="5" stroke-linecap="round" stroke-linejoin="round"/>
        <path d="M77.06 40.514c-.3.237-.706.41-1.221.495-1.823.296-4.272-.634-5.44-2.065-.32-.392-.507-.781-.58-1.146-.062-.314-.04-.612.068-.878-.002.006-.007.01-.01.017l.042-.112-.041.112-.535 1.47c.009-.023.022-.044.033-.067-.284.586-.15 1.342.473 2.105 1.168 1.43 3.616 2.36 5.44 2.065.993-.16 1.6-.653 1.762-1.3-.015.064-.033.126-.057.186l.005.002.56-1.538c.006-.015.009-.03.014-.045-.09.268-.265.504-.512.699z" stroke="#33475C" stroke-width="5" stroke-linecap="round" stroke-linejoin="round"/>
        <path d="M78.522 37.214c-.222.56-.808.98-1.71 1.127-1.823.295-4.272-.634-5.44-2.065-.567-.695-.728-1.383-.54-1.944l-.004-.001-17.245 44.01h.004c-.188.56-.026 1.25.54 1.944 1.168 1.432 3.617 2.362 5.441 2.066.94-.153 1.535-.603 1.733-1.2l.005.003 17.216-43.94z" stroke="#33475C" stroke-width="5" stroke-linecap="round" stroke-linejoin="round"/>
        <path d="M59.568 82.35c-.487.08-1.02.069-1.56-.013l-3.086 4.335 5.763-4.734c-.288.196-.663.339-1.117.413" stroke="#33475C" stroke-width="5" stroke-linecap="round" stroke-linejoin="round"/>
        <path d="M57.751 84.344c-.143.097-.328.169-.554.206-.237.038-.496.032-.759-.007l-1.516 2.129 2.832-2.326-.003-.002z" stroke="#33475C" stroke-width="5" stroke-linecap="round" stroke-linejoin="round"/>
        <path d="M59.568 82.35c-1.824.297-4.272-.633-5.44-2.064-.337-.414-.532-.825-.594-1.208h-.002l1.39 7.594 5.763-4.734c-.288.196-.663.339-1.117.413z" stroke="#33475C" stroke-width="5" stroke-linecap="round" stroke-linejoin="round"/>
        <path d="M57.751 84.344c-.143.097-.328.169-.554.206-.896.146-2.099-.311-2.674-1.016-.134-.165-.219-.33-.264-.486l.663 3.624 2.832-2.326-.003-.002z" stroke="#33475C" stroke-width="5" stroke-linecap="round" stroke-linejoin="round"/>
        <path d="M121.17 92.442c.952.55 1.429 1.275 1.429 2 0 .725-.477 1.45-1.429 2l-50.827 29.345c-1.905 1.1-5.023 1.1-6.928 0L3.929 91.442c-.952-.55-1.429-1.274-1.429-2 0-.725.477-1.449 1.429-2l50.827-29.345c1.905-1.099 5.022-1.099 6.928 0l59.486 34.345z" fill="#D29B6A"/>
        <path d="M121.17 92.442c.952.55 1.429 1.275 1.429 2 0 .725-.477 1.45-1.429 2l-50.827 29.345c-1.905 1.1-5.023 1.1-6.928 0L3.929 91.442c-.952-.55-1.429-1.274-1.429-2 0-.725.477-1.449 1.429-2l50.827-29.345c1.905-1.099 5.022-1.099 6.928 0l59.486 34.345z" stroke="#33475C" stroke-linecap="round" stroke-linejoin="round"/>
        <path d="M122.241 95.508c-.238.34-.596.659-1.072.935l-25.413 14.67-25.413 14.674c-.633.366-1.406.598-2.218.72-.409.063-.825.105-1.246.105-1.256 0-2.512-.275-3.464-.825L16.5 98.7 3.928 91.443c-.476-.275-.833-.594-1.07-.934-.239-.341-.358-.703-.358-1.066v4c0 .725.476 1.45 1.428 2l59.487 34.344c1.905 1.1 5.022 1.1 6.928 0l50.826-29.344c.953-.55 1.43-1.276 1.43-2v-4c0 .362-.12.724-.358 1.065" fill="#C78244"/>
        <path d="M122.241 95.508c-.238.34-.596.659-1.072.935l-25.413 14.67-25.413 14.674c-.633.366-1.406.598-2.218.72-.409.063-.825.105-1.246.105-1.256 0-2.512-.275-3.464-.825L16.5 98.7 3.928 91.443c-.476-.275-.833-.594-1.07-.934-.239-.341-.358-.703-.358-1.066v4c0 .725.476 1.45 1.428 2l59.487 34.344c1.905 1.1 5.022 1.1 6.928 0l50.826-29.344c.953-.55 1.43-1.276 1.43-2v-4c0 .362-.12.724-.358 1.065z" stroke="#33475C" stroke-linecap="round" stroke-linejoin="round"/>
        <path fill="#EAF0F6" d="M111.33 94.442l-44.45 25.664-53.112-30.664L58.22 63.778z"/>
        <path stroke="#33475C" stroke-linecap="round" stroke-linejoin="round" d="M111.33 94.442l-44.45 25.664-53.112-30.664L58.22 63.778z"/>
        <path d="M58.22 63.778s35.32 15.563 57.11 14.664l-44.451 25.664c-21.428 8.735-57.11-14.664-57.11-14.664l44.45-25.664z" fill="#FFF"/>
        <path d="M58.22 63.778s35.32 15.563 57.11 14.664l-44.451 25.664c-21.428 8.735-57.11-14.664-57.11-14.664l44.45-25.664z" stroke="#33475C" stroke-linecap="round" stroke-linejoin="round"/>
        <path d="M98.272 73.253c-15.615 1.929-40.185-9.475-40.185-9.475L13.768 89.442s25.183 16.884 40.184 9.475l2.315-1.341L98.27 73.253" fill="#FFF"/>
        <path d="M98.272 73.253c-15.615 1.929-40.185-9.475-40.185-9.475L13.768 89.442s25.183 16.884 40.184 9.475l2.315-1.341L98.27 73.253" stroke="#33475C" stroke-linecap="round" stroke-linejoin="round"/>
        <path fill="#9DB2C9" d="M17.205 83.31l30.042-17.346-2.165-4.816L15.04 78.494z"/>
        <path stroke="#33475C" stroke-linecap="round" stroke-linejoin="round" d="M17.205 83.31l30.042-17.346-2.165-4.816L15.04 78.494z"/>
        <path d="M50.363 64.098c-.81-.468-1.549-.51-2.088-.198L18.233 81.245c.538-.311 1.276-.27 2.087.199.016.008.03.022.046.03 1.618.965 2.935 3.284 2.935 5.19L53.344 69.32c0-1.926-1.34-4.275-2.98-5.222" fill="#CBD6E3"/>
        <path d="M50.363 64.098c-.81-.468-1.549-.51-2.088-.198L18.233 81.245c.538-.311 1.276-.27 2.087.199.016.008.03.022.046.03 1.618.965 2.935 3.284 2.935 5.19L53.344 69.32c0-1.926-1.34-4.275-2.98-5.222z" stroke="#33475C" stroke-linecap="round" stroke-linejoin="round"/>
        <path d="M20.32 81.443c-.81-.469-1.549-.51-2.087-.198-.55.318-.893 1.004-.893 1.976l2.98-1.72v-.058z" stroke="#33475C" stroke-linecap="round" stroke-linejoin="round"/>
        <path d="M66.611 77.549c-.496 5.998-2.613 14.903-10.345 20.027L98.27 73.253c9.65-4.766 12.122-14.807 12.662-21.37L66.612 77.55z" fill="#EFF4F8"/>
        <path d="M66.611 77.549c-.496 5.998-2.613 14.903-10.345 20.027L98.27 73.253c9.65-4.766 12.122-14.807 12.662-21.37L66.612 77.55zM97.29 80.622c.611.105 1.122.384 1.34.73-1.648.507-3.715 1.153-5.362 1.661l.966.595c-2.214.584-4.373 1.241-6.463 1.965.624.072 1.192.283 1.561.58-2.698.498-5.229 1.32-7.38 2.395.47.184.94.368 1.407.553-2.24.451-4.302 1.215-5.956 2.208.535.114 1.02.301 1.406.542l-3.22.76c-.787.187-1.632.401-2.059.826-.427.426-.1 1.108.74 1.14-2.32.638-4.542 1.401-6.624 2.276l1.71.521c.154.372-.608.645-1.234.782l-5.53 1.217c.611.106 1.121.384 1.34.73l-4.943 1.522" stroke="#33475C" stroke-linecap="round" stroke-linejoin="round"/>
        <path d="M64.549 86.915c-.786.186-2.085.45-2.616.735-.943.506-1.247.662-.574 1.392-2.322.638-2.75.555-4.832 1.43l1.708.521c.155.371-.636.55-1.233.782-1.607.63-2.85.887-4.917 1.671.613.106 1.123.384 1.342.73l-4.942 1.522M102.434 93.53c-1.647.508-2.068.646-3.716 1.153.322.2.645.398.967.596-2.213.584-4.372 1.24-6.463 1.965.625.072 1.192.283 1.56.581-2.698.498-5.227 1.318-7.38 2.394.47.184.939.37 1.409.552-2.242.451-4.303 1.216-5.956 2.208.534.114 1.019.302 1.405.542l-3.221.761c-.787.186-1.631.4-2.058.826-.426.426-.1 1.108.74 1.14-2.32.637-4.541 1.401-6.624 2.276l1.709.522c.155.371-.607.644-1.232.782-1.845.405-3.69.81-5.533 1.217.613.105 1.123.382 1.342.73-1.647.506-3.296 1.014-4.943 1.522M38.168 94.974c-.023.366.416.62.776.554.361-.067.643-.34.902-.6l5.497-5.52c.339.3.354.825.257 1.266-.097.442-.282.876-.249 1.327.032.452.396.928.844.865.274-.04.482-.262.653-.48.889-1.132 1.443-2.498 2.334-3.63.238-.303.639-.614.969-.415.151.09.234.267.382.36.182.113.414.079.623.033 1.705-.377 3.278-1.331 4.402-2.668M35.872 86.459c.706-.517.048-1.789-.827-1.83-.874-.04-1.597.674-2.063 1.415-.764 1.216-1.167 2.656-1.14 4.093.005.352.04.717.21 1.025.271.49.84.749 1.395.827 2.142.3 3.946-1.55 5.142-3.351 1.734-2.613 3.057-5.497 3.907-8.516-2.893 1.237-4.647 4.679-3.95 7.746.143.629.521 1.348 1.167 1.357.55.007.942-.51 1.238-.973l3.53-5.512c-.322.272-.656.56-.804.953-.149.394-.033.921.354 1.084 1.18-1.131 2.195-2.434 3-3.857-.375.476-.56 1.095-.513 1.698l2.212-2.209c-.153.288.184.639.51.628.326-.011.6-.24.842-.457l5.727-5.119" stroke="#33475C" stroke-linecap="round" stroke-linejoin="round"/>
        <path d="M59.568 82.35c-1.824.297-4.272-.633-5.44-2.064-.337-.414-.532-.825-.594-1.208h-.002l1.39 7.594 5.763-4.734c-.288.196-.663.339-1.117.413" fill="#FEF9F0"/>
        <path d="M78.522 37.214c-.222.56-.808.98-1.71 1.127-1.823.295-4.272-.634-5.44-2.065-.567-.695-.728-1.383-.54-1.944l-.004-.001-17.245 44.01h.004c-.188.56-.026 1.25.54 1.944 1.168 1.432 3.617 2.362 5.441 2.066.94-.153 1.535-.603 1.733-1.2l.005.003 17.216-43.94z" fill="#F9D28C"/>
        <path d="M78.005 35.2c1.168 1.431.632 2.845-1.192 3.14-1.825.296-4.273-.633-5.441-2.065-1.168-1.432-.632-2.846 1.193-3.14 1.824-.297 4.272.632 5.44 2.064" fill="#FBA9BE"/>
        <path d="M78.005 35.2c1.168 1.431.632 2.845-1.192 3.14-1.825.296-4.273-.633-5.441-2.065-1.168-1.432-.632-2.846 1.193-3.14 1.824-.297 4.272.632 5.44 2.064z" stroke="#33475C" stroke-linecap="round" stroke-linejoin="round"/>
        <path d="M57.751 84.344c-.143.097-.328.169-.554.206-.896.146-2.099-.311-2.674-1.016-.134-.165-.219-.33-.264-.486l.663 3.624 2.832-2.326-.003-.002z" fill="#415A77"/>
        <path d="M76.813 38.34c-1.332.217-2.995-.223-4.25-1.03L55.317 81.319c1.258.809 2.919 1.248 4.25 1.032.94-.153 1.535-.603 1.733-1.198h.005l17.216-43.94c-.223.56-.808.982-1.71 1.128" fill="#F7C364"/>
        <path d="M59.568 82.35c.94-.151 1.534-.602 1.733-1.197l.004.002 17.217-43.941c-.223.56-.808.98-1.71 1.126-.462.075-.964.072-1.474 0l-1.308 3.343-16.022 40.654c.54.082 1.073.093 1.56.014" fill="#DCAF59"/>
        <path d="M78.522 37.214c-.18.454-.604.813-1.237 1.013-.147.046-.302.086-.472.114-1.825.295-4.273-.634-5.44-2.065-.099-.121-.18-.241-.255-.36-.353-.57-.442-1.121-.286-1.584l-.004-.001-.43 1.177-.52 1.429c.001-.006.007-.011.008-.016-.233.572-.081 1.295.513 2.022 1.168 1.432 3.617 2.362 5.44 2.066.939-.152 1.535-.6 1.734-1.193-.005.014-.008.03-.014.044l.963-2.646z" fill="#F87B9D"/>
        <path d="M78.522 37.214c-.18.454-.604.813-1.237 1.013-.147.046-.302.086-.472.114-1.825.295-4.273-.634-5.44-2.065-.099-.121-.18-.241-.255-.36-.353-.57-.442-1.121-.286-1.584l-.004-.001-.43 1.177-.52 1.429c.001-.006.007-.011.008-.016-.233.572-.081 1.295.513 2.022 1.168 1.432 3.617 2.362 5.44 2.066.939-.152 1.535-.6 1.734-1.193-.005.014-.008.03-.014.044l.963-2.646z" stroke="#33475C" stroke-linecap="round" stroke-linejoin="round"/>
        <path d="M77.06 40.514c-.3.237-.706.41-1.221.495-1.823.296-4.272-.634-5.44-2.065-.32-.392-.507-.781-.58-1.146-.062-.314-.04-.612.068-.878-.002.006-.007.01-.01.017l.042-.112-.041.112-.535 1.47c.009-.023.022-.044.033-.067-.284.586-.15 1.342.473 2.105 1.168 1.43 3.616 2.36 5.44 2.065.993-.16 1.6-.653 1.762-1.3-.015.064-.033.126-.057.186l.005.002.56-1.538c.006-.015.009-.03.014-.045-.09.268-.265.504-.512.699" fill="#CBD6E3"/>
        <path d="M77.06 40.514c-.3.237-.706.41-1.221.495-1.823.296-4.272-.634-5.44-2.065-.32-.392-.507-.781-.58-1.146-.062-.314-.04-.612.068-.878-.002.006-.007.01-.01.017l.042-.112-.041.112-.535 1.47c.009-.023.022-.044.033-.067-.284.586-.15 1.342.473 2.105 1.168 1.43 3.616 2.36 5.44 2.065.993-.16 1.6-.653 1.762-1.3-.015.064-.033.126-.057.186l.005.002.56-1.538c.006-.015.009-.03.014-.045-.09.268-.265.504-.512.699z" stroke="#33475C" stroke-linecap="round" stroke-linejoin="round"/>
        <path d="M78.522 37.214c-.222.56-.808.98-1.71 1.127-1.823.295-4.272-.634-5.44-2.065-.567-.695-.728-1.383-.54-1.944l-.004-.001-17.245 44.01h.004c-.188.56-.026 1.25.54 1.944 1.168 1.432 3.617 2.362 5.441 2.066.94-.153 1.535-.603 1.733-1.2l.005.003 17.216-43.94z" stroke="#33475C" stroke-linecap="round" stroke-linejoin="round"/>
        <path d="M59.568 82.35c-.487.08-1.02.069-1.56-.013l-3.086 4.335 5.763-4.734c-.288.196-.663.339-1.117.413" fill="#FBE1B2"/>
        <path d="M57.751 84.344c-.143.097-.328.169-.554.206-.237.038-.496.032-.759-.007l-1.516 2.129 2.832-2.326-.003-.002z" stroke="#33475C" stroke-linecap="round" stroke-linejoin="round"/>
        <path d="M59.568 82.35c-1.824.297-4.272-.633-5.44-2.064-.337-.414-.532-.825-.594-1.208h-.002l1.39 7.594 5.763-4.734c-.288.196-.663.339-1.117.413z" stroke="#33475C" stroke-linecap="round" stroke-linejoin="round"/>
        <path d="M57.751 84.344c-.143.097-.328.169-.554.206-.896.146-2.099-.311-2.674-1.016-.134-.165-.219-.33-.264-.486l.663 3.624 2.832-2.326-.003-.002z" stroke="#33475C" stroke-linecap="round" stroke-linejoin="round"/>
        <path d="M109.12 38.88c-3.66-1.088-4.388-1.972-5.285-6.426-.896 4.454-1.624 5.338-5.283 6.427 3.66 1.09 4.387 1.974 5.283 6.426.897-4.452 1.625-5.336 5.284-6.426" fill="#FF8F52"/>
        <path d="M122.242 17.634c-7.148-2.13-8.568-3.856-10.319-12.548-1.75 8.692-3.169 10.418-10.318 12.548 7.15 2.128 8.568 3.853 10.318 12.545 1.751-8.692 3.171-10.417 10.32-12.545" fill="#FB0"/>
        <path d="M101.753 26.1c-5.919-1.791-7.094-3.244-8.542-10.558-1.45 7.314-2.625 8.767-8.544 10.558 5.919 1.79 7.094 3.244 8.544 10.558 1.448-7.314 2.623-8.767 8.542-10.558" fill="#00A4BF" opacity=".5"/>
    </g>
</svg>
