<svg viewBox="0 0 200 183" xmlns="http://www.w3.org/2000/svg">
    <g fill="none" fill-rule="evenodd">
        <path d="M93.676 70.198c3.478-2.009 9.17-2.009 12.65 0l91.077 52.584c3.478 2.008 3.46 5.263-.04 7.233l-90.999 51.216c-3.5 1.97-9.228 1.97-12.728 0L2.637 130.015c-3.5-1.97-3.518-5.225-.04-7.233l91.079-52.584z" fill-opacity=".5" fill="#F9D28C"/>
        <path d="M52.804 48.414l77.022-44.469c.998-.576 1.902-.642 2.586-.31l.025-.043 5.74 2.884-4.034 5.685-.48-.226V92.802c0 2.437-1.726 5.428-3.837 6.647l-71.862 41.49 1.354.636-3.99 6.292-5.324-3.73.015-.019c-.647-.42-1.052-1.247-1.052-2.416V55.06c0-2.437 1.727-5.428 3.837-6.646z" stroke="#33475C" stroke-width="5" stroke-linecap="round" stroke-linejoin="round"/>
        <path d="M139.143 8.496c0-1.913-1.356-2.696-3.013-1.74L57.458 52.179c-1.656.956-3.012 3.304-3.012 5.217v66.393c0 1.913 1.356 2.696 3.012 1.74l78.672-45.422c1.657-.956 3.013-3.304 3.013-5.217V8.496z" stroke="#33475C" stroke-width="5" stroke-linecap="round" stroke-linejoin="round"/>
        <path d="M139.143 8.496c0-1.913-1.356-2.696-3.013-1.74L57.458 52.179c-1.656.956-3.012 3.304-3.012 5.217v66.393c0 1.913 1.356 2.696 3.012 1.74l78.672-45.422c1.657-.956 3.013-3.304 3.013-5.217V8.496z" stroke="#33475C" stroke-width="5" stroke-linecap="round" stroke-linejoin="round"/>
        <path d="M139.143 30.65c0-1.913-1.356-2.695-3.013-1.739L57.458 74.332c-1.656.957-3.012 3.304-3.012 5.217v66.393c0 1.913 1.356 2.696 3.012 1.74l78.672-45.421c1.657-.957 3.013-3.305 3.013-5.218V30.65z" stroke="#33475C" stroke-width="5" stroke-linecap="round" stroke-linejoin="round"/>
        <path d="M139.143 30.65c0-1.913-1.356-2.695-3.013-1.739L57.458 74.332c-1.656.957-3.012 3.304-3.012 5.217v66.393c0 1.913 1.356 2.696 3.012 1.74l78.672-45.421c1.657-.957 3.013-3.305 3.013-5.218V30.65z" stroke="#33475C" stroke-width="5" stroke-linecap="round" stroke-linejoin="round"/>
        <path stroke="#33475C" stroke-width="5" stroke-linecap="round" stroke-linejoin="round" d="M139.143 19.418l-84.697 48.9v73.349l84.697-48.9z"/>
        <path stroke="#33475C" stroke-width="5" stroke-linecap="round" stroke-linejoin="round" d="M139.143 19.418l-84.697 48.9V84.44l84.697-48.9zM94.98 35.359v-.004l23.218-13.405v5.378L100.874 37.33v.004L77.656 50.74V45.36zM72.786 53.497c-1.314.758-2.389.138-2.389-1.379s1.075-3.378 2.389-4.137c1.314-.759 2.388-.138 2.388 1.379s-1.074 3.379-2.388 4.137M65.598 57.415c-1.314.758-2.389.138-2.389-1.379 0-1.516 1.075-3.378 2.389-4.137 1.314-.759 2.388-.138 2.388 1.379s-1.074 3.379-2.388 4.137M69.416 81.543c.364 3.018-.138 6.21-1.43 9.11 2.07-4.065 4.186-8.2 7.314-11.57.016 3.013-.658 6.09-1.956 8.925 1.807-3.492 3.723-7.117 6.838-9.552l-2.445 6.99c2.685-2.514 5.2-5.212 7.518-8.065.079.886-.077 1.814-.446 2.663 2.2-1.997 4.85-3.483 7.64-4.284.204-.059.452-.102.581.048 1.49-1.072 3.133-1.915 4.843-2.487M127.007 62.445L67.902 96.569v7.421l59.103-34.123zM127.007 73.322l-59.105 34.124v7.421l59.103-34.123zM84.132 108.953l-16.23 9.37v7.421l16.23-9.37z"/>
        <path d="M52.804 48.414l77.022-44.469c.998-.576 1.902-.642 2.586-.31l.025-.043 5.74 2.884-4.034 5.685-.48-.226V92.802c0 2.437-1.726 5.428-3.837 6.647l-71.862 41.49 1.354.636-3.99 6.292-5.324-3.73.015-.019c-.647-.42-1.052-1.247-1.052-2.416V55.06c0-2.437 1.727-5.428 3.837-6.646" fill="#CBD6E3"/>
        <path d="M52.804 48.414l77.022-44.469c.998-.576 1.902-.642 2.586-.31l.025-.043 5.74 2.884-4.034 5.685-.48-.226V92.802c0 2.437-1.726 5.428-3.837 6.647l-71.862 41.49 1.354.636-3.99 6.292-5.324-3.73.015-.019c-.647-.42-1.052-1.247-1.052-2.416V55.06c0-2.437 1.727-5.428 3.837-6.646z" stroke="#33475C" stroke-linejoin="round"/>
        <path d="M139.143 8.496c0-1.913-1.356-2.696-3.013-1.74L57.458 52.179c-1.656.956-3.012 3.304-3.012 5.217v66.393c0 1.913 1.356 2.696 3.012 1.74l78.672-45.422c1.657-.956 3.013-3.304 3.013-5.217V8.496z" fill="#E4EAEF"/>
        <path d="M139.143 8.496c0-1.913-1.356-2.696-3.013-1.74L57.458 52.179c-1.656.956-3.012 3.304-3.012 5.217v66.393c0 1.913 1.356 2.696 3.012 1.74l78.672-45.422c1.657-.956 3.013-3.304 3.013-5.217V8.496z" stroke="#33475C" stroke-linecap="round" stroke-linejoin="round"/>
        <path d="M139.143 30.65c0-1.913-1.356-2.695-3.013-1.739L57.458 74.332c-1.656.957-3.012 3.304-3.012 5.217v66.393c0 1.913 1.356 2.696 3.012 1.74l78.672-45.421c1.657-.957 3.013-3.305 3.013-5.218V30.65z" fill="#E4EAEF"/>
        <path d="M139.143 30.65c0-1.913-1.356-2.695-3.013-1.739L57.458 74.332c-1.656.957-3.012 3.304-3.012 5.217v66.393c0 1.913 1.356 2.696 3.012 1.74l78.672-45.421c1.657-.957 3.013-3.305 3.013-5.218V30.65z" stroke="#33475C" stroke-linecap="round" stroke-linejoin="round"/>
        <path fill="#FFF" d="M139.143 19.418l-84.697 48.9v73.349l84.697-48.9z"/>
        <path stroke="#33475C" stroke-linecap="round" stroke-linejoin="round" d="M139.143 19.418l-84.697 48.9v73.349l84.697-48.9z"/>
        <path fill="#CBD6E3" d="M139.143 19.418l-84.697 48.9V84.44l84.697-48.9z"/>
        <path stroke="#33475C" d="M139.143 19.418l-84.697 48.9V84.44l84.697-48.9z"/>
        <path fill="#FFF" d="M94.98 35.359v-.004l23.218-13.405v5.378L100.874 37.33v.004L77.656 50.74V45.36z"/>
        <path stroke="#33475C" stroke-linecap="round" stroke-linejoin="round" d="M94.98 35.359v-.004l23.218-13.405v5.378L100.874 37.33v.004L77.656 50.74V45.36z"/>
        <path d="M72.786 53.497c-1.314.758-2.389.138-2.389-1.379s1.075-3.378 2.389-4.137c1.314-.759 2.388-.138 2.388 1.379s-1.074 3.379-2.388 4.137" fill="#40CEBB"/>
        <path d="M72.786 53.497c-1.314.758-2.389.138-2.389-1.379s1.075-3.378 2.389-4.137c1.314-.759 2.388-.138 2.388 1.379s-1.074 3.379-2.388 4.137" stroke="#33475C" stroke-linecap="round" stroke-linejoin="round"/>
        <path d="M65.598 57.415c-1.314.758-2.389.138-2.389-1.379 0-1.516 1.075-3.378 2.389-4.137 1.314-.759 2.388-.138 2.388 1.379s-1.074 3.379-2.388 4.137" fill="#FFAB7D"/>
        <path d="M65.598 57.415c-1.314.758-2.389.138-2.389-1.379 0-1.516 1.075-3.378 2.389-4.137 1.314-.759 2.388-.138 2.388 1.379s-1.074 3.379-2.388 4.137M69.416 81.543c.364 3.018-.138 6.21-1.43 9.11 2.07-4.065 4.186-8.2 7.314-11.57.016 3.013-.658 6.09-1.956 8.925 1.807-3.492 3.723-7.117 6.838-9.552l-2.445 6.99c2.685-2.514 5.2-5.212 7.518-8.065.079.886-.077 1.814-.446 2.663 2.2-1.997 4.85-3.483 7.64-4.284.204-.059.452-.102.581.048 1.49-1.072 3.133-1.915 4.843-2.487" stroke="#33475C" stroke-linecap="round" stroke-linejoin="round"/>
        <path fill="#E4EAEF" d="M127.007 62.445L67.902 96.569v7.421l59.103-34.123z"/>
        <path stroke="#33475C" stroke-linecap="round" stroke-linejoin="round" d="M127.007 62.445L67.902 96.569v7.421l59.103-34.123z"/>
        <path fill="#E5F5F8" d="M127.007 73.322l-59.105 34.124v7.421l59.103-34.123z"/>
        <path stroke="#33475C" stroke-linecap="round" stroke-linejoin="round" stroke-dasharray="2,2,0,0" d="M127.007 73.322l-59.105 34.124v7.421l59.103-34.123z"/>
        <path fill="#FF7A53" d="M84.132 108.953l-16.23 9.37v7.421l16.23-9.37z"/>
        <path stroke="#33475C" stroke-linecap="round" stroke-linejoin="round" d="M84.132 108.953l-16.23 9.37v7.421l16.23-9.37z"/>
        <path d="M127.007 73.322l41.688 24.5" fill="#E5F5F8"/>
        <path d="M127.007 73.322l41.688 24.5" stroke="#33475C" stroke-linecap="round" stroke-linejoin="round" stroke-dasharray="2,2,0,0"/>
        <path d="M127.007 80.542l41.686 24.701" fill="#E5F5F8"/>
        <path d="M127.007 80.542l41.686 24.701" stroke="#33475C" stroke-linecap="round" stroke-linejoin="round" stroke-dasharray="2,2,0,0"/>
        <path d="M67.902 107.442l41.688 24.504" fill="#E5F5F8"/>
        <path d="M67.902 107.442l41.688 24.504" stroke="#33475C" stroke-linecap="round" stroke-linejoin="round" stroke-dasharray="2,2,0,0"/>
        <path d="M67.902 114.867l41.688 24.499" fill="#E5F5F8"/>
        <path d="M67.902 114.867l41.688 24.499" stroke="#33475C" stroke-linecap="round" stroke-linejoin="round" stroke-dasharray="2,2,0,0"/>
        <path stroke="#33475C" stroke-width="5" stroke-linecap="round" stroke-linejoin="round" d="M168.695 97.821l-59.105 34.124v7.421l59.103-34.123z"/>
        <path d="M153.848 127.423l-10.33-9.373c-.237-.215-.58-.268-.87-.14-.292.13-.48.42-.48.739l-.004 13.948c0 .273.137.528.367.677.229.15.518.174.768.061l3.172-1.403 1.775 4.01c.087.195.248.35.448.426.093.036.193.054.29.054.112 0 .224-.023.329-.07l2.512-1.113c.195-.086.35-.247.426-.447.077-.2.072-.422-.015-.618l-1.775-4.009 3.172-1.405c.25-.11.427-.34.47-.61.044-.27-.052-.544-.255-.727" stroke="#33475C" stroke-width="5" stroke-linecap="round" stroke-linejoin="round"/>
        <path fill="#E4EAEF" d="M168.695 97.821l-59.105 34.124v7.421l59.103-34.123z"/>
        <path stroke="#33475C" stroke-linecap="round" stroke-linejoin="round" d="M168.695 97.821l-59.105 34.124v7.421l59.103-34.123z"/>
        <g>
            <path d="M153.848 127.423l-10.33-9.373c-.237-.215-.58-.268-.87-.14-.292.13-.48.42-.48.739l-.004 13.948c0 .273.137.528.367.677.229.15.518.174.768.061l3.172-1.403 1.775 4.01c.087.195.248.35.448.426.093.036.193.054.29.054.112 0 .224-.023.329-.07l2.512-1.113c.195-.086.35-.247.426-.447.077-.2.072-.422-.015-.618l-1.775-4.009 3.172-1.405c.25-.11.427-.34.47-.61.044-.27-.052-.544-.255-.727" fill="#FFF"/>
            <path d="M153.848 127.423l-10.33-9.373c-.237-.215-.58-.268-.87-.14-.292.13-.48.42-.48.739l-.004 13.948c0 .273.137.528.367.677.229.15.518.174.768.061l3.172-1.403 1.775 4.01c.087.195.248.35.448.426.093.036.193.054.29.054.112 0 .224-.023.329-.07l2.512-1.113c.195-.086.35-.247.426-.447.077-.2.072-.422-.015-.618l-1.775-4.009 3.172-1.405c.25-.11.427-.34.47-.61.044-.27-.052-.544-.255-.727" stroke="#33475C" stroke-linecap="round" stroke-linejoin="round"/>
        </g>
    </g>
</svg>
