<svg xmlns="http://www.w3.org/2000/svg" width="36" height="36" viewBox="0 0 36 36">
  <g id="Group_5252" data-name="Group 5252" transform="translate(4211.001 507)">
    <path id="Path_1" data-name="Path 1" d="M2420.767,2264.564a18.128,18.128,0,0,0-11.21,4.6,18.841,18.841,0,0,0-4.629,6.631,17.98,17.98,0,0,0,17.6,24.69,17.833,17.833,0,0,0,7.134-1.863,17.987,17.987,0,0,0,6.35-26.908c-.362-.473-.672-.843-1.011-1.242a19.667,19.667,0,0,0-3.668-3.087,17.51,17.51,0,0,0-2.968-1.538A18.14,18.14,0,0,0,2420.767,2264.564Zm4.938,21.527,2.22,0v-10.269c.227.151,2.185,7.23,2.342,7.741a23.3,23.3,0,0,0,.79,2.589l1.884.022c.225-.379,2.211-7.341,2.56-8.441a25.238,25.238,0,0,0,.822-2.841h-2.1l-2.183,7.146a3.256,3.256,0,0,1-.3-.847l-1.88-6.3-4.137,0Zm.062-11.823h2.281l-.005-2.868h-2.27Zm-15.606,6.044c-.737.84-1.6,1.458-1.566,3.289a4.152,4.152,0,0,0,1.725,3.26c1.7,1.338,6.393.318,8.907,1.031a2.332,2.332,0,0,1,1.823,3.018c-1.033,3.144-6.752,2.135-9.325,1.1-.622-.251-1.136-.547-1.655-.787v3.12c2.882,1.549,9.205,2.436,12.021-.135a5.08,5.08,0,0,0,1.812-3.3c.462-3.548-2.178-5.783-6.094-6.107-1.275-.107-2.706-.051-4-.051a3.78,3.78,0,0,1-1.845-.2c-1.179-.688-.288-2.462.591-2.109a18.67,18.67,0,0,0,5.244.854c2.758.152,4.751-.482,5.661-2.463,1.452-3.163-.809-6.391,1.838-6.38l-.009-2.8a4.339,4.339,0,0,0-2.649.63c-1.36-1.194-2.549-1.351-4.827-1.273a17.218,17.218,0,0,0-5.327.883,5.536,5.536,0,0,0-2.891,3.355A6.33,6.33,0,0,0,2410.162,2280.311Z" transform="translate(-6614.627 -2771.525)" fill="#fff" fill-rule="evenodd"/>
    <path id="Path_2" data-name="Path 2" d="M6303.447,6514.99a20.14,20.14,0,0,0-3.547.424c-2.507.73-2.456,3.823-1.288,5.113.678.751,1.97.877,2.965.989a19.16,19.16,0,0,0,3.705.161c1.409-.17,1.66-.854,1.66-2.3,0-1.042.168-2.916-.3-3.686a1.508,1.508,0,0,0-1.277-.687A11.8,11.8,0,0,0,6303.447,6514.99Z" transform="translate(-10500.375 -7012.713)" fill="#fff" fill-rule="evenodd"/>
  </g>
</svg>
