<svg viewBox="0 0 130 95" xmlns="http://www.w3.org/2000/svg" xmlns:xlink="http://www.w3.org/1999/xlink">
    <defs>
        <path id="a" d="M.5.831h125V73H.5z"/>
    </defs>
    <g fill="none" fill-rule="evenodd">
        <g transform="translate(2 21.692)">
            <mask id="b" fill="#fff">
                <use xlink:href="#a"/>
            </mask>
            <path d="M67.117 72.48L1.4 34.54c-1.335-.771-1.166-2.13.375-3.02L53.656 1.569c1.54-.89 3.893-.987 5.227-.217L124.6 39.293c1.335.77 1.166 2.128-.375 3.018l-51.88 29.953c-1.54.89-3.893.988-5.227.217" fill="#B4BAEA" opacity=".25" mask="url(#b)"/>
        </g>
        <path d="M127.5 49.396s-7.846-10.517-19.097-17.013c-15.572-8.99-20.204-5.677-33.167-13.162C62.273 11.738 56.644 2.5 56.644 2.5L2.5 33.76s5.63 9.238 18.593 16.722c12.962 7.483 17.594 4.17 33.167 13.16 11.251 6.497 19.096 17.014 19.096 17.014l54.144-31.26zM55.2 12.413L13.54 36.465M92.716 32.357L53.348 55.086M97.097 34.392l-39.44 22.77M114.866 47.62L75.741 70.21" stroke="#33475C" stroke-width="5" stroke-linecap="round" stroke-linejoin="round"/>
        <path d="M38.695 48.816c-1.11.64-1.005 1.435.233 1.765 0 0 2.683.713 4.123 1.089 1.442.376 4.176 1.242 4.176 1.242 1.223.386 3.131.179 4.241-.462L86.79 32.057c1.11-.641 1.013-1.466-.215-1.833 0 0-1.65-.493-4.39-1.126-2.742-.632-3.894-1.064-3.894-1.064-1.2-.45-3.09-.294-4.2.346L38.694 48.816zM80.914 31.722L48.638 50.357M76.59 30.41L44.133 49.148M17.92 37.818c-.807.468-.957 1.274-.333 1.793 0 0 1.352 1.12 2.08 1.717.729.595 2.07 1.877 2.07 1.877.6.572 1.75.658 2.56.19L63.56 20.22c.807-.467.97-1.303.363-1.858 0 0-.817-.744-2.225-1.794-1.407-1.05-1.955-1.656-1.955-1.656-.57-.633-1.698-.768-2.506-.3L17.92 37.818zM60.273 18.986l-37.047 21.89M58.136 17.016l-37.18 21.968M103.172 38.359L64.064 60.938M99.901 36.766L61.08 59.181M107.197 40.608l-39.439 22.77M112.496 45.35L73.387 67.93M110.002 42.982L71.18 65.396M66.019 22.738l-39.44 22.77M72.87 25.927l-39.108 22.58M69.6 24.334L30.778 46.75" stroke="#33475C" stroke-width="5" stroke-linecap="round" stroke-linejoin="round"/>
        <path d="M127.5 49.396s-7.846-10.517-19.097-17.013c-15.572-8.99-20.204-5.677-33.167-13.162C62.273 11.738 56.644 2.5 56.644 2.5L2.5 33.76s5.63 9.238 18.593 16.722c12.962 7.483 17.594 4.17 33.167 13.16 11.251 6.497 19.096 17.014 19.096 17.014l54.144-31.26z" fill="#FFF"/>
        <path d="M127.5 49.396s-7.846-10.517-19.097-17.013c-15.572-8.99-20.204-5.677-33.167-13.162C62.273 11.738 56.644 2.5 56.644 2.5L2.5 33.76s5.63 9.238 18.593 16.722c12.962 7.483 17.594 4.17 33.167 13.16 11.251 6.497 19.096 17.014 19.096 17.014l54.144-31.26z" stroke="#33475C" stroke-linecap="round" stroke-linejoin="round"/>
        <path d="M55.2 12.413L13.54 36.465" fill="#FFF"/>
        <path d="M55.2 12.413L13.54 36.465" stroke="#D9DCF4" stroke-width="2" stroke-linecap="round" stroke-linejoin="round"/>
        <path d="M92.716 32.357L53.348 55.086" stroke="#ECEDF9" stroke-linecap="round" stroke-linejoin="round"/>
        <path d="M97.097 34.392l-39.44 22.77" fill="#FFF"/>
        <path d="M97.097 34.392l-39.44 22.77" stroke="#D9DCF4" stroke-width="2" stroke-linecap="round" stroke-linejoin="round"/>
        <path d="M114.866 47.62L75.741 70.21" stroke="#ECEDF9" stroke-linecap="round" stroke-linejoin="round"/>
        <path d="M38.695 48.816c-1.11.64-1.005 1.435.233 1.765 0 0 2.683.713 4.123 1.089 1.442.376 4.176 1.242 4.176 1.242 1.223.386 3.131.179 4.241-.462L86.79 32.057c1.11-.641 1.013-1.466-.215-1.833 0 0-1.65-.493-4.39-1.126-2.742-.632-3.894-1.064-3.894-1.064-1.2-.45-3.09-.294-4.2.346L38.694 48.816z" fill="#ECEDF9"/>
        <path d="M80.914 31.722L48.638 50.357M76.59 30.41L44.133 49.148" stroke="#B4BAEA" stroke-linecap="round" stroke-linejoin="round"/>
        <path d="M17.92 37.818c-.807.468-.957 1.274-.333 1.793 0 0 1.352 1.12 2.08 1.717.729.595 2.07 1.877 2.07 1.877.6.572 1.75.658 2.56.19L63.56 20.22c.807-.467.97-1.303.363-1.858 0 0-.817-.744-2.225-1.794-1.407-1.05-1.955-1.656-1.955-1.656-.57-.633-1.698-.768-2.506-.3L17.92 37.818z" fill="#ECEDF9"/>
        <path d="M60.273 18.986l-37.047 21.89M58.136 17.016l-37.18 21.968" stroke="#B4BAEA" stroke-linecap="round" stroke-linejoin="round"/>
        <path d="M103.172 38.359L64.064 60.938M99.901 36.766L61.08 59.181" stroke="#ECEDF9" stroke-linecap="round" stroke-linejoin="round"/>
        <path d="M107.197 40.608l-39.439 22.77" fill="#FFF"/>
        <path d="M107.197 40.608l-39.439 22.77" stroke="#D9DCF4" stroke-width="2" stroke-linecap="round" stroke-linejoin="round"/>
        <path d="M112.496 45.35L73.387 67.93M110.002 42.982L71.18 65.396" stroke="#ECEDF9" stroke-linecap="round" stroke-linejoin="round"/>
        <g>
            <path d="M66.019 22.738l-39.44 22.77" fill="#FFF"/>
            <path d="M66.019 22.738l-39.44 22.77" stroke="#D9DCF4" stroke-width="2" stroke-linecap="round" stroke-linejoin="round"/>
        </g>
        <path d="M72.87 25.927l-39.108 22.58M69.6 24.334L30.778 46.75" stroke="#ECEDF9" stroke-linecap="round" stroke-linejoin="round"/>
    </g>
</svg>
