<?xml version="1.0" encoding="UTF-8"?>
<!DOCTYPE svg PUBLIC "-//W3C//DTD SVG 1.1//EN" "http://www.w3.org/Graphics/SVG/1.1/DTD/svg11.dtd">
<!-- Creator: CorelDRAW X8 -->
<svg xmlns="http://www.w3.org/2000/svg" xml:space="preserve" width="211.667mm" height="211.667mm" version="1.1" style="shape-rendering:geometricPrecision; text-rendering:geometricPrecision; image-rendering:optimizeQuality; fill-rule:evenodd; clip-rule:evenodd"
viewBox="0 0 21167 21167"
 xmlns:xlink="http://www.w3.org/1999/xlink">
 <defs>
  <style type="text/css">
   <![CDATA[
    .fil1 {fill:#FEFEFE}
    .fil0 {fill:#FEFEFE}
   ]]>
  </style>
 </defs>
 <g id="Camada_x0020_1">
  <metadata id="CorelCorpID_0Corel-Layer"/>
  <g id="_1747443327856">
   <path class="fil0" d="M10265 2282c-1996,166 -3730,807 -5141,2111 -921,850 -1624,1859 -2123,3043 -1107,2625 -631,5837 1060,8056 1625,2133 4284,3472 7011,3275 1305,-94 2241,-346 3272,-855 1073,-531 2130,-1390 2838,-2329 2277,-3019 2316,-7092 74,-10020 -166,-217 -308,-387 -464,-570 -415,-484 -1137,-1058 -1682,-1417 -417,-275 -856,-495 -1361,-706 -923,-384 -2353,-682 -3484,-588zm2265 9879l1018 -1 0 -4713c104,69 1002,3318 1074,3553 98,316 231,929 362,1188l864 10c103,-174 1014,-3369 1174,-3874 109,-344 326,-970 377,-1304l-964 0 -1001 3280c-69,-108 -103,-266 -137,-389l-862 -2891 -1897 1 -8 5140zm28 -5426l1046 0 -2 -1316 -1041 0 -3 1316zm-7157 2774c-338,385 -733,669 -718,1509 13,734 418,1201 791,1496 779,614 2932,146 4085,473 732,208 1026,806 836,1385 -474,1443 -3097,980 -4277,505 -285,-115 -521,-251 -759,-361l0 1432c1322,711 4222,1118 5513,-62 421,-386 739,-811 831,-1516 212,-1628 -999,-2654 -2795,-2803 -585,-49 -1241,-23 -1834,-23 -289,0 -613,44 -846,-92 -541,-316 -132,-1130 271,-968 668,267 1684,352 2405,392 1265,70 2179,-221 2596,-1130 666,-1452 -371,-2933 843,-2928l-4 -1283c-535,-52 -843,105 -1215,289 -624,-548 -1169,-620 -2214,-584 -698,24 -1867,137 -2443,405 -608,282 -1089,823 -1326,1540 -293,883 -85,1620 260,2324z"/>
   <path class="fil1" d="M8845 6530c-399,13 -1246,87 -1611,193 -1138,332 -1115,1739 -585,2326 308,341 895,399 1347,449 487,53 1202,131 1682,73 640,-77 754,-387 754,-1046 1,-474 76,-1326 -134,-1676 -130,-216 -313,-279 -580,-313 -285,-37 -588,-16 -873,-6z"/>
  </g>
 </g>
</svg>
