<svg height="512pt" viewBox="0 0 512 512" width="512pt" xmlns="http://www.w3.org/2000/svg"><path d="m377.5 504.5h-370v-497h370c16.570312 0 30 13.429688 30 30v437c0 16.570312-13.429688 30-30 30zm0 0" fill="#d8d5ed"/><path d="m377.5 7.5h-30c16.570312 0 30 13.429688 30 30v437c0 16.570312-13.429688 30-30 30h30c16.570312 0 30-13.429688 30-30v-437c0-16.570312-13.429688-30-30-30zm0 0" fill="#bebade"/><path d="m7.5 7.5h60v497h-60zm0 0" fill="#ff2c5c"/><path d="m37.5 7.5h30v497h-30zm0 0" fill="#e62753"/><path d="m341 202h-202c-2.210938 0-4-1.789062-4-4v-62c0-2.210938 1.789062-4 4-4h202c2.210938 0 4 1.789062 4 4v62c0 2.210938-1.789062 4-4 4zm0 0" fill="#ff2c5c"/><path d="m243.855469 412.367188-83.667969 23.402343c-1.226562.328125-2.226562.089844-2.84375-.527343-.621094-.617188-.855469-1.617188-.527344-2.847657l23.402344-83.667969zm0 0" fill="#ebad88"/><path d="m222.644531 391.152344-65.300781 44.089844c.617188.617187 1.617188.855468 2.84375.527343l83.667969-23.402343zm0 0" fill="#e89776"/><path d="m191.683594 426.957031-31.496094 8.808594c-2.453125.644531-4.015625-.917969-3.371094-3.371094l8.8125-31.496093zm0 0" fill="#363636"/><path d="m477.199219 179.023438-63.636719-63.640626 22.601562-22.601562c6.261719-6.261719 16.414063-6.261719 22.675782 0l40.964844 40.960938c6.261718 6.261718 6.261718 16.414062 0 22.679687zm0 0" fill="#4fc6f5"/><path d="m499.804688 133.742188-21.214844-21.214844c6.261718 6.261718 6.261718 16.417968 0 22.679687l-22.601563 22.601563 21.210938 21.214844 22.605469-22.601563c6.261718-6.265625 6.261718-16.417969 0-22.679687zm0 0" fill="#3bb3e3"/><path d="m413.558594 115.378906 21.214844 21.214844-233.34375 233.34375-21.214844-21.214844zm0 0" fill="#ffd659"/><path d="m434.773438 136.59375 21.210937 21.210938-233.339844 233.34375-21.214843-21.210938zm0 0" fill="#ffbd54"/><path d="m455.988281 157.804688 21.210938 21.214843-233.34375 233.34375-21.210938-21.214843zm0 0" fill="#ffa954"/><path d="m505.117188 128.4375-40.960938-40.960938c-4.445312-4.445312-10.355469-6.894531-16.644531-6.894531-6.285157 0-12.195313 2.449219-16.640625 6.894531l-15.859375 15.859376v-65.835938c0-20.679688-16.824219-37.5-37.503907-37.5h-370.007812c-4.140625 0-7.5 3.359375-7.5 7.5v24.332031c0 4.144531 3.359375 7.5 7.5 7.5s7.5-3.355469 7.5-7.5v-16.832031h45v482h-45v-433.167969c0-4.140625-3.359375-7.5-7.5-7.5s-7.5 3.359375-7.5 7.5v440.667969c0 4.140625 3.359375 7.5 7.5 7.5h370.007812c20.679688 0 37.5-16.820312 37.5-37.5v-26.417969c0-4.140625-3.355468-7.5-7.5-7.5-4.140624 0-7.5 3.359375-7.5 7.5v26.417969c0 12.40625-10.09375 22.5-22.5 22.5h-302.503906v-482h302.503906c12.40625 0 22.5 10.09375 22.5 22.5v80.835938l-47.5 47.5v-29.835938c0-6.339844-5.160156-11.5-11.5-11.5h-202.003906c-6.34375 0-11.5 5.160156-11.5 11.5v62c0 6.339844 5.15625 11.5 11.5 11.5h169.839844l-58.972656 58.96875c-2.929688 2.929688-2.929688 7.679688 0 10.605469 2.929687 2.929687 7.679687 2.929687 10.609375 0l153.089843-153.085938 10.605469 10.605469-222.742187 222.738281-10.605469-10.605469 47.023437-47.023437c2.929688-2.929687 2.929688-7.675781 0-10.605469-2.929687-2.929687-7.679687-2.929687-10.609374 0l-52.328126 52.328125c-.203124.203125-.390624.417969-.566406.640625-.035156.046875-.070312.097656-.105468.144532-.148438.195312-.289063.398437-.414063.605468-.039063.058594-.070313.121094-.109375.179688-.128906.230468-.25.464844-.355469.703125-.015625.035156-.035156.066406-.046875.101562-.125.289063-.226562.585938-.3125.886719 0 .003906-.003906.011719-.007812.019531l-22.535156 80.570313-.867188 3.097656c-.007812.023438-.015625.050781-.019531.078125-.003907.011719-.007813.027344-.011719.039063-.246094.941406-.375 1.878906-.386719 2.800781-.035156 2.761719.960938 5.351562 2.863281 7.253906 1.167969 1.167969 2.59375 1.996094 4.160157 2.449219.941406.273437 1.929687.414062 2.945312.414062.96875 0 1.960938-.128906 2.949219-.386718.039062-.011719.078125-.019532.117188-.03125l1.949218-.546876 81.71875-22.855468c.007813-.003906.011719-.003906.019532-.007813.300781-.085937.597656-.1875.890624-.3125.03125-.011719.058594-.03125.089844-.042969.242188-.105468.480469-.230468.714844-.363281.058594-.035156.117188-.066406.171875-.101562.210937-.128907.417969-.269531.617187-.421875.046876-.035156.09375-.066406.136719-.101563.222657-.175781.4375-.363281.640625-.566406l150.847656-150.84375v149.089844c0 4.140625 3.359376 7.5 7.5 7.5 4.144532 0 7.5-3.359375 7.5-7.5v-164.089844l90.109376-90.105469c9.175781-9.175781 9.175781-24.109375 0-33.285156zm-362.613282 66.0625v-55h195.003906v41.335938l-13.664062 13.664062zm292.28125-47.296875 10.605469 10.605469-222.742187 222.738281-10.605469-10.609375zm-240.894531 271.351563-19.859375-19.859376 9.957031-35.59375 45.496094 45.496094zm-24.492187-3.28125 7.914062 7.914062-10.988281 3.078125zm74.464843-13.515626-10.605469-10.605468 222.738282-222.738282 10.609375 10.609376zm250.648438-250.640624-17.300781 17.296874-53.03125-53.03125 17.296874-17.296874c1.613282-1.613282 3.757813-2.5 6.035157-2.5 2.28125 0 4.425781.886718 6.039062 2.5l40.960938 40.960937c3.328125 3.324219 3.328125 8.742187 0 12.070313zm0 0"/></svg>