<svg xmlns="http://www.w3.org/2000/svg" viewBox="0 0 94 89">
    <g fill="none" fill-rule="evenodd">
        <path fill="#F9D28C" d="M49.748 35.7c-1.628-.94-4.29-.94-5.919 0L1.215 60.306c-1.628.939-1.619 2.462.02 3.384L43.81 87.652c1.638.922 4.318.922 5.956 0L92.344 63.69c1.638-.922 1.646-2.445.02-3.384L49.747 35.7z" opacity=".5"/>
        <path stroke="#33475C" stroke-width="5" d="M71.046 39.495l-13.06-7.54c-.951-.55-1.731-1.899-1.731-3V12.97c0-1.1-.78-2.45-1.732-3L41.987 2.732c-.495-.286-.94-.297-1.257-.091l-4.825 2.786c.306-.137.703-.105 1.142.149l3.208 1.852v12.29c0 1.1-.78 1.55-1.732 1l-13.06-7.54c-.951-.55-1.731-.1-1.731 1v14c0 1.1.78 2.45 1.732 3l13.059 7.54c.953.55 1.732 1.9 1.732 3v14.647c0 1.1.78 2.45 1.732 3l12.536 7.238c.953.55 1.732.1 1.732-1V50.955c0-1.099.78-1.55 1.732-1l9.85 4.151v5.233c0 .568-.21.958-.541 1.131v.003l.013.017 4.959-2.863-.006-.01c-.005.003-.011.003-.016.005.327-.175.532-.565.532-1.127v-14c0-1.1-.78-2.45-1.732-3z" stroke-linecap="round" stroke-linejoin="round"/>
        <path stroke="#33475C" stroke-width="5" d="M67.838 45.339c0-1.1-.78-2.45-1.732-3l-13.06-7.54c-.951-.55-1.731-1.9-1.731-3V15.814c0-1.1-.78-2.45-1.732-3L37.047 5.576c-.952-.55-1.732-.1-1.732 1v15.986c0 1.1-.78 1.55-1.732 1l-13.06-7.54c-.951-.55-1.731-.1-1.731 1v14c0 1.1.78 2.45 1.732 3l13.059 7.54c.953.55 1.732 1.9 1.732 3v14.647c0 1.1.78 2.45 1.732 3l12.536 7.238c.953.55 1.732.1 1.732-1V53.799c0-1.1.78-1.55 1.732-1l13.059 7.54c.953.55 1.732.1 1.732-1v-14z" stroke-linecap="round" stroke-linejoin="round"/>
        <path stroke="#33475C" stroke-width="5" d="M25.464 13.178c-.462-.267-.882-.294-1.193-.13l-.012-.01-4.97 2.875c.315-.19.752-.17 1.235.109l13.06 7.54c.951.55 1.731.1 1.731-1v-3.697l-9.85-5.687zm30.791 52.425V54.652L53.047 52.8c-.953-.551-1.732-.101-1.732 1v14.647c0 .54-.19.92-.494 1.107l4.974-2.872c.283-.193.46-.56.46-1.08z" stroke-linecap="round" stroke-linejoin="round"/>
        <path fill="#7BDED2" d="M71.046 39.495l-13.06-7.54c-.951-.55-1.731-1.899-1.731-3V12.97c0-1.1-.78-2.45-1.732-3L41.987 2.732c-.495-.286-.94-.297-1.257-.091l-4.825 2.786c.306-.137.703-.105 1.142.149l3.208 1.852v12.29c0 1.1-.78 1.55-1.732 1l-13.06-7.54c-.951-.55-1.731-.1-1.731 1v14c0 1.1.78 2.45 1.732 3l13.059 7.54c.953.55 1.732 1.9 1.732 3v14.647c0 1.1.78 2.45 1.732 3l12.536 7.238c.953.55 1.732.1 1.732-1V50.955c0-1.099.78-1.55 1.732-1l9.85 4.151v5.233c0 .568-.21.958-.541 1.131v.003l.013.017 4.959-2.863-.006-.01c-.005.003-.011.003-.016.005.327-.175.532-.565.532-1.127v-14c0-1.1-.78-2.45-1.732-3"/>
        <path stroke="#33475C" d="M71.046 39.495l-13.06-7.54c-.951-.55-1.731-1.899-1.731-3V12.97c0-1.1-.78-2.45-1.732-3L41.987 2.732c-.495-.286-.94-.297-1.257-.091l-4.825 2.786c.306-.137.703-.105 1.142.149l3.208 1.852v12.29c0 1.1-.78 1.55-1.732 1l-13.06-7.54c-.951-.55-1.731-.1-1.731 1v14c0 1.1.78 2.45 1.732 3l13.059 7.54c.953.55 1.732 1.9 1.732 3v14.647c0 1.1.78 2.45 1.732 3l12.536 7.238c.953.55 1.732.1 1.732-1V50.955c0-1.099.78-1.55 1.732-1l9.85 4.151v5.233c0 .568-.21.958-.541 1.131v.003l.013.017 4.959-2.863-.006-.01c-.005.003-.011.003-.016.005.327-.175.532-.565.532-1.127v-14c0-1.1-.78-2.45-1.732-3z" stroke-linecap="round" stroke-linejoin="round"/>
        <path fill="#40CEBB" d="M67.838 45.339c0-1.1-.78-2.45-1.732-3l-13.06-7.54c-.951-.55-1.731-1.9-1.731-3V15.814c0-1.1-.78-2.45-1.732-3L37.047 5.576c-.952-.55-1.732-.1-1.732 1v15.986c0 1.1-.78 1.55-1.732 1l-13.06-7.54c-.951-.55-1.731-.1-1.731 1v14c0 1.1.78 2.45 1.732 3l13.059 7.54c.953.55 1.732 1.9 1.732 3v14.647c0 1.1.78 2.45 1.732 3l12.536 7.238c.953.55 1.732.1 1.732-1V53.799c0-1.1.78-1.55 1.732-1l13.059 7.54c.953.55 1.732.1 1.732-1v-14z"/>
        <path stroke="#33475C" d="M67.838 45.339c0-1.1-.78-2.45-1.732-3l-13.06-7.54c-.951-.55-1.731-1.9-1.731-3V15.814c0-1.1-.78-2.45-1.732-3L37.047 5.576c-.952-.55-1.732-.1-1.732 1v15.986c0 1.1-.78 1.55-1.732 1l-13.06-7.54c-.951-.55-1.731-.1-1.731 1v14c0 1.1.78 2.45 1.732 3l13.059 7.54c.953.55 1.732 1.9 1.732 3v14.647c0 1.1.78 2.45 1.732 3l12.536 7.238c.953.55 1.732.1 1.732-1V53.799c0-1.1.78-1.55 1.732-1l13.059 7.54c.953.55 1.732.1 1.732-1v-14z" stroke-linecap="round" stroke-linejoin="round"/>
        <path fill="#7BDED2" d="M25.464 13.178c-.462-.267-.882-.294-1.193-.13l-.012-.01-4.97 2.875c.315-.19.752-.17 1.235.109l13.06 7.54c.951.55 1.731.1 1.731-1v-3.697l-9.85-5.687z"/>
        <path stroke="#33475C" d="M25.464 13.178c-.462-.267-.882-.294-1.193-.13l-.012-.01-4.97 2.875c.315-.19.752-.17 1.235.109l13.06 7.54c.951.55 1.731.1 1.731-1v-3.697l-9.85-5.687z" stroke-linecap="round" stroke-linejoin="round"/>
        <path fill="#7BDED2" d="M56.255 65.603V54.652L53.047 52.8c-.953-.551-1.732-.101-1.732 1v14.647c0 .54-.19.92-.494 1.107l4.974-2.872c.283-.193.46-.56.46-1.08"/>
        <path stroke="#33475C" d="M56.255 65.603V54.652L53.047 52.8c-.953-.551-1.732-.101-1.732 1v14.647c0 .54-.19.92-.494 1.107l4.974-2.872c.283-.193.46-.56.46-1.08z" stroke-linecap="round" stroke-linejoin="round"/>
    </g>
</svg>
