<svg viewBox="0 0 107 106" xmlns="http://www.w3.org/2000/svg" xmlns:xlink="http://www.w3.org/1999/xlink">
    <defs>
        <path id="a" d="M0 .714h102.686V60H0z"/>
    </defs>
    <g fill="none" fill-rule="evenodd">
        <g transform="translate(0 45.994)">
            <mask id="b" fill="#fff">
                <use xlink:href="#a"/>
            </mask>
            <path d="M101.464 30.785c.814.47 1.222 1.09 1.222 1.71 0 .62-.408 1.239-1.222 1.71l-43.457 25.09c-1.63.94-4.295.94-5.924 0L1.222 29.93C.407 29.46 0 28.84 0 28.22c0-.621.407-1.241 1.222-1.71L44.679 1.42c1.629-.941 4.295-.941 5.924 0l50.86 29.365z" fill-opacity=".2" fill="#FF8F52" mask="url(#b)"/>
        </g>
        <path stroke="#33475C" stroke-width="5" stroke-linecap="round" stroke-linejoin="round" d="M100.3 63.863L55.85 89.527 2.738 58.864 47.19 33.2z"/>
        <path d="M47.19 33.2s35.32 15.563 57.11 14.663L59.85 73.527C38.42 82.263 2.737 58.864 2.737 58.864L47.19 33.2z" stroke="#33475C" stroke-width="5" stroke-linecap="round" stroke-linejoin="round"/>
        <path d="M87.241 42.674C71.628 44.604 47.058 33.2 47.058 33.2L2.738 58.863s25.184 16.883 40.184 9.475l2.315-1.34 42.004-24.324" stroke="#33475C" stroke-width="5" stroke-linecap="round" stroke-linejoin="round"/>
        <path d="M55.582 46.97c-.496 5.998-2.613 14.903-10.345 20.027l42.004-24.323c9.65-4.767 12.122-14.808 12.662-21.369L55.582 46.97zM86.26 50.044c.612.105 1.122.383 1.34.729-1.647.508-3.715 1.153-5.362 1.66l.967.596c-2.214.584-4.373 1.241-6.463 1.964.624.072 1.192.285 1.56.581-2.698.498-5.228 1.32-7.38 2.395l1.408.553c-2.241.452-4.302 1.215-5.956 2.208.534.114 1.02.3 1.406.542l-3.221.76c-.786.187-1.631.4-2.058.826-.427.425-.1 1.108.739 1.14-2.32.639-4.541 1.4-6.623 2.276l1.708.522c.156.37-.606.643-1.232.781-1.844.406-3.687.813-5.531 1.218.612.105 1.122.382 1.34.728l-4.942 1.523" stroke="#33475C" stroke-width="5" stroke-linecap="round" stroke-linejoin="round"/>
        <path d="M53.52 56.336c-.787.186-2.087.45-2.617.736-.942.505-1.246.661-.575 1.39-2.32.64-2.748.556-4.832 1.431l1.71.521c.154.371-.637.548-1.234.782-1.607.63-2.849.887-4.916 1.67.611.108 1.123.385 1.342.731l-4.944 1.521M91.404 62.952c-1.647.507-2.068.646-3.716 1.152.322.2.645.398.967.596-2.214.585-4.372 1.24-6.463 1.965.624.073 1.192.284 1.561.58-2.699.499-5.228 1.319-7.38 2.395l1.407.553c-2.24.45-4.303 1.215-5.955 2.207.534.115 1.018.302 1.405.542l-3.22.762c-.788.186-1.632.4-2.059.826-.427.425-.1 1.107.74 1.139-2.32.638-4.54 1.4-6.624 2.276l1.71.522c.153.37-.608.644-1.234.782-1.844.405-3.688.81-5.532 1.217.613.105 1.123.382 1.341.729l-4.942 1.523M27.139 64.394c-.023.366.416.621.776.555.36-.067.643-.339.902-.599l5.497-5.52c.339.298.354.824.257 1.265-.098.442-.282.876-.25 1.326.033.452.397.928.844.865.275-.038.483-.26.654-.479.889-1.132 1.443-2.498 2.334-3.63.238-.304.638-.614.969-.415.15.09.234.266.382.36.18.112.414.08.623.033 1.705-.378 3.278-1.33 4.402-2.669M24.843 55.88c.705-.518.047-1.79-.827-1.83-.874-.04-1.597.674-2.063 1.414-.765 1.216-1.167 2.657-1.141 4.093.006.352.04.717.21 1.025.272.491.84.75 1.396.827 2.142.301 3.946-1.549 5.142-3.35 1.733-2.614 3.057-5.497 3.907-8.516-2.893 1.236-4.647 4.678-3.95 7.745.142.63.52 1.35 1.167 1.358.55.007.94-.51 1.238-.974l3.53-5.51c-.322.27-.657.558-.805.951-.15.394-.033.921.355 1.085 1.18-1.13 2.194-2.435 2.999-3.857-.374.476-.56 1.095-.512 1.697L37.7 49.83c-.153.287.184.638.51.627.326-.01.599-.239.842-.457l5.728-5.119" stroke="#33475C" stroke-width="5" stroke-linecap="round" stroke-linejoin="round"/>
        <path d="M48.539 51.771c-1.824.296-4.272-.633-5.44-2.065-.338-.414-.532-.825-.594-1.208l-.002.001 1.39 7.593 5.763-4.734c-.288.196-.663.34-1.117.413" stroke="#33475C" stroke-width="5" stroke-linecap="round" stroke-linejoin="round"/>
        <path d="M67.493 6.634c-.223.561-.808.98-1.71 1.127-1.824.296-4.272-.634-5.44-2.065-.567-.695-.729-1.383-.54-1.944h-.005l-17.244 44.01.003.001c-.187.56-.025 1.25.541 1.943 1.168 1.432 3.617 2.361 5.441 2.065.94-.153 1.534-.603 1.733-1.198l.004.001 17.217-43.94z" stroke="#33475C" stroke-width="5" stroke-linecap="round" stroke-linejoin="round"/>
        <path d="M66.975 4.62c1.169 1.433.632 2.846-1.191 3.142-1.826.296-4.274-.634-5.442-2.066-1.167-1.431-.631-2.846 1.194-3.14 1.823-.296 4.27.632 5.44 2.065" stroke="#33475C" stroke-width="5" stroke-linecap="round" stroke-linejoin="round"/>
        <path d="M66.975 4.62c1.169 1.433.632 2.846-1.191 3.142-1.826.296-4.274-.634-5.442-2.066-1.167-1.431-.631-2.846 1.194-3.14 1.823-.296 4.27.632 5.44 2.065zM46.722 53.764h-.001c-.142.098-.327.17-.553.206-.896.146-2.1-.31-2.674-1.015-.134-.166-.22-.33-.264-.487l.663 3.624 2.83-2.325-.001-.003z" stroke="#33475C" stroke-width="5" stroke-linecap="round" stroke-linejoin="round"/>
        <path d="M65.783 7.761c-1.332.216-2.994-.223-4.25-1.03L44.29 50.74c1.256.807 2.918 1.247 4.25 1.03.94-.153 1.534-.603 1.733-1.197h.004l17.216-43.94c-.222.561-.808.981-1.709 1.127" stroke="#33475C" stroke-width="5" stroke-linecap="round" stroke-linejoin="round"/>
        <path d="M48.539 51.771c.939-.152 1.534-.603 1.733-1.197l.004.001L67.493 6.634c-.223.561-.808.981-1.71 1.127-.462.075-.964.071-1.475 0l-1.307 3.343-16.023 40.653c.541.082 1.074.093 1.561.014" stroke="#33475C" stroke-width="5" stroke-linecap="round" stroke-linejoin="round"/>
        <path d="M67.493 6.634c-.18.455-.604.814-1.237 1.013-.148.046-.303.087-.473.114-1.824.296-4.272-.634-5.44-2.065-.099-.12-.18-.24-.254-.359-.354-.57-.443-1.12-.287-1.585h-.004l-.429 1.176-.52 1.43c.001-.006.006-.01.008-.017-.233.573-.082 1.295.512 2.022 1.168 1.432 3.616 2.362 5.44 2.066.94-.15 1.535-.6 1.734-1.193l-.014.044.964-2.646z" stroke="#33475C" stroke-width="5" stroke-linecap="round" stroke-linejoin="round"/>
        <path d="M67.493 6.634c-.18.455-.604.814-1.237 1.013-.148.046-.303.087-.473.114-1.824.296-4.272-.634-5.44-2.065-.099-.12-.18-.24-.254-.359-.354-.57-.443-1.12-.287-1.585h-.004l-.429 1.176-.52 1.43c.001-.006.006-.01.008-.017-.233.573-.082 1.295.512 2.022 1.168 1.432 3.616 2.362 5.44 2.066.94-.15 1.535-.6 1.734-1.193l-.014.044.964-2.646z" stroke="#33475C" stroke-width="5" stroke-linecap="round" stroke-linejoin="round"/>
        <path d="M66.031 9.934v.001c-.3.236-.708.411-1.222.494-1.824.296-4.272-.633-5.44-2.065-.319-.39-.507-.78-.579-1.146-.063-.314-.04-.612.067-.877-.002.006-.007.011-.009.016l.041-.11-.04.11-.537 1.471c.01-.023.023-.044.033-.067-.283.585-.149 1.341.473 2.105 1.17 1.431 3.617 2.361 5.442 2.065.991-.16 1.6-.653 1.761-1.299-.015.063-.034.124-.057.184v.001l.005.002.56-1.538.014-.045c-.09.267-.265.504-.512.698" stroke="#33475C" stroke-width="5" stroke-linecap="round" stroke-linejoin="round"/>
        <path d="M66.031 9.934v.001c-.3.236-.708.411-1.222.494-1.824.296-4.272-.633-5.44-2.065-.319-.39-.507-.78-.579-1.146-.063-.314-.04-.612.067-.877-.002.006-.007.011-.009.016l.041-.11-.04.11-.537 1.471c.01-.023.023-.044.033-.067-.283.585-.149 1.341.473 2.105 1.17 1.431 3.617 2.361 5.442 2.065.991-.16 1.6-.653 1.761-1.299-.015.063-.034.124-.057.184v.001l.005.002.56-1.538.014-.045c-.09.267-.265.504-.512.698z" stroke="#33475C" stroke-width="5" stroke-linecap="round" stroke-linejoin="round"/>
        <path d="M67.493 6.634c-.223.561-.808.98-1.71 1.127-1.824.296-4.272-.634-5.44-2.065-.567-.695-.729-1.383-.54-1.944h-.005l-17.244 44.01.003.001c-.187.56-.025 1.25.541 1.943 1.168 1.432 3.617 2.361 5.441 2.065.94-.153 1.534-.603 1.733-1.198l.004.001 17.217-43.94z" stroke="#33475C" stroke-width="5" stroke-linecap="round" stroke-linejoin="round"/>
        <path d="M48.539 51.771c-.487.079-1.02.068-1.561-.014l-3.085 4.335 5.763-4.734c-.288.196-.663.34-1.117.413" stroke="#33475C" stroke-width="5" stroke-linecap="round" stroke-linejoin="round"/>
        <path d="M46.722 53.764h-.001c-.142.098-.327.17-.553.206-.237.04-.497.032-.76-.007l-1.515 2.13 2.83-2.326-.001-.003z" stroke="#33475C" stroke-width="5" stroke-linecap="round" stroke-linejoin="round"/>
        <path d="M48.539 51.771c-1.824.296-4.272-.633-5.44-2.065-.338-.414-.532-.825-.594-1.208l-.002.001 1.39 7.593 5.763-4.734c-.288.196-.663.34-1.117.413z" stroke="#33475C" stroke-width="5" stroke-linecap="round" stroke-linejoin="round"/>
        <path d="M46.722 53.764h-.001c-.142.098-.327.17-.553.206-.896.146-2.1-.31-2.674-1.015-.134-.166-.22-.33-.264-.487l.663 3.624 2.83-2.325-.001-.003z" stroke="#33475C" stroke-width="5" stroke-linecap="round" stroke-linejoin="round"/>
        <path fill="#EAF0F6" d="M100.3 63.863L55.85 89.527 2.738 58.864 47.19 33.2z"/>
        <path stroke="#33475C" stroke-linecap="round" stroke-linejoin="round" d="M100.3 63.863L55.85 89.527 2.738 58.864 47.19 33.2z"/>
        <path d="M47.19 33.2s35.32 15.563 57.11 14.663L59.85 73.527C38.42 82.263 2.737 58.864 2.737 58.864L47.19 33.2z" fill="#FFF"/>
        <path d="M47.19 33.2s35.32 15.563 57.11 14.663L59.85 73.527C38.42 82.263 2.737 58.864 2.737 58.864L47.19 33.2z" stroke="#33475C" stroke-linecap="round" stroke-linejoin="round"/>
        <path d="M87.241 42.674C71.628 44.604 47.058 33.2 47.058 33.2L2.738 58.863s25.184 16.883 40.184 9.475l2.315-1.34 42.004-24.324" fill="#FFF"/>
        <path d="M87.241 42.674C71.628 44.604 47.058 33.2 47.058 33.2L2.738 58.863s25.184 16.883 40.184 9.475l2.315-1.34 42.004-24.324" stroke="#33475C" stroke-linecap="round" stroke-linejoin="round"/>
        <path d="M55.582 46.97c-.496 5.998-2.613 14.903-10.345 20.027l42.004-24.323c9.65-4.767 12.122-14.808 12.662-21.369L55.582 46.97z" fill="#EFF4F8"/>
        <path d="M55.582 46.97c-.496 5.998-2.613 14.903-10.345 20.027l42.004-24.323c9.65-4.767 12.122-14.808 12.662-21.369L55.582 46.97zM86.26 50.044c.612.105 1.122.383 1.34.729-1.647.508-3.715 1.153-5.362 1.66l.967.596c-2.214.584-4.373 1.241-6.463 1.964.624.072 1.192.285 1.56.581-2.698.498-5.228 1.32-7.38 2.395l1.408.553c-2.241.452-4.302 1.215-5.956 2.208.534.114 1.02.3 1.406.542l-3.221.76c-.786.187-1.631.4-2.058.826-.427.425-.1 1.108.739 1.14-2.32.639-4.541 1.4-6.623 2.276l1.708.522c.156.37-.606.643-1.232.781-1.844.406-3.687.813-5.531 1.218.612.105 1.122.382 1.34.728l-4.942 1.523" stroke="#33475C" stroke-linecap="round" stroke-linejoin="round"/>
        <path d="M53.52 56.336c-.787.186-2.087.45-2.617.736-.942.505-1.246.661-.575 1.39-2.32.64-2.748.556-4.832 1.431l1.71.521c.154.371-.637.548-1.234.782-1.607.63-2.849.887-4.916 1.67.611.108 1.123.385 1.342.731l-4.944 1.521M91.404 62.952c-1.647.507-2.068.646-3.716 1.152.322.2.645.398.967.596-2.214.585-4.372 1.24-6.463 1.965.624.073 1.192.284 1.561.58-2.699.499-5.228 1.319-7.38 2.395l1.407.553c-2.24.45-4.303 1.215-5.955 2.207.534.115 1.018.302 1.405.542l-3.22.762c-.788.186-1.632.4-2.059.826-.427.425-.1 1.107.74 1.139-2.32.638-4.54 1.4-6.624 2.276l1.71.522c.153.37-.608.644-1.234.782-1.844.405-3.688.81-5.532 1.217.613.105 1.123.382 1.341.729l-4.942 1.523M27.139 64.394c-.023.366.416.621.776.555.36-.067.643-.339.902-.599l5.497-5.52c.339.298.354.824.257 1.265-.098.442-.282.876-.25 1.326.033.452.397.928.844.865.275-.038.483-.26.654-.479.889-1.132 1.443-2.498 2.334-3.63.238-.304.638-.614.969-.415.15.09.234.266.382.36.18.112.414.08.623.033 1.705-.378 3.278-1.33 4.402-2.669M24.843 55.88c.705-.518.047-1.79-.827-1.83-.874-.04-1.597.674-2.063 1.414-.765 1.216-1.167 2.657-1.141 4.093.006.352.04.717.21 1.025.272.491.84.75 1.396.827 2.142.301 3.946-1.549 5.142-3.35 1.733-2.614 3.057-5.497 3.907-8.516-2.893 1.236-4.647 4.678-3.95 7.745.142.63.52 1.35 1.167 1.358.55.007.94-.51 1.238-.974l3.53-5.51c-.322.27-.657.558-.805.951-.15.394-.033.921.355 1.085 1.18-1.13 2.194-2.435 2.999-3.857-.374.476-.56 1.095-.512 1.697L37.7 49.83c-.153.287.184.638.51.627.326-.01.599-.239.842-.457l5.728-5.119" stroke="#33475C" stroke-linecap="round" stroke-linejoin="round"/>
        <path d="M48.539 51.771c-1.824.296-4.272-.633-5.44-2.065-.338-.414-.532-.825-.594-1.208l-.002.001 1.39 7.593 5.763-4.734c-.288.196-.663.34-1.117.413" fill="#FEF9F0"/>
        <path d="M67.493 6.634c-.223.561-.808.98-1.71 1.127-1.824.296-4.272-.634-5.44-2.065-.567-.695-.729-1.383-.54-1.944h-.005l-17.244 44.01.003.001c-.187.56-.025 1.25.541 1.943 1.168 1.432 3.617 2.361 5.441 2.065.94-.153 1.534-.603 1.733-1.198l.004.001 17.217-43.94z" fill="#F9D28C"/>
        <path d="M66.975 4.62c1.169 1.433.632 2.846-1.191 3.142-1.826.296-4.274-.634-5.442-2.066-1.167-1.431-.631-2.846 1.194-3.14 1.823-.296 4.27.632 5.44 2.065" fill="#FBA9BE"/>
        <path d="M66.975 4.62c1.169 1.433.632 2.846-1.191 3.142-1.826.296-4.274-.634-5.442-2.066-1.167-1.431-.631-2.846 1.194-3.14 1.823-.296 4.27.632 5.44 2.065z" stroke="#33475C" stroke-linecap="round" stroke-linejoin="round"/>
        <path d="M46.722 53.764h-.001c-.142.098-.327.17-.553.206-.896.146-2.1-.31-2.674-1.015-.134-.166-.22-.33-.264-.487l.663 3.624 2.83-2.325-.001-.003z" fill="#415A77"/>
        <path d="M65.783 7.761c-1.332.216-2.994-.223-4.25-1.03L44.29 50.74c1.256.807 2.918 1.247 4.25 1.03.94-.153 1.534-.603 1.733-1.197h.004l17.216-43.94c-.222.561-.808.981-1.709 1.127" fill="#F7C364"/>
        <path d="M48.539 51.771c.939-.152 1.534-.603 1.733-1.197l.004.001L67.493 6.634c-.223.561-.808.981-1.71 1.127-.462.075-.964.071-1.475 0l-1.307 3.343-16.023 40.653c.541.082 1.074.093 1.561.014" fill="#DCAF59"/>
        <path d="M67.493 6.634c-.18.455-.604.814-1.237 1.013-.148.046-.303.087-.473.114-1.824.296-4.272-.634-5.44-2.065-.099-.12-.18-.24-.254-.359-.354-.57-.443-1.12-.287-1.585h-.004l-.429 1.176-.52 1.43c.001-.006.006-.01.008-.017-.233.573-.082 1.295.512 2.022 1.168 1.432 3.616 2.362 5.44 2.066.94-.15 1.535-.6 1.734-1.193l-.014.044.964-2.646z" fill="#F87B9D"/>
        <path d="M67.493 6.634c-.18.455-.604.814-1.237 1.013-.148.046-.303.087-.473.114-1.824.296-4.272-.634-5.44-2.065-.099-.12-.18-.24-.254-.359-.354-.57-.443-1.12-.287-1.585h-.004l-.429 1.176-.52 1.43c.001-.006.006-.01.008-.017-.233.573-.082 1.295.512 2.022 1.168 1.432 3.616 2.362 5.44 2.066.94-.15 1.535-.6 1.734-1.193l-.014.044.964-2.646z" stroke="#33475C" stroke-linecap="round" stroke-linejoin="round"/>
        <path d="M66.031 9.934v.001c-.3.236-.708.411-1.222.494-1.824.296-4.272-.633-5.44-2.065-.319-.39-.507-.78-.579-1.146-.063-.314-.04-.612.067-.877-.002.006-.007.011-.009.016l.041-.11-.04.11-.537 1.471c.01-.023.023-.044.033-.067-.283.585-.149 1.341.473 2.105 1.17 1.431 3.617 2.361 5.442 2.065.991-.16 1.6-.653 1.761-1.299-.015.063-.034.124-.057.184v.001l.005.002.56-1.538.014-.045c-.09.267-.265.504-.512.698" fill="#CBD6E3"/>
        <path d="M66.031 9.934v.001c-.3.236-.708.411-1.222.494-1.824.296-4.272-.633-5.44-2.065-.319-.39-.507-.78-.579-1.146-.063-.314-.04-.612.067-.877-.002.006-.007.011-.009.016l.041-.11-.04.11-.537 1.471c.01-.023.023-.044.033-.067-.283.585-.149 1.341.473 2.105 1.17 1.431 3.617 2.361 5.442 2.065.991-.16 1.6-.653 1.761-1.299-.015.063-.034.124-.057.184v.001l.005.002.56-1.538.014-.045c-.09.267-.265.504-.512.698z" stroke="#33475C" stroke-linecap="round" stroke-linejoin="round"/>
        <path d="M67.493 6.634c-.223.561-.808.98-1.71 1.127-1.824.296-4.272-.634-5.44-2.065-.567-.695-.729-1.383-.54-1.944h-.005l-17.244 44.01.003.001c-.187.56-.025 1.25.541 1.943 1.168 1.432 3.617 2.361 5.441 2.065.94-.153 1.534-.603 1.733-1.198l.004.001 17.217-43.94z" stroke="#33475C" stroke-linecap="round" stroke-linejoin="round"/>
        <path d="M48.539 51.771c-.487.079-1.02.068-1.561-.014l-3.085 4.335 5.763-4.734c-.288.196-.663.34-1.117.413" fill="#FBE1B2"/>
        <path d="M46.722 53.764h-.001c-.142.098-.327.17-.553.206-.237.04-.497.032-.76-.007l-1.515 2.13 2.83-2.326-.001-.003z" stroke="#33475C" stroke-linecap="round" stroke-linejoin="round"/>
        <path d="M48.539 51.771c-1.824.296-4.272-.633-5.44-2.065-.338-.414-.532-.825-.594-1.208l-.002.001 1.39 7.593 5.763-4.734c-.288.196-.663.34-1.117.413z" stroke="#33475C" stroke-linecap="round" stroke-linejoin="round"/>
        <path d="M46.722 53.764h-.001c-.142.098-.327.17-.553.206-.896.146-2.1-.31-2.674-1.015-.134-.166-.22-.33-.264-.487l.663 3.624 2.83-2.325-.001-.003z" stroke="#33475C" stroke-linecap="round" stroke-linejoin="round"/>
    </g>
</svg>
