<svg viewBox="0 0 159 255" xmlns="http://www.w3.org/2000/svg" xmlns:xlink="http://www.w3.org/1999/xlink">
    <defs>
        <path id="a" d="M.431.503H106.55V61H.431z"/>
    </defs>
    <g fill="none" fill-rule="evenodd">
        <g transform="translate(52 193.102)">
            <mask id="b" fill="#fff">
                <use xlink:href="#a"/>
            </mask>
            <path d="M56.847 1.302C55 .237 51.98.237 50.135 1.302L1.81 29.203c-1.846 1.066-1.836 2.792.02 3.838l48.284 27.175c1.858 1.045 4.897 1.045 6.754 0l48.284-27.175c1.857-1.046 1.866-2.772.02-3.838l-48.325-27.9z" fill-opacity=".25" fill="#40CEBB" mask="url(#b)"/>
        </g>
        <path d="M142.638 174.78c0 20.516-16.63 37.147-37.147 37.147-20.516 0-37.148-16.63-37.148-37.147s16.632-37.147 37.148-37.147c20.516 0 37.147 16.63 37.147 37.147z" stroke="#33475C" stroke-width="5" stroke-linecap="round" stroke-linejoin="round"/>
        <path d="M104.697 195.803c1.255 0 2.51-.275 3.463-.825l9.558-5.518 33.606-19.403c1.905-1.1 3.464-3.8 3.464-6v-56.468c0-1.1-.389-2.325-1.017-3.413l-49.074 28.333v63.294z" stroke="#33475C" stroke-width="5" stroke-linecap="round" stroke-linejoin="round"/>
        <path d="M54.606 164.056c0 2.2 1.56 4.9 3.464 6l43.163 24.921c.953.55 2.208.826 3.464.826v-63.294l-49.073-28.333c-.628 1.087-1.018 2.313-1.018 3.412v56.469zM101.233 76.668l-43.163 24.92c-.953.55-1.818 1.5-2.446 2.588l49.073 28.333 49.074-28.333c-.628-1.087-1.495-2.037-2.447-2.587L115.682 81.01l-7.522-4.343c-1.905-1.1-5.022-1.1-6.927 0z" stroke="#33475C" stroke-width="5" stroke-linecap="round" stroke-linejoin="round"/>
        <path d="M123.063 101.35c0 9.704-7.867 17.57-17.572 17.57-9.704 0-17.571-7.867-17.571-17.57 0-9.706 7.867-17.572 17.57-17.572 9.706 0 17.573 7.866 17.573 17.572zM110.156 233.409c0 2.577-2.089 4.666-4.665 4.666-2.577 0-4.666-2.089-4.666-4.666 0-2.576 2.09-4.665 4.666-4.665 2.576 0 4.665 2.089 4.665 4.665zM120.75 220.558c0 3.627-6.831 6.566-15.26 6.566-8.426 0-15.258-2.94-15.258-6.566 0-3.627 6.832-6.567 15.259-6.567 8.428 0 15.26 2.94 15.26 6.566z" stroke="#33475C" stroke-width="5" stroke-linecap="round" stroke-linejoin="round"/>
        <path d="M62.888 82.165c0 2.199 1.558 4.898 3.462 5.999l15.54 8.972 19.344 11.168c.952.549 2.208.825 3.464.825v-39.62L63.906 45.957c-.628 1.088-1.018 2.312-1.018 3.413v32.795zM74.896 83.19l-.167-.168" stroke="#33475C" stroke-width="5" stroke-linecap="round" stroke-linejoin="round"/>
        <path d="M67.299 61.564c.285 1.805 1.072 3.792 2.231 5.464 1.162 1.671 2.694 2.993 4.11 3.454 2.132.695 3.697-.589 4.5-2.468M89.444 74.35c.286 1.805 1.072 3.793 2.233 5.464 1.16 1.672 2.693 2.993 4.108 3.455 2.132.694 3.697-.59 4.501-2.469M73.47 82.983c1.065 2.064 2.616 3.84 4.208 5.24 3.85 3.385 8.154 4.793 11.241 3.678M79.211 75.232c-1.327-.073-2.46.546-2.91 1.886-.45 1.341-.128 3.437.942 5.195.394.648.87 1.23 1.365 1.751 1.61 1.692 3.512 2.798 5.051 2.752 1.54-.046 2.641-1.327 2.625-3.345-.033-4.147-4.228-8.08-7.073-8.239zM104.697 109.129c1.256 0 2.512-.275 3.464-.825l34.882-20.14c1.905-1.098 3.464-3.8 3.464-6V49.37c0-1.1-.39-2.325-1.018-3.413l-40.792 23.552v39.62z" stroke="#33475C" stroke-width="5" stroke-linecap="round" stroke-linejoin="round"/>
        <path d="M143.043 43.37L108.16 23.23c-1.905-1.099-5.022-1.099-6.928 0L66.352 43.37c-.953.55-1.82 1.5-2.447 2.587l40.792 23.552 40.793-23.552c-.628-1.087-1.494-2.037-2.447-2.587z" stroke="#33475C" stroke-width="5" stroke-linecap="round" stroke-linejoin="round"/>
        <path d="M104.698 48.361c-1.053 0-2.074-.556-2.62-1.543-.217-.39-5.266-9.678-2.192-19.646 1.946-6.314 6.63-11.376 13.918-15.048 1.48-.745 3.284-.15 4.03 1.33.744 1.48.15 3.283-1.33 4.03-5.756 2.898-9.413 6.735-10.869 11.407-2.339 7.5 1.654 14.952 1.695 15.027.791 1.451.263 3.274-1.186 4.07-.459.253-.956.373-1.446.373z" stroke="#33475C" stroke-width="5" stroke-linecap="round" stroke-linejoin="round"/>
        <path d="M124.063 12.953c0 5.772-4.68 10.452-10.452 10.452-5.773 0-10.453-4.68-10.453-10.452s4.68-10.452 10.453-10.452c5.772 0 10.452 4.68 10.452 10.452zM126.516 89.926c.304.176.7.16 1.131-.09l8.661-5c.952-.55 1.731-2.04 1.731-3.308v-9.381c0-.696-.233-1.187-.6-1.4-.304-.175-.7-.16-1.131.09l-8.661 5c-.953.55-1.732 2.039-1.732 3.31v9.38c0 .696.233 1.187.601 1.399z" stroke="#33475C" stroke-width="5" stroke-linecap="round" stroke-linejoin="round"/>
        <path d="M125.915 88.527v-9.38c0-1.27.78-2.76 1.732-3.31l8.661-5c.431-.249.827-.265 1.131-.089l-5.196-3c-.305-.175-.7-.16-1.132.09l-8.66 5c-.953.55-1.732 2.038-1.732 3.308v9.381c0 .695.234 1.187.601 1.398l5.196 3c-.368-.21-.601-.703-.601-1.398zM83.412 190.52c-.422 9.345-.543 20.704-.36 30.057 9.41-6.492 18.967-12.767 28.666-18.819.507-7.05.037-13.886-.748-20.913-.082-.747-.236-1.596-.88-1.987-.556-.339-1.27-.196-1.9-.03-9.422 2.457-17.93 4.77-24.778 11.692z" stroke="#33475C" stroke-width="5" stroke-linecap="round" stroke-linejoin="round"/>
        <path d="M87.713 194.198c-8.872 0-18.828-3.17-29.76-9.493-10.928-6.32-19.206-13.764-19.553-14.077-5.12-4.63-5.517-12.535-.887-17.656 4.63-5.122 12.534-5.518 17.654-.889 9.855 8.857 28.264 19.85 35.739 16.52 12.564-5.595 26.147-25.709 29.914-32.314 3.422-5.995 11.055-8.086 17.052-4.664 5.996 3.42 8.084 11.053 4.664 17.051-1.901 3.334-19.224 32.863-41.46 42.765-4.127 1.838-8.59 2.757-13.362 2.757z" stroke="#33475C" stroke-width="5" stroke-linecap="round" stroke-linejoin="round"/>
        <path d="M15.334 181.168c-17.113-9.88-17.113-26.047 0-35.927 17.112-9.88 45.115-9.88 62.227 0 17.113 9.88 17.113 26.047 0 35.927-17.112 9.88-45.115 9.88-62.227 0z" stroke="#33475C" stroke-width="5" stroke-linecap="round" stroke-linejoin="round"/>
        <path d="M15.334 181.168c-17.113-9.88-17.113-26.047 0-35.927 17.112-9.88 45.115-9.88 62.227 0 17.113 9.88 17.113 26.047 0 35.927-17.112 9.88-45.115 9.88-62.227 0z" stroke="#33475C" stroke-width="5" stroke-linecap="round" stroke-linejoin="round"/>
        <path d="M22.377 177.101c-13.239-7.644-13.239-20.15 0-27.795 13.24-7.643 34.903-7.643 48.142 0 13.24 7.644 13.24 20.151 0 27.795-13.239 7.644-34.903 7.644-48.142 0z" stroke="#33475C" stroke-width="5" stroke-linecap="round" stroke-linejoin="round"/>
        <path d="M22.377 177.101c-13.239-7.644-13.239-20.15 0-27.795 13.24-7.643 34.903-7.643 48.142 0 13.24 7.644 13.24 20.151 0 27.795-13.239 7.644-34.903 7.644-48.142 0zM144.523 158.017c-.79-4.647-2.66-9.242-6.052-12.513-5.533-5.335-14.927-6.053-21.208-1.623-1.232.869-2.335 1.898-3.423 2.945l.002-.001c-5.038 6.854-11.874 14.83-18.762 19.43h-.002c2.567-.428 5.588.773 7.288 2.9 2.474 3.095 2.882 7.317 3.043 11.276.582 14.327-.77 28.731-4.01 42.698 15.054-9.232 29.034-20.105 42.655-31.343l.853-19.666c.204-4.708.406-9.458-.384-14.103zM92.222 167.968c.137.193.265.393.383.59 2.628 4.387 3.524 9.78 2.455 14.782-.886 4.144-3.112 7.982-6.234 10.842M76.686 192.713c.964-.877 1.785-1.97 2.445-3.08 2.117-3.565 3.254-7.691 3.333-11.835" stroke="#33475C" stroke-width="5" stroke-linecap="round" stroke-linejoin="round"/>
        <path d="M10.619 140.145c-.014 3.058.75 6.075 1.825 8.938.678 1.805 1.53 3.291 2.887 4.958.898 1.103 2.728 2.731 4.232 3.473l6.529 3.221c1.447 4.258 3.947 8.147 7.376 11.043.376.317 1 .582 1.343.341.062-.043.115-.104.155-.184.099-.195.059-.43.019-.644-.382-2.078-.461-4.203-.278-6.305l7.502 3.7.594.293c.45.165.798.133 1.063 0l3.179-1.589c.048-.024.094-.05.137-.08.319-.226.498-.603.594-.898.567-2.294 1.343-7.292 1.342-9.609-.001-3.464-.69-7.372-2.157-10.549-1.146-2.484-4.548-3.757-6.787-5.096-3.281-1.962-6.607-3.85-9.975-5.659-3.875-2.082-7.806-4.06-11.787-5.933-.357-.168-.754-.339-1.135-.234-.057.015-.111.037-.163.063l-3.18 1.59c-.046.022-.092.051-.136.082-.181.127-.331.306-.468.483-1.862 2.425-2.698 5.537-2.711 8.595z" stroke="#33475C" stroke-width="5" stroke-linecap="round" stroke-linejoin="round"/>
        <path d="M17.114 129.395c.052-.026.106-.048.163-.063.38-.105.778.066 1.135.234 3.98 1.873 7.912 3.851 11.787 5.933 3.368 1.81 6.695 3.697 9.976 5.66 2.238 1.338 5.64 2.611 6.786 5.095 1.467 3.177 2.156 7.085 2.157 10.55 0 2.316-.775 7.314-1.342 9.608-.096.295-.275.672-.594.897-.043.03-.09.057-.137.081l-3.18 1.59c.05-.024.095-.052.138-.082.32-.225.499-.602.594-.898.083-.334.17-.73.259-1.165.519-2.535 1.085-6.464 1.084-8.443-.002-3.464-.691-7.372-2.157-10.549-1.147-2.483-4.55-3.757-6.787-5.095-3.281-1.963-6.607-3.85-9.975-5.66-3.752-2.015-7.558-3.928-11.408-5.748-.127-.06-.252-.125-.38-.184-.357-.169-.753-.34-1.134-.236-.057.017-.111.037-.163.064l3.178-1.589zM33.161 146.549c-5.363-3.122-10.903-5.94-16.584-8.437M40.355 150.987c-1.406-.918-2.827-1.815-4.26-2.69M20.606 145.51c-1.542-.728-3.095-1.432-4.66-2.11M41.017 156.984c-5.244-3.46-10.687-6.62-16.292-9.46M30.267 156.028c-4.06-2.255-8.216-4.338-12.453-6.24M40.578 162.258c-2.38-1.561-4.801-3.06-7.26-4.493" stroke="#33475C" stroke-width="5" stroke-linecap="round" stroke-linejoin="round"/>
        <path d="M10.619 140.145c-.014 3.058.75 6.075 1.825 8.938.678 1.805 1.53 3.291 2.887 4.958.898 1.103 2.728 2.731 4.232 3.473l6.529 3.221c1.447 4.258 3.947 8.147 7.376 11.043.376.317 1 .582 1.343.341.062-.043.115-.104.155-.184.099-.195.059-.43.019-.644-.382-2.078-.461-4.203-.278-6.305l7.502 3.7.594.293c.45.165.798.133 1.063 0l3.179-1.589c.048-.024.094-.05.137-.08.319-.226.498-.603.594-.898.567-2.294 1.343-7.292 1.342-9.609-.001-3.464-.69-7.372-2.157-10.549-1.146-2.484-4.548-3.757-6.787-5.096-3.281-1.962-6.607-3.85-9.975-5.659-3.875-2.082-7.806-4.06-11.787-5.933-.357-.168-.754-.339-1.135-.234-.057.015-.111.037-.163.063l-3.18 1.59c-.046.022-.092.051-.136.082-.181.127-.331.306-.468.483-1.862 2.425-2.698 5.537-2.711 8.595z" stroke="#33475C" stroke-width="5" stroke-linecap="round" stroke-linejoin="round"/>
        <path d="M35.555 120.155c.497-1.459 1.37-2.775 2.452-3.873l.063-.064 2.452-2.45c3.563-3.564 8.97-4.77 14.053-4.176 4.253.497 7.667 1.338 11.656 3.725 4.327 2.591 8.482 5.903 11.139 10.171 1.865 2.995 2.789 6.646 2.724 9.248-.108 4.335-1.37 7.18-3.21 9.02l-2.451 2.451c-2.497 2.497-6.06 3.138-9.236 3.138-1.566 0-4.971-.643-7.397-1.425-.768 2.865-1.61 5.712-2.554 8.524-.324.963-1.16 2.15-2.065 1.688-.425-.218-.602-.723-.74-1.18-1.222-4.104-2.276-8.255-3.177-12.44-2.067-1.039-4.046-2.235-5.861-3.672-4.205-3.332-7.516-8.05-8.24-13.368-.24-1.777-.186-3.62.392-5.317z" stroke="#33475C" stroke-width="5" stroke-linecap="round" stroke-linejoin="round"/>
        <path d="M35.555 120.155c.497-1.459 1.37-2.775 2.452-3.873l.063-.064c3.563-3.562 8.97-4.769 14.053-4.175 4.253.497 7.667 1.34 11.656 3.726 4.327 2.59 8.482 5.903 11.14 10.17 1.865 2.996 2.788 6.647 2.723 9.25-.108 4.334-1.37 7.18-3.21 9.018-2.496 2.497-6.058 3.138-9.235 3.138-1.566 0-4.971-.643-7.397-1.425-.768 2.865-1.61 5.712-2.554 8.524-.324.963-1.16 2.15-2.065 1.688-.425-.218-.602-.723-.74-1.18-1.222-4.104-2.276-8.255-3.177-12.44-2.067-1.039-4.046-2.235-5.861-3.672-4.205-3.332-7.516-8.05-8.24-13.368-.24-1.777-.186-3.62.392-5.317z" stroke="#33475C" stroke-width="5" stroke-linecap="round" stroke-linejoin="round"/>
        <path d="M69.507 135.708c.426.343-.038 1.107-.586 1.115-.547.009-.994-.413-1.375-.805l-2.839-2.93c-.564-.583-1.602-1.144-2.054-.47-.156.236-.163.558-.36.76-.381.397-1.034.019-1.437-.357l-2.387-2.228c-.471-.44-.966-.894-1.585-1.074-.62-.181-1.397.007-1.68.586-.083.17-.132.378-.297.47-.162.09-.366.029-.532-.053-.873-.427-1.433-1.292-1.927-2.13-.493-.836-.996-1.721-1.816-2.241-.821-.521-2.067-.517-2.623.28-.125.18-.231.406-.441.467-.204.058-.41-.068-.58-.195-1.074-.812-1.903-1.945-2.352-3.216M67.115 127.498c.139.325.232.67.274 1.02-.38.243-.866-.031-1.221-.306-1.1-.856-2.122-1.81-3.052-2.847-.602-.673-1.478-1.454-2.28-1.036l.007 1.583c-1.633-.05-2.671-1.68-3.798-2.862-.376-.393-.847-.774-1.39-.751-.544.023-1.033.692-.702 1.124-1.867-1.201-3.477-2.801-4.692-4.66M46.773 133.032c-.144-.323-.24-.667-.288-1.019.376-.246.867.022 1.225.292 1.111.841 2.146 1.782 3.09 2.806.611.665 1.497 1.434 2.292 1.005l-.027-1.582c1.634.028 2.693 1.644 3.837 2.81.38.39.857.764 1.4.733.543-.03 1.023-.705.686-1.133 1.883 1.177 3.514 2.754 4.753 4.597" stroke="#33475C" stroke-width="5" stroke-linecap="round" stroke-linejoin="round"/>
        <path d="M74.918 125.94c-2.657-4.269-6.812-7.58-11.14-10.17-3.988-2.389-7.402-3.23-11.656-3.727-5.082-.594-10.49.613-14.053 4.175l2.452-2.45c3.563-3.564 8.97-4.77 14.053-4.177 4.253.497 7.667 1.34 11.656 3.726 4.327 2.591 8.482 5.903 11.14 10.171 1.865 2.995 2.788 6.645 2.723 9.248-.108 4.335-1.37 7.18-3.209 9.018l-2.452 2.453c1.84-1.839 3.101-4.684 3.21-9.019.064-2.603-.859-6.253-2.724-9.249z" stroke="#33475C" stroke-width="5" stroke-linecap="round" stroke-linejoin="round"/>
        <path d="M35.555 120.155c.497-1.459 1.37-2.775 2.452-3.873l.063-.064 2.452-2.45c3.563-3.564 8.97-4.77 14.053-4.176 4.253.497 7.667 1.338 11.656 3.725 4.327 2.591 8.482 5.903 11.139 10.171 1.865 2.995 2.789 6.646 2.724 9.248-.108 4.335-1.37 7.18-3.21 9.02l-2.451 2.451c-2.497 2.497-6.06 3.138-9.236 3.138-1.566 0-4.971-.643-7.397-1.425-.768 2.865-1.61 5.712-2.554 8.524-.324.963-1.16 2.15-2.065 1.688-.425-.218-.602-.723-.74-1.18-1.222-4.104-2.276-8.255-3.177-12.44-2.067-1.039-4.046-2.235-5.861-3.672-4.205-3.332-7.516-8.05-8.24-13.368-.24-1.777-.186-3.62.392-5.317zM65.053 174.584c-.576 0-1.125-.181-1.588-.523l-2.783-2.051-3.27 1.13c-.275.097-.571.148-.872.148-.136 0-.271-.011-.405-.031-.56-.084-1.071-.34-1.476-.741-.73-.721-.981-1.773-.658-2.745l1.09-3.284-2.084-2.76c-.62-.817-.717-1.894-.257-2.811.456-.91 1.372-1.475 2.39-1.475l3.477.024 1.98-2.837c.5-.716 1.32-1.144 2.192-1.144.134 0 .269.01.403.032 1.014.154 1.836.857 2.147 1.834l1.047 3.296 3.309 1.008c.98.297 1.693 1.112 1.86 2.123.166 1.012-.247 2.01-1.08 2.609l-2.813 2.014.065 3.458c.019 1.025-.534 1.955-1.444 2.426-.378.196-.803.3-1.23.3z" stroke="#33475C" stroke-width="5" stroke-linecap="round" stroke-linejoin="round"/>
        <path d="M62.79 153.984c-1.363 0-2.642.668-3.423 1.784l-1.529 2.191-2.67-.018c-1.616 0-3.045.881-3.758 2.301-.719 1.43-.566 3.113.4 4.39l1.609 2.13-.842 2.535c-.504 1.521-.109 3.164 1.03 4.288.625.62 1.424 1.02 2.303 1.155.207.031.42.048.63.048.467 0 .928-.078 1.37-.232l2.517-.87 2.15 1.583c.721.532 1.578.815 2.476.815.666 0 1.33-.163 1.921-.469 1.416-.733 2.281-2.182 2.253-3.78l-.051-2.675 2.171-1.555c1.301-.932 1.948-2.492 1.688-4.072-.261-1.58-1.374-2.85-2.906-3.316l-2.553-.776-.808-2.546c-.484-1.524-1.768-2.622-3.35-2.863-.209-.032-.42-.048-.628-.048zm0 3c.059 0 .117.005.176.014.442.067.807.38.943.805l1.285 4.048 4.064 1.237c.428.13.744.492.817.933.072.441-.112.885-.475 1.145l-3.453 2.473.081 4.247c.007.448-.238.86-.636 1.066-.17.09-.355.132-.539.132-.246 0-.491-.079-.697-.23l-3.42-2.52-4.013 1.388c-.126.044-.255.066-.383.066-.06 0-.119-.005-.178-.014-.24-.036-.468-.147-.648-.325-.319-.315-.43-.78-.29-1.206l1.34-4.03-2.561-3.389c-.269-.358-.313-.836-.113-1.236.2-.397.606-.647 1.05-.647h.008l4.247.028 2.432-3.483c.221-.316.583-.502.963-.502z" stroke="#33475C" stroke-width="5" stroke-linecap="round" stroke-linejoin="round"/>
        <path d="M142.638 174.78c0 20.516-16.63 37.147-37.147 37.147-20.516 0-37.148-16.63-37.148-37.147s16.632-37.147 37.148-37.147c20.516 0 37.147 16.63 37.147 37.147" fill="#F6C364"/>
        <path d="M142.638 174.78c0 20.516-16.63 37.147-37.147 37.147-20.516 0-37.148-16.63-37.148-37.147s16.632-37.147 37.148-37.147c20.516 0 37.147 16.63 37.147 37.147z" stroke="#33475C" stroke-linecap="round" stroke-linejoin="round"/>
        <path d="M104.697 195.803c1.255 0 2.51-.275 3.463-.825l9.558-5.518 33.606-19.403c1.905-1.1 3.464-3.8 3.464-6v-56.468c0-1.1-.389-2.325-1.017-3.413l-49.074 28.333v63.294z" fill="#40BBCE"/>
        <path d="M104.697 195.803c1.255 0 2.51-.275 3.463-.825l9.558-5.518 33.606-19.403c1.905-1.1 3.464-3.8 3.464-6v-56.468c0-1.1-.389-2.325-1.017-3.413l-49.074 28.333v63.294z" stroke="#33475C" stroke-linecap="round" stroke-linejoin="round"/>
        <path d="M54.606 164.056c0 2.2 1.56 4.9 3.464 6l43.163 24.921c.953.55 2.208.826 3.464.826v-63.294l-49.073-28.333c-.628 1.087-1.018 2.313-1.018 3.412v56.469z" fill="#7CD1DF"/>
        <path d="M54.606 164.056c0 2.2 1.56 4.9 3.464 6l43.163 24.921c.953.55 2.208.826 3.464.826v-63.294l-49.073-28.333c-.628 1.087-1.018 2.313-1.018 3.412v56.469z" stroke="#33475C" stroke-linecap="round" stroke-linejoin="round"/>
        <path d="M101.233 76.668l-43.163 24.92c-.953.55-1.818 1.5-2.446 2.588l49.073 28.333 49.074-28.333c-.628-1.087-1.495-2.037-2.447-2.587L115.682 81.01l-7.522-4.343c-1.905-1.1-5.022-1.1-6.927 0" fill="#BFE7EE"/>
        <path d="M101.233 76.668l-43.163 24.92c-.953.55-1.818 1.5-2.446 2.588l49.073 28.333 49.074-28.333c-.628-1.087-1.495-2.037-2.447-2.587L115.682 81.01l-7.522-4.343c-1.905-1.1-5.022-1.1-6.927 0z" stroke="#33475C" stroke-linecap="round" stroke-linejoin="round"/>
        <path d="M123.063 101.35c0 9.704-7.867 17.57-17.572 17.57-9.704 0-17.571-7.867-17.571-17.57 0-9.706 7.867-17.572 17.57-17.572 9.706 0 17.573 7.866 17.573 17.572" fill="#F6C364"/>
        <path d="M123.063 101.35c0 9.704-7.867 17.57-17.572 17.57-9.704 0-17.571-7.867-17.571-17.57 0-9.706 7.867-17.572 17.57-17.572 9.706 0 17.573 7.866 17.573 17.572z" stroke="#33475C" stroke-linecap="round" stroke-linejoin="round"/>
        <path d="M110.156 233.409c0 2.577-2.089 4.666-4.665 4.666-2.577 0-4.666-2.089-4.666-4.666 0-2.576 2.09-4.665 4.666-4.665 2.576 0 4.665 2.089 4.665 4.665" fill="#F6C364"/>
        <path d="M110.156 233.409c0 2.577-2.089 4.666-4.665 4.666-2.577 0-4.666-2.089-4.666-4.666 0-2.576 2.09-4.665 4.666-4.665 2.576 0 4.665 2.089 4.665 4.665z" stroke="#33475C" stroke-linecap="round" stroke-linejoin="round"/>
        <path d="M120.75 220.558c0 3.627-6.831 6.566-15.26 6.566-8.426 0-15.258-2.94-15.258-6.566 0-3.627 6.832-6.567 15.259-6.567 8.428 0 15.26 2.94 15.26 6.566" fill="#FF8F52"/>
        <path d="M120.75 220.558c0 3.627-6.831 6.566-15.26 6.566-8.426 0-15.258-2.94-15.258-6.566 0-3.627 6.832-6.567 15.259-6.567 8.428 0 15.26 2.94 15.26 6.566z" stroke="#33475C" stroke-linecap="round" stroke-linejoin="round"/>
        <path d="M62.888 82.165c0 2.199 1.558 4.898 3.462 5.999l15.54 8.972 19.344 11.168c.952.549 2.208.825 3.464.825v-39.62L63.906 45.957c-.628 1.088-1.018 2.312-1.018 3.413v32.795z" fill="#7CD1DF"/>
        <path d="M62.888 82.165c0 2.199 1.558 4.898 3.462 5.999l15.54 8.972 19.344 11.168c.952.549 2.208.825 3.464.825v-39.62L63.906 45.957c-.628 1.088-1.018 2.312-1.018 3.413v32.795z" stroke="#33475C" stroke-linecap="round" stroke-linejoin="round"/>
        <path d="M67.299 61.564c.285 1.805 1.072 3.792 2.231 5.464 1.162 1.671 2.694 2.993 4.11 3.454 2.132.695 3.697-.589 4.5-2.468M89.444 74.35c.286 1.805 1.072 3.793 2.233 5.464 1.16 1.672 2.693 2.993 4.108 3.455 2.132.694 3.697-.59 4.501-2.469M73.47 82.983c1.065 2.064 2.616 3.84 4.208 5.24 3.85 3.385 8.154 4.793 11.241 3.678" stroke="#33475C" stroke-linecap="round" stroke-linejoin="round"/>
        <path d="M79.211 75.232c-1.327-.073-2.46.546-2.91 1.886-.45 1.341-.128 3.437.942 5.195.394.648.87 1.23 1.365 1.751 1.61 1.692 3.512 2.798 5.051 2.752 1.54-.046 2.641-1.327 2.625-3.345-.033-4.147-4.228-8.08-7.073-8.239" fill="#F6C364"/>
        <path d="M79.211 75.232c-1.327-.073-2.46.546-2.91 1.886-.45 1.341-.128 3.437.942 5.195.394.648.87 1.23 1.365 1.751 1.61 1.692 3.512 2.798 5.051 2.752 1.54-.046 2.641-1.327 2.625-3.345-.033-4.147-4.228-8.08-7.073-8.239z" stroke="#33475C" stroke-linecap="round" stroke-linejoin="round"/>
        <path d="M104.697 109.129c1.256 0 2.512-.275 3.464-.825l34.882-20.14c1.905-1.098 3.464-3.8 3.464-6V49.37c0-1.1-.39-2.325-1.018-3.413l-40.792 23.552v39.62z" fill="#40BBCE"/>
        <path d="M104.697 109.129c1.256 0 2.512-.275 3.464-.825l34.882-20.14c1.905-1.098 3.464-3.8 3.464-6V49.37c0-1.1-.39-2.325-1.018-3.413l-40.792 23.552v39.62z" stroke="#33475C" stroke-linecap="round" stroke-linejoin="round"/>
        <path d="M143.043 43.37L108.16 23.23c-1.905-1.099-5.022-1.099-6.928 0L66.352 43.37c-.953.55-1.82 1.5-2.447 2.587l40.792 23.552 40.793-23.552c-.628-1.087-1.494-2.037-2.447-2.587" fill="#BFE7EE"/>
        <path d="M143.043 43.37L108.16 23.23c-1.905-1.099-5.022-1.099-6.928 0L66.352 43.37c-.953.55-1.82 1.5-2.447 2.587l40.792 23.552 40.793-23.552c-.628-1.087-1.494-2.037-2.447-2.587z" stroke="#33475C" stroke-linecap="round" stroke-linejoin="round"/>
        <path d="M104.698 48.361c-1.053 0-2.074-.556-2.62-1.543-.217-.39-5.266-9.678-2.192-19.646 1.946-6.314 6.63-11.376 13.918-15.048 1.48-.745 3.284-.15 4.03 1.33.744 1.48.15 3.283-1.33 4.03-5.756 2.898-9.413 6.735-10.869 11.407-2.339 7.5 1.654 14.952 1.695 15.027.791 1.451.263 3.274-1.186 4.07-.459.253-.956.373-1.446.373" fill="#FF8F52"/>
        <path d="M104.698 48.361c-1.053 0-2.074-.556-2.62-1.543-.217-.39-5.266-9.678-2.192-19.646 1.946-6.314 6.63-11.376 13.918-15.048 1.48-.745 3.284-.15 4.03 1.33.744 1.48.15 3.283-1.33 4.03-5.756 2.898-9.413 6.735-10.869 11.407-2.339 7.5 1.654 14.952 1.695 15.027.791 1.451.263 3.274-1.186 4.07-.459.253-.956.373-1.446.373z" stroke="#33475C" stroke-linecap="round" stroke-linejoin="round"/>
        <path d="M124.063 12.953c0 5.772-4.68 10.452-10.452 10.452-5.773 0-10.453-4.68-10.453-10.452s4.68-10.452 10.453-10.452c5.772 0 10.452 4.68 10.452 10.452" fill="#F6C364"/>
        <path d="M124.063 12.953c0 5.772-4.68 10.452-10.452 10.452-5.773 0-10.453-4.68-10.453-10.452s4.68-10.452 10.453-10.452c5.772 0 10.452 4.68 10.452 10.452z" stroke="#33475C" stroke-linecap="round" stroke-linejoin="round"/>
        <path d="M126.516 89.926c.304.176.7.16 1.131-.09l8.661-5c.952-.55 1.731-2.04 1.731-3.308v-9.381c0-.696-.233-1.187-.6-1.4-.304-.175-.7-.16-1.131.09l-8.661 5c-.953.55-1.732 2.039-1.732 3.31v9.38c0 .696.233 1.187.601 1.399" fill="#FF8F52"/>
        <path d="M126.516 89.926c.304.176.7.16 1.131-.09l8.661-5c.952-.55 1.731-2.04 1.731-3.308v-9.381c0-.696-.233-1.187-.6-1.4-.304-.175-.7-.16-1.131.09l-8.661 5c-.953.55-1.732 2.039-1.732 3.31v9.38c0 .696.233 1.187.601 1.399z" stroke="#33475C" stroke-linecap="round" stroke-linejoin="round"/>
        <path d="M125.915 88.527v-9.38c0-1.27.78-2.76 1.732-3.31l8.661-5c.431-.249.827-.265 1.131-.089l-5.196-3c-.305-.175-.7-.16-1.132.09l-8.66 5c-.953.55-1.732 2.038-1.732 3.308v9.381c0 .695.234 1.187.601 1.398l5.196 3c-.368-.21-.601-.703-.601-1.398" fill="#FF9B7E"/>
        <path d="M125.915 88.527v-9.38c0-1.27.78-2.76 1.732-3.31l8.661-5c.431-.249.827-.265 1.131-.089l-5.196-3c-.305-.175-.7-.16-1.132.09l-8.66 5c-.953.55-1.732 2.038-1.732 3.308v9.381c0 .695.234 1.187.601 1.398l5.196 3c-.368-.21-.601-.703-.601-1.398z" stroke="#33475C" stroke-linecap="round" stroke-linejoin="round"/>
        <path d="M83.412 190.52c-.422 9.345-.543 20.704-.36 30.057 9.41-6.492 18.967-12.767 28.666-18.819.507-7.05.037-13.886-.748-20.913-.082-.747-.236-1.596-.88-1.987-.556-.339-1.27-.196-1.9-.03-9.422 2.457-17.93 4.77-24.778 11.692" fill="#CBD6E3"/>
        <path d="M83.412 190.52c-.422 9.345-.543 20.704-.36 30.057 9.41-6.492 18.967-12.767 28.666-18.819.507-7.05.037-13.886-.748-20.913-.082-.747-.236-1.596-.88-1.987-.556-.339-1.27-.196-1.9-.03-9.422 2.457-17.93 4.77-24.778 11.692z" stroke="#33475C" stroke-linecap="round" stroke-linejoin="round"/>
        <path d="M87.713 194.198c-8.872 0-18.828-3.17-29.76-9.493-10.928-6.32-19.206-13.764-19.553-14.077-5.12-4.63-5.517-12.535-.887-17.656 4.63-5.122 12.534-5.518 17.654-.889 9.855 8.857 28.264 19.85 35.739 16.52 12.564-5.595 26.147-25.709 29.914-32.314 3.422-5.995 11.055-8.086 17.052-4.664 5.996 3.42 8.084 11.053 4.664 17.051-1.901 3.334-19.224 32.863-41.46 42.765-4.127 1.838-8.59 2.757-13.362 2.757" fill="#7CD1DF"/>
        <path d="M87.713 194.198c-8.872 0-18.828-3.17-29.76-9.493-10.928-6.32-19.206-13.764-19.553-14.077-5.12-4.63-5.517-12.535-.887-17.656 4.63-5.122 12.534-5.518 17.654-.889 9.855 8.857 28.264 19.85 35.739 16.52 12.564-5.595 26.147-25.709 29.914-32.314 3.422-5.995 11.055-8.086 17.052-4.664 5.996 3.42 8.084 11.053 4.664 17.051-1.901 3.334-19.224 32.863-41.46 42.765-4.127 1.838-8.59 2.757-13.362 2.757z" stroke="#33475C" stroke-linecap="round" stroke-linejoin="round"/>
        <path d="M15.334 181.168c-17.113-9.88-17.113-26.047 0-35.927 17.112-9.88 45.115-9.88 62.227 0 17.113 9.88 17.113 26.047 0 35.927-17.112 9.88-45.115 9.88-62.227 0" fill="#CBD6E3"/>
        <path d="M15.334 181.168c-17.113-9.88-17.113-26.047 0-35.927 17.112-9.88 45.115-9.88 62.227 0 17.113 9.88 17.113 26.047 0 35.927-17.112 9.88-45.115 9.88-62.227 0z" stroke="#33475C" stroke-linecap="round" stroke-linejoin="round"/>
        <path d="M22.377 177.101c-13.239-7.644-13.239-20.15 0-27.795 13.24-7.643 34.903-7.643 48.142 0 13.24 7.644 13.24 20.151 0 27.795-13.239 7.644-34.903 7.644-48.142 0" fill="#E4EAEF"/>
        <path d="M22.377 177.101c-13.239-7.644-13.239-20.15 0-27.795 13.24-7.643 34.903-7.643 48.142 0 13.24 7.644 13.24 20.151 0 27.795-13.239 7.644-34.903 7.644-48.142 0z" stroke="#33475C" stroke-linecap="round" stroke-linejoin="round"/>
        <path d="M144.523 158.017c-.79-4.647-2.66-9.242-6.052-12.513-5.533-5.335-14.927-6.053-21.208-1.623-1.232.869-2.335 1.898-3.423 2.945l.002-.001c-5.038 6.854-11.874 14.83-18.762 19.43h-.002c2.567-.428 5.588.773 7.288 2.9 2.474 3.095 2.882 7.317 3.043 11.276.582 14.327-.77 28.731-4.01 42.698 15.054-9.232 29.034-20.105 42.655-31.343l.853-19.666c.204-4.708.406-9.458-.384-14.103" fill="#EAF0F6"/>
        <path d="M144.523 158.017c-.79-4.647-2.66-9.242-6.052-12.513-5.533-5.335-14.927-6.053-21.208-1.623-1.232.869-2.335 1.898-3.423 2.945l.002-.001c-5.038 6.854-11.874 14.83-18.762 19.43h-.002c2.567-.428 5.588.773 7.288 2.9 2.474 3.095 2.882 7.317 3.043 11.276.582 14.327-.77 28.731-4.01 42.698 15.054-9.232 29.034-20.105 42.655-31.343l.853-19.666c.204-4.708.406-9.458-.384-14.103zM92.222 167.968c.137.193.265.393.383.59 2.628 4.387 3.524 9.78 2.455 14.782-.886 4.144-3.112 7.982-6.234 10.842M76.686 192.713c.964-.877 1.785-1.97 2.445-3.08 2.117-3.565 3.254-7.691 3.333-11.835" stroke="#33475C" stroke-linecap="round" stroke-linejoin="round"/>
        <path d="M10.619 140.145c-.014 3.058.75 6.075 1.825 8.938.678 1.805 1.53 3.291 2.887 4.958.898 1.103 2.728 2.731 4.232 3.473l6.529 3.221c1.447 4.258 3.947 8.147 7.376 11.043.376.317 1 .582 1.343.341.062-.043.115-.104.155-.184.099-.195.059-.43.019-.644-.382-2.078-.461-4.203-.278-6.305l7.502 3.7.594.293c.45.165.798.133 1.063 0l3.179-1.589c.048-.024.094-.05.137-.08.319-.226.498-.603.594-.898.567-2.294 1.343-7.292 1.342-9.609-.001-3.464-.69-7.372-2.157-10.549-1.146-2.484-4.548-3.757-6.787-5.096-3.281-1.962-6.607-3.85-9.975-5.659-3.875-2.082-7.806-4.06-11.787-5.933-.357-.168-.754-.339-1.135-.234-.057.015-.111.037-.163.063l-3.18 1.59c-.046.022-.092.051-.136.082-.181.127-.331.306-.468.483-1.862 2.425-2.698 5.537-2.711 8.595" fill="#FCE9C6"/>
        <path d="M10.619 140.145c-.014 3.058.75 6.075 1.825 8.938.678 1.805 1.53 3.291 2.887 4.958.898 1.103 2.728 2.731 4.232 3.473l6.529 3.221c1.447 4.258 3.947 8.147 7.376 11.043.376.317 1 .582 1.343.341.062-.043.115-.104.155-.184.099-.195.059-.43.019-.644-.382-2.078-.461-4.203-.278-6.305l7.502 3.7.594.293c.45.165.798.133 1.063 0l3.179-1.589c.048-.024.094-.05.137-.08.319-.226.498-.603.594-.898.567-2.294 1.343-7.292 1.342-9.609-.001-3.464-.69-7.372-2.157-10.549-1.146-2.484-4.548-3.757-6.787-5.096-3.281-1.962-6.607-3.85-9.975-5.659-3.875-2.082-7.806-4.06-11.787-5.933-.357-.168-.754-.339-1.135-.234-.057.015-.111.037-.163.063l-3.18 1.59c-.046.022-.092.051-.136.082-.181.127-.331.306-.468.483-1.862 2.425-2.698 5.537-2.711 8.595z" stroke="#33475C" stroke-linecap="round" stroke-linejoin="round"/>
        <path d="M17.114 129.395c.052-.026.106-.048.163-.063.38-.105.778.066 1.135.234 3.98 1.873 7.912 3.851 11.787 5.933 3.368 1.81 6.695 3.697 9.976 5.66 2.238 1.338 5.64 2.611 6.786 5.095 1.467 3.177 2.156 7.085 2.157 10.55 0 2.316-.775 7.314-1.342 9.608-.096.295-.275.672-.594.897-.043.03-.09.057-.137.081l-3.18 1.59c.05-.024.095-.052.138-.082.32-.225.499-.602.594-.898.083-.334.17-.73.259-1.165.519-2.535 1.085-6.464 1.084-8.443-.002-3.464-.691-7.372-2.157-10.549-1.147-2.483-4.55-3.757-6.787-5.095-3.281-1.963-6.607-3.85-9.975-5.66-3.752-2.015-7.558-3.928-11.408-5.748-.127-.06-.252-.125-.38-.184-.357-.169-.753-.34-1.134-.236-.057.017-.111.037-.163.064l3.178-1.589z" fill="#F6C364"/>
        <path d="M33.161 146.549c-5.363-3.122-10.903-5.94-16.584-8.437M40.355 150.987c-1.406-.918-2.827-1.815-4.26-2.69M20.606 145.51c-1.542-.728-3.095-1.432-4.66-2.11M41.017 156.984c-5.244-3.46-10.687-6.62-16.292-9.46M30.267 156.028c-4.06-2.255-8.216-4.338-12.453-6.24M40.578 162.258c-2.38-1.561-4.801-3.06-7.26-4.493" stroke="#F6C364" stroke-width="2" stroke-linecap="round" stroke-linejoin="round"/>
        <path d="M10.619 140.145c-.014 3.058.75 6.075 1.825 8.938.678 1.805 1.53 3.291 2.887 4.958.898 1.103 2.728 2.731 4.232 3.473l6.529 3.221c1.447 4.258 3.947 8.147 7.376 11.043.376.317 1 .582 1.343.341.062-.043.115-.104.155-.184.099-.195.059-.43.019-.644-.382-2.078-.461-4.203-.278-6.305l7.502 3.7.594.293c.45.165.798.133 1.063 0l3.179-1.589c.048-.024.094-.05.137-.08.319-.226.498-.603.594-.898.567-2.294 1.343-7.292 1.342-9.609-.001-3.464-.69-7.372-2.157-10.549-1.146-2.484-4.548-3.757-6.787-5.096-3.281-1.962-6.607-3.85-9.975-5.659-3.875-2.082-7.806-4.06-11.787-5.933-.357-.168-.754-.339-1.135-.234-.057.015-.111.037-.163.063l-3.18 1.59c-.046.022-.092.051-.136.082-.181.127-.331.306-.468.483-1.862 2.425-2.698 5.537-2.711 8.595z" stroke="#33475C" stroke-linecap="round" stroke-linejoin="round"/>
        <path d="M35.555 120.155c.497-1.459 1.37-2.775 2.452-3.873l.063-.064 2.452-2.45c3.563-3.564 8.97-4.77 14.053-4.176 4.253.497 7.667 1.338 11.656 3.725 4.327 2.591 8.482 5.903 11.139 10.171 1.865 2.995 2.789 6.646 2.724 9.248-.108 4.335-1.37 7.18-3.21 9.02l-2.451 2.451c-2.497 2.497-6.06 3.138-9.236 3.138-1.566 0-4.971-.643-7.397-1.425-.768 2.865-1.61 5.712-2.554 8.524-.324.963-1.16 2.15-2.065 1.688-.425-.218-.602-.723-.74-1.18-1.222-4.104-2.276-8.255-3.177-12.44-2.067-1.039-4.046-2.235-5.861-3.672-4.205-3.332-7.516-8.05-8.24-13.368-.24-1.777-.186-3.62.392-5.317" fill="#FFE2D4"/>
        <path d="M35.555 120.155c.497-1.459 1.37-2.775 2.452-3.873l.063-.064 2.452-2.45c3.563-3.564 8.97-4.77 14.053-4.176 4.253.497 7.667 1.338 11.656 3.725 4.327 2.591 8.482 5.903 11.139 10.171 1.865 2.995 2.789 6.646 2.724 9.248-.108 4.335-1.37 7.18-3.21 9.02l-2.451 2.451c-2.497 2.497-6.06 3.138-9.236 3.138-1.566 0-4.971-.643-7.397-1.425-.768 2.865-1.61 5.712-2.554 8.524-.324.963-1.16 2.15-2.065 1.688-.425-.218-.602-.723-.74-1.18-1.222-4.104-2.276-8.255-3.177-12.44-2.067-1.039-4.046-2.235-5.861-3.672-4.205-3.332-7.516-8.05-8.24-13.368-.24-1.777-.186-3.62.392-5.317z" stroke="#33475C" stroke-linecap="round" stroke-linejoin="round"/>
        <path d="M35.555 120.155c.497-1.459 1.37-2.775 2.452-3.873l.063-.064c3.563-3.562 8.97-4.769 14.053-4.175 4.253.497 7.667 1.34 11.656 3.726 4.327 2.59 8.482 5.903 11.14 10.17 1.865 2.996 2.788 6.647 2.723 9.25-.108 4.334-1.37 7.18-3.21 9.018-2.496 2.497-6.058 3.138-9.235 3.138-1.566 0-4.971-.643-7.397-1.425-.768 2.865-1.61 5.712-2.554 8.524-.324.963-1.16 2.15-2.065 1.688-.425-.218-.602-.723-.74-1.18-1.222-4.104-2.276-8.255-3.177-12.44-2.067-1.039-4.046-2.235-5.861-3.672-4.205-3.332-7.516-8.05-8.24-13.368-.24-1.777-.186-3.62.392-5.317" fill="#FFE2D4"/>
        <path d="M69.507 135.708c.426.343-.038 1.107-.586 1.115-.547.009-.994-.413-1.375-.805l-2.839-2.93c-.564-.583-1.602-1.144-2.054-.47-.156.236-.163.558-.36.76-.381.397-1.034.019-1.437-.357l-2.387-2.228c-.471-.44-.966-.894-1.585-1.074-.62-.181-1.397.007-1.68.586-.083.17-.132.378-.297.47-.162.09-.366.029-.532-.053-.873-.427-1.433-1.292-1.927-2.13-.493-.836-.996-1.721-1.816-2.241-.821-.521-2.067-.517-2.623.28-.125.18-.231.406-.441.467-.204.058-.41-.068-.58-.195-1.074-.812-1.903-1.945-2.352-3.216M67.115 127.498c.139.325.232.67.274 1.02-.38.243-.866-.031-1.221-.306-1.1-.856-2.122-1.81-3.052-2.847-.602-.673-1.478-1.454-2.28-1.036l.007 1.583c-1.633-.05-2.671-1.68-3.798-2.862-.376-.393-.847-.774-1.39-.751-.544.023-1.033.692-.702 1.124-1.867-1.201-3.477-2.801-4.692-4.66M46.773 133.032c-.144-.323-.24-.667-.288-1.019.376-.246.867.022 1.225.292 1.111.841 2.146 1.782 3.09 2.806.611.665 1.497 1.434 2.292 1.005l-.027-1.582c1.634.028 2.693 1.644 3.837 2.81.38.39.857.764 1.4.733.543-.03 1.023-.705.686-1.133 1.883 1.177 3.514 2.754 4.753 4.597" stroke="#FFA472" stroke-width="2" stroke-linecap="round" stroke-linejoin="round"/>
        <path d="M74.918 125.94c-2.657-4.269-6.812-7.58-11.14-10.17-3.988-2.389-7.402-3.23-11.656-3.727-5.082-.594-10.49.613-14.053 4.175l2.452-2.45c3.563-3.564 8.97-4.77 14.053-4.177 4.253.497 7.667 1.34 11.656 3.726 4.327 2.591 8.482 5.903 11.14 10.171 1.865 2.995 2.788 6.645 2.723 9.248-.108 4.335-1.37 7.18-3.209 9.018l-2.452 2.453c1.84-1.839 3.101-4.684 3.21-9.019.064-2.603-.859-6.253-2.724-9.249" fill="#FFA472"/>
        <path d="M35.555 120.155c.497-1.459 1.37-2.775 2.452-3.873l.063-.064 2.452-2.45c3.563-3.564 8.97-4.77 14.053-4.176 4.253.497 7.667 1.338 11.656 3.725 4.327 2.591 8.482 5.903 11.139 10.171 1.865 2.995 2.789 6.646 2.724 9.248-.108 4.335-1.37 7.18-3.21 9.02l-2.451 2.451c-2.497 2.497-6.06 3.138-9.236 3.138-1.566 0-4.971-.643-7.397-1.425-.768 2.865-1.61 5.712-2.554 8.524-.324.963-1.16 2.15-2.065 1.688-.425-.218-.602-.723-.74-1.18-1.222-4.104-2.276-8.255-3.177-12.44-2.067-1.039-4.046-2.235-5.861-3.672-4.205-3.332-7.516-8.05-8.24-13.368-.24-1.777-.186-3.62.392-5.317z" stroke="#33475C" stroke-linecap="round" stroke-linejoin="round"/>
        <path d="M65.053 174.584c-.576 0-1.125-.181-1.588-.523l-2.783-2.051-3.27 1.13c-.275.097-.571.148-.872.148-.136 0-.271-.011-.405-.031-.56-.084-1.071-.34-1.476-.741-.73-.721-.981-1.773-.658-2.745l1.09-3.284-2.084-2.76c-.62-.817-.717-1.894-.257-2.811.456-.91 1.372-1.475 2.39-1.475l3.477.024 1.98-2.837c.5-.716 1.32-1.144 2.192-1.144.134 0 .269.01.403.032 1.014.154 1.836.857 2.147 1.834l1.047 3.296 3.309 1.008c.98.297 1.693 1.112 1.86 2.123.166 1.012-.247 2.01-1.08 2.609l-2.813 2.014.065 3.458c.019 1.025-.534 1.955-1.444 2.426-.378.196-.803.3-1.23.3z" fill="#F9D28C"/>
        <path d="M62.79 153.984c-1.363 0-2.642.668-3.423 1.784l-1.529 2.191-2.67-.018c-1.616 0-3.045.881-3.758 2.301-.719 1.43-.566 3.113.4 4.39l1.609 2.13-.842 2.535c-.504 1.521-.109 3.164 1.03 4.288.625.62 1.424 1.02 2.303 1.155.207.031.42.048.63.048.467 0 .928-.078 1.37-.232l2.517-.87 2.15 1.583c.721.532 1.578.815 2.476.815.666 0 1.33-.163 1.921-.469 1.416-.733 2.281-2.182 2.253-3.78l-.051-2.675 2.171-1.555c1.301-.932 1.948-2.492 1.688-4.072-.261-1.58-1.374-2.85-2.906-3.316l-2.553-.776-.808-2.546c-.484-1.524-1.768-2.622-3.35-2.863-.209-.032-.42-.048-.628-.048m0 3c.059 0 .117.005.176.014.442.067.807.38.943.805l1.285 4.048 4.064 1.237c.428.13.744.492.817.933.072.441-.112.885-.475 1.145l-3.453 2.473.081 4.247c.007.448-.238.86-.636 1.066-.17.09-.355.132-.539.132-.246 0-.491-.079-.697-.23l-3.42-2.52-4.013 1.388c-.126.044-.255.066-.383.066-.06 0-.119-.005-.178-.014-.24-.036-.468-.147-.648-.325-.319-.315-.43-.78-.29-1.206l1.34-4.03-2.561-3.389c-.269-.358-.313-.836-.113-1.236.2-.397.606-.647 1.05-.647h.008l4.247.028 2.432-3.483c.221-.316.583-.502.963-.502M117.084 6.088c.142 1.217-1.628 2.423-3.955 2.694-2.326.272-4.326-.494-4.47-1.71-.141-1.215 1.63-2.421 3.956-2.694 2.326-.271 4.327.494 4.469 1.71" fill="#FFF"/>
    </g>
</svg>
