<svg viewBox="0 0 177 206" xmlns="http://www.w3.org/2000/svg">
    <g fill="none" fill-rule="evenodd">
        <path d="M103.19 204.282L4.008 146.965c-4.458-2.576-3.893-7.117 1.254-10.092l51.084-29.521c5.148-2.974 13.007-3.301 17.464-.725l99.183 57.318c4.459 2.576 3.895 7.117-1.254 10.091l-51.084 29.522c-5.147 2.975-13.005 3.3-17.463.724" fill-opacity=".5" fill="#F9D28C"/>
        <path d="M53.764 64.437V29.261v35.176z" fill="#FFF"/>
        <path d="M53.764 29.261v.88" stroke="#33475C" stroke-linecap="round" stroke-linejoin="round"/>
        <path d="M53.764 33.658v29.02" stroke="#33475C" stroke-linecap="round" stroke-linejoin="round" stroke-dasharray="1.982,2.973,0,0"/>
        <path d="M53.764 62.678v.88" stroke="#33475C" stroke-linecap="round" stroke-linejoin="round"/>
        <path d="M102.13 52.126V16.95v35.176z" fill="#FFF"/>
        <path d="M102.13 16.95v.88" stroke="#33475C" stroke-linecap="round" stroke-linejoin="round"/>
        <path d="M102.13 21.347v29.02" stroke="#33475C" stroke-linecap="round" stroke-linejoin="round" stroke-dasharray="1.982,2.973,0,0"/>
        <path d="M102.13 50.367v.88" stroke="#33475C" stroke-linecap="round" stroke-linejoin="round"/>
        <path d="M145.221 108.407V73.231v35.176z" fill="#FFF"/>
        <path d="M145.221 73.231v.88" stroke="#33475C" stroke-linecap="round" stroke-linejoin="round"/>
        <path d="M145.221 77.628v29.02" stroke="#33475C" stroke-linecap="round" stroke-linejoin="round" stroke-dasharray="1.982,2.973,0,0"/>
        <path d="M145.221 106.648v.88" stroke="#33475C" stroke-linecap="round" stroke-linejoin="round"/>
        <path d="M145.53 59.818c3.87 0 7.036 3.166 7.036 7.035 0 3.87-3.166 7.035-7.035 7.035-3.87 0-7.036-3.165-7.036-7.035s3.166-7.035 7.036-7.035zM145.53 62.868v4.753M147.858 69.795l-2.327-2.174" stroke="#33475C" stroke-width="5" stroke-linecap="round" stroke-linejoin="round"/>
        <path d="M145.53 59.818c3.87 0 7.036 3.166 7.036 7.035 0 3.87-3.166 7.035-7.035 7.035-3.87 0-7.036-3.165-7.036-7.035s3.166-7.035 7.036-7.035" fill="#FFF"/>
        <path d="M145.53 59.818c3.87 0 7.036 3.166 7.036 7.035 0 3.87-3.166 7.035-7.035 7.035-3.87 0-7.036-3.165-7.036-7.035s3.166-7.035 7.036-7.035z" stroke="#33475C" stroke-linecap="round" stroke-linejoin="round"/>
        <path d="M145.53 62.868v4.753M147.858 69.795l-2.327-2.174" stroke="#F55257" stroke-linecap="round" stroke-linejoin="round"/>
        <path d="M102.218 2.815c-3.869 0-7.035 3.166-7.035 7.035 0 3.87 3.166 7.036 7.035 7.036 3.87 0 7.036-3.166 7.036-7.036 0-3.869-3.166-7.035-7.036-7.035zM102.218 5.867v4.75M105.546 10.618h-3.328" stroke="#33475C" stroke-width="5" stroke-linecap="round" stroke-linejoin="round"/>
        <path d="M102.218 2.815c-3.869 0-7.035 3.166-7.035 7.035 0 3.87 3.166 7.036 7.035 7.036 3.87 0 7.036-3.166 7.036-7.036 0-3.869-3.166-7.035-7.036-7.035" fill="#FFF"/>
        <path d="M102.218 2.815c-3.869 0-7.035 3.166-7.035 7.035 0 3.87 3.166 7.036 7.035 7.036 3.87 0 7.036-3.166 7.036-7.036 0-3.869-3.166-7.035-7.036-7.035z" stroke="#33475C" stroke-linecap="round" stroke-linejoin="round"/>
        <path d="M102.218 5.867v4.75M105.546 10.618h-3.328" stroke="#F55257" stroke-linecap="round" stroke-linejoin="round"/>
        <path d="M54.255 16.53c-3.691 0-6.713 3.02-6.713 6.712 0 3.692 3.022 6.713 6.713 6.713 3.692 0 6.712-3.02 6.712-6.713 0-3.692-3.02-6.713-6.712-6.713zM53.924 19.154v4.533M57.137 22.037l-3.213 1.65" stroke="#33475C" stroke-width="5" stroke-linecap="round" stroke-linejoin="round"/>
        <path d="M54.255 16.53c-3.691 0-6.713 3.02-6.713 6.712 0 3.692 3.022 6.713 6.713 6.713 3.692 0 6.712-3.02 6.712-6.713 0-3.692-3.02-6.713-6.712-6.713" fill="#FFF"/>
        <path d="M54.255 16.53c-3.691 0-6.713 3.02-6.713 6.712 0 3.692 3.022 6.713 6.713 6.713 3.692 0 6.712-3.02 6.712-6.713 0-3.692-3.02-6.713-6.712-6.713z" stroke="#33475C" stroke-linecap="round" stroke-linejoin="round"/>
        <path d="M53.924 19.154v4.533M57.137 22.037l-3.213 1.65" stroke="#F55257" stroke-linecap="round" stroke-linejoin="round"/>
        <path stroke="#33475C" stroke-width="5" stroke-linecap="round" stroke-linejoin="round" d="M142.028 92.9l23.127 38.027-39.249-28.686z"/>
        <path stroke="#33475C" stroke-width="5" stroke-linecap="round" stroke-linejoin="round" d="M165.155 130.927l-48.332-23.173-17.839 9.68z"/>
        <path stroke="#33475C" stroke-width="5" stroke-linecap="round" stroke-linejoin="round" d="M125.906 102.24l39.25 28.687-39.25-18.818zM122.775 169.343c1.45-9.745-3.65-15.864-8.347-18.464l-.258-.149-21.66-11.717-76.295-44.05c-7.108-4.103-12.87.253-12.87 9.73s5.762 15.1 12.87 19.203v.001l76.295 44.05 12.023 6.94c8.438 4.873 16.792 4.2 18.242-5.544z"/>
        <path d="M174.255 139.781c1.45-9.745-3.908-15.752-8.604-18.351l.256-.114-.256-.148-21.662-11.718L67.694 65.4c-7.108-4.103-12.87.254-12.87 9.73 0 9.477 5.762 15.1 12.87 19.204l76.295 44.05 12.023 6.942c8.438 4.87 16.792 4.2 18.243-5.545zM8.731 104.692c0 6.073 3.044 10.422 10.178 14.54l76.294 44.05 15.327 8.354c3.944 2.277 7.172.412 7.172-4.142 0-4.555-3.228-10.146-7.172-12.423l-20.583-11.32c-.043-.025-.087-.048-.13-.074l-73.726-42.741" stroke="#33475C" stroke-width="5" stroke-linecap="round" stroke-linejoin="round"/>
        <path d="M67.694 64.832l76.295 44.049v28.933L67.694 93.765c-7.108-4.103-12.87-9.727-12.87-19.203 0-9.478 5.762-13.834 12.87-9.73zM59.874 63.857L8.296 94.029" stroke="#33475C" stroke-width="5" stroke-linecap="round" stroke-linejoin="round"/>
        <path d="M59.793 63.905c2.182-1.01 4.92-.795 7.901.927l70.881 40.923c-.636 1.235-1.115 2.688-1.22 4.377-.024.222-.037.455-.038.697l-.225 53.135-22.922-13.234-21.66-11.717-76.295-44.05c-2.987-1.723-5.728-1.937-7.913-.923l-.006-.01 51.497-30.125z" stroke="#33475C" stroke-width="5" stroke-linecap="round" stroke-linejoin="round"/>
        <path stroke="#33475C" stroke-width="5" stroke-linecap="round" stroke-linejoin="round" d="M102.859 85.134L51.023 115.06l-17.106-9.876 51.834-29.926zM85.238 134.814l-17.107-9.877 51.835-29.926 17.106 9.877zM84.08 148.468c0-2.038 1.444-2.872 3.208-1.853 1.766 1.019 3.21 3.521 3.21 5.559 0 2.038-1.444 2.871-3.21 1.853-1.764-1.02-3.209-3.522-3.209-5.56zM56.457 132.652c0-4.555 3.227-6.42 7.173-4.141 3.944 2.277 7.17 7.868 7.17 12.422 0 4.555-3.226 6.42-7.17 4.142-3.946-2.278-7.173-7.867-7.173-12.423z"/>
        <path d="M89.947 143.75l9.187 4.97-9.473 5.469-.01-.02c.52-.359.847-1.038.847-1.994 0-2.04-1.444-4.54-3.21-5.56-.776-.448-1.482-.52-2.038-.305l-.012-.021 4.55-2.628.029.016.13.073zM64.381 128.991l16.026 9.254.364.498-11.843 6.837-.066-.13c1.199-.791 1.94-2.342 1.94-4.516 0-4.261-2.826-9.429-6.421-11.943z" stroke="#33475C" stroke-width="5" stroke-linecap="round" stroke-linejoin="round"/>
        <path d="M89.789 143.66l-4.55 2.628.01.021c-.708.272-1.17 1.018-1.17 2.159 0 1.39.679 2.985 1.666 4.188l-19.103-21.625-2.26-2.04 25.407 14.67zM109.297 154.484l-20.333-.044 10.17-5.72zM102.859 85.134L51.023 115.06l17.108 9.877 51.835-29.926zM102.687 144.493l51.906-29.969-17.52-9.637-51.665 29.828zM174.255 139.781c.941-6.323-.99-11.061-3.74-14.328l-.179.033-51.06 29.517c2.712 3.264 4.432 8.073 3.5 14.34-.531 3.566-1.993 5.905-4.038 7.213l51.12-29.335-.006-.01c2.236-1.258 3.84-3.655 4.403-7.43z" stroke="#33475C" stroke-width="5" stroke-linecap="round" stroke-linejoin="round"/>
        <path d="M114.428 150.88c1.671.923 3.388 2.303 4.847 4.124l51.06-29.518c-1.365-1.745-3.136-3.748-5.458-5.165-2.518-1.539-10.284-5.796-10.284-5.796l-51.907 29.969.236.15 11.248 6.086.258.15zM85.752 75.258l-51.834 29.925-17.108-9.875L68.646 65.38zM103.358 159.213c0-4.556 3.227-6.42 7.172-4.142 3.945 2.277 7.173 7.868 7.173 12.422 0 4.555-3.228 6.42-7.173 4.143-3.945-2.279-7.172-7.868-7.172-12.423z" stroke="#33475C" stroke-width="5" stroke-linecap="round" stroke-linejoin="round"/>
        <path d="M67.694 64.832c-2.982-1.722-5.72-1.937-7.902-.929L8.296 94.03l.007.01c2.183-1.013 4.925-.8 7.912.925l.596.343 51.834-29.926-.95-.549zM16.58 101.106l23.16 25.584 22.24.85z" stroke="#33475C" stroke-width="5" stroke-linecap="round" stroke-linejoin="round"/>
        <path d="M42.061 127.007l-.055-.096c.582-.337.943-1.054.943-2.074 0-2.038-1.444-4.54-3.208-5.56-.857-.494-1.635-.544-2.212-.24l-.01-.016 4.797-2.77 9.186 5.305-9.44 5.451z" stroke="#33475C" stroke-width="5" stroke-linecap="round" stroke-linejoin="round"/>
        <path d="M36.53 121.132c0-2.038 1.445-2.873 3.21-1.854 1.766 1.02 3.209 3.521 3.209 5.56 0 2.037-1.443 2.87-3.21 1.852-1.764-1.02-3.208-3.52-3.208-5.558zM8.296 104.502c0-4.555 3.227-6.418 7.172-4.14 3.945 2.277 7.171 7.868 7.171 12.422s-3.226 6.418-7.17 4.141c-3.946-2.278-7.173-7.867-7.173-12.423zM91.52 84.68L50.73 108.208l28.877 16.674 40.792-23.528zM144.557 111.358c-.668-1.097-2.117-1.465-3.232-.823l-13.118 7.598c-.247.141-.47.333-.654.557l-.027.034-.068.09-.089.131c-.129.209-.225.439-.285.677l-.071.153v4.666l-3.985-1.91c-.689-.326-1.5-.303-2.16.06l-14.519 7.878c-.877.476-1.368 1.458-1.22 2.45.147.985.904 1.783 1.883 1.983l34.769 7.092 15.84-9.158-13.064-21.478zM77.14 76.379l-9.43-5.445-41.079 23.612 9.43 5.445z" stroke="#33475C" stroke-width="5" stroke-linecap="round" stroke-linejoin="round"/>
        <path stroke="#33475C" stroke-width="5" stroke-linecap="round" stroke-linejoin="round" d="M142.028 92.9l23.127 38.027-39.249-28.686z"/>
        <path stroke="#33475C" stroke-width="5" stroke-linecap="round" stroke-linejoin="round" d="M165.155 130.927l-48.332-23.173-17.839 9.68z"/>
        <path stroke="#33475C" stroke-width="5" stroke-linecap="round" stroke-linejoin="round" d="M125.906 102.24l39.25 28.687-39.25-18.818zM125.211 49.503l-21.367-11.24c-.863-.454-2.276.362-3.138 1.812L79.34 75.987l-.518 26.31 46.908-29.055-.518-23.739z"/>
        <path d="M125.211 49.502c-.012-.008-.026-.01-.039-.02l.04.021zM79.377 75.925l-.038.061v.002l.038-.063zM79.34 75.987l21.366 11.24c.863.454 2.276-.362 3.137-1.812l21.367-35.912-45.87 26.484z" stroke="#33475C" stroke-width="5" stroke-linecap="round" stroke-linejoin="round"/>
        <path d="M81.04 112.018l42.47-24.52c.67-.386 1.266-1.07 1.674-1.827l-.06-.115-21.367-11.24c-.863-.455-2.275.36-3.138 1.811l-21.365 35.911c.403.377 1.053.404 1.786-.02z" stroke="#33475C" stroke-width="5" stroke-linecap="round" stroke-linejoin="round"/>
        <path d="M79.253 112.038l.009.005-.007-.009-.002.004z" stroke="#33475C" stroke-width="5" stroke-linecap="round" stroke-linejoin="round"/>
        <path d="M79.342 75.988c-.32.608-.522 1.257-.522 1.848v33.015c0 .538.165.937.435 1.183l16.356-27.487-16.269-8.559zM79.261 112.042c.094.085.2.15.317.197-.116-.046-.223-.112-.317-.197zM125.208 49.508l-16.355 27.488 16.27 8.559.061.116c.336-.623.545-1.296.545-1.902V50.753c0-.59-.2-1.008-.521-1.245z" stroke="#33475C" stroke-width="5" stroke-linecap="round" stroke-linejoin="round"/>
        <path stroke="#33475C" stroke-width="5" stroke-linecap="round" stroke-linejoin="round" d="M118.933 81.393l-33.315 19.234V54.18l33.315-19.235zM88.895 67.539L116.4 51.514M88.895 71.156l16.684-9.632M100.082 76.775L88.981 83.13M98.298 80.974l-9.317 5.334M100.082 83.13l-11.101 6.355M97.035 88.051l-8.055 4.612"/>
        <path d="M114.95 64.47L89.957 78.9c-.536.31-.975.056-.975-.563v-2.805c0-.62.44-1.38.975-1.69l24.995-14.43c.537-.31.975-.056.975.563v2.805c0 .619-.438 1.378-.975 1.69zM85.618 54.179v11.976l33.315-19.234V34.944z" stroke="#33475C" stroke-width="5" stroke-linecap="round" stroke-linejoin="round"/>
        <path d="M102.866 52.107c1.306-.754 2.374-2.605 2.374-4.113 0-1.508-1.068-2.125-2.374-1.37-1.306.753-2.374 2.605-2.374 4.113 0 1.507 1.068 2.125 2.374 1.37" stroke="#33475C" stroke-width="5" stroke-linecap="round" stroke-linejoin="round"/>
        <path d="M101.73 54.449c1.04-.602 1.892-2.077 1.892-3.277 0-1.202-.851-1.693-1.891-1.093-1.042.6-1.893 2.075-1.893 3.277s.851 1.694 1.893 1.093" stroke="#33475C" stroke-width="5" stroke-linecap="round" stroke-linejoin="round"/>
        <path stroke="#33475C" stroke-width="5" stroke-linecap="round" stroke-linejoin="round" d="M118.933 81.393l-33.315 19.234V54.18l33.315-19.235zM116.007 67.581l-8.176 4.666M114.221 71.78l-6.39 3.643M116.007 73.936l-8.176 4.666M112.96 78.858l-5.129 2.92"/>
        <path d="M81.04 112.018l42.47-24.52c.67-.386 1.266-1.07 1.674-1.827l-.06-.115-21.367-11.24c-.863-.455-2.275.36-3.138 1.811l-21.365 35.911c.403.377 1.053.404 1.786-.02z" stroke="#33475C" stroke-width="5" stroke-linecap="round" stroke-linejoin="round"/>
        <path d="M79.342 75.988c-.32.608-.522 1.257-.522 1.848v33.015c0 .538.165.937.435 1.183l16.356-27.487-16.269-8.559zM125.208 49.508l-16.355 27.488 16.27 8.559.061.116c.336-.623.545-1.296.545-1.902V50.753c0-.59-.2-1.008-.521-1.245zM73.816 72.842L37.04 94.074c-1.058.61-1.922.156-1.922-1.01v-28.59c0-1.166.864-2.619 1.922-3.23l36.777-21.233c1.057-.61 1.922-.156 1.922 1.01v28.59c0 1.166-.865 2.62-1.922 3.23z" stroke="#33475C" stroke-width="5" stroke-linecap="round" stroke-linejoin="round"/>
        <path d="M73.816 40.01L37.04 61.245c-.594.343-1.12.954-1.473 1.628l18.502 9.734c.747.393 1.97-.314 2.718-1.569L75.29 39.938c-.353-.267-.88-.27-1.473.073z" stroke="#33475C" stroke-width="5" stroke-linecap="round" stroke-linejoin="round"/>
        <path d="M61.199 63.62l-4.412 7.417c-.748 1.255-1.971 1.962-2.718 1.569l-4.413-2.322-14.165 23.807c.35.326.912.35 1.548-.016l36.777-21.233c.636-.367 1.198-1.04 1.548-1.771L61.2 63.62zM141.67 142.057s6.517 1.17 11.949 6.663c.709.719 1.93 1.207 4.018-.434 0 0 5.327-5.27.175-15.136l-16.141 8.907z" stroke="#33475C" stroke-width="5" stroke-linecap="round" stroke-linejoin="round"/>
        <path fill="#FFF" d="M142.028 92.9l23.127 38.027-39.249-28.686z"/>
        <path stroke="#33475C" stroke-linecap="round" stroke-linejoin="round" d="M142.028 92.9l23.127 38.027-39.249-28.686z"/>
        <path fill="#FFF" d="M165.155 130.927l-48.332-23.173-17.839 9.68z"/>
        <path stroke="#33475C" stroke-linecap="round" stroke-linejoin="round" d="M165.155 130.927l-48.332-23.173-17.839 9.68z"/>
        <path fill="#9DB2C9" d="M125.906 102.24l39.25 28.687-39.25-18.818z"/>
        <path stroke="#33475C" stroke-linecap="round" stroke-linejoin="round" d="M125.906 102.24l39.25 28.687-39.25-18.818z"/>
        <path d="M122.775 169.343c1.45-9.745-3.65-15.864-8.347-18.464l-.258-.149-21.66-11.717-76.295-44.05c-7.108-4.103-12.87.253-12.87 9.73s5.762 15.1 12.87 19.203v.001l76.295 44.05 12.023 6.94c8.438 4.873 16.792 4.2 18.242-5.544" fill="#CBD6E3"/>
        <path d="M122.775 169.343c1.45-9.745-3.65-15.864-8.347-18.464l-.258-.149-21.66-11.717-76.295-44.05c-7.108-4.103-12.87.253-12.87 9.73s5.762 15.1 12.87 19.203v.001l76.295 44.05 12.023 6.94c8.438 4.873 16.792 4.2 18.242-5.544z" stroke="#33475C" stroke-linecap="round" stroke-linejoin="round"/>
        <path d="M174.255 139.781c1.45-9.745-3.908-15.752-8.604-18.351l.256-.114-.256-.148-21.662-11.718L67.694 65.4c-7.108-4.103-12.87.254-12.87 9.73 0 9.477 5.762 15.1 12.87 19.204l76.295 44.05 12.023 6.942c8.438 4.87 16.792 4.2 18.243-5.545" fill="#CBD6E3"/>
        <path d="M174.255 139.781c1.45-9.745-3.908-15.752-8.604-18.351l.256-.114-.256-.148-21.662-11.718L67.694 65.4c-7.108-4.103-12.87.254-12.87 9.73 0 9.477 5.762 15.1 12.87 19.204l76.295 44.05 12.023 6.942c8.438 4.87 16.792 4.2 18.243-5.545z" stroke="#33475C" stroke-linecap="round" stroke-linejoin="round"/>
        <path d="M8.731 104.692c0 6.073 3.044 10.422 10.178 14.54l76.294 44.05 15.327 8.354c3.944 2.277 7.172.412 7.172-4.142 0-4.555-3.228-10.146-7.172-12.423l-20.583-11.32c-.043-.025-.087-.048-.13-.074l-73.726-42.741" fill="#CBD6E3"/>
        <path d="M8.731 104.692c0 6.073 3.044 10.422 10.178 14.54l76.294 44.05 15.327 8.354c3.944 2.277 7.172.412 7.172-4.142 0-4.555-3.228-10.146-7.172-12.423l-20.583-11.32c-.043-.025-.087-.048-.13-.074l-73.726-42.741" stroke="#33475C" stroke-linecap="round" stroke-linejoin="round"/>
        <path d="M67.694 64.832l76.295 44.049v28.933L67.694 93.765c-7.108-4.103-12.87-9.727-12.87-19.203 0-9.478 5.762-13.834 12.87-9.73" fill="#FFF"/>
        <path d="M67.694 64.832l76.295 44.049v28.933L67.694 93.765c-7.108-4.103-12.87-9.727-12.87-19.203 0-9.478 5.762-13.834 12.87-9.73z" stroke="#33475C" stroke-linecap="round" stroke-linejoin="round"/>
        <path d="M59.874 63.857L8.296 94.029" fill="#FFF"/>
        <path d="M59.874 63.857L8.296 94.029" stroke="#33475C" stroke-linecap="round" stroke-linejoin="round"/>
        <path d="M59.793 63.905c2.182-1.01 4.92-.795 7.901.927l70.881 40.923c-.636 1.235-1.115 2.688-1.22 4.377-.024.222-.037.455-.038.697l-.225 53.135-22.922-13.234-21.66-11.717-76.295-44.05c-2.987-1.723-5.728-1.937-7.913-.923l-.006-.01 51.497-30.125z" fill="#FFF"/>
        <path d="M59.793 63.905c2.182-1.01 4.92-.795 7.901.927l70.881 40.923c-.636 1.235-1.115 2.688-1.22 4.377-.024.222-.037.455-.038.697l-.225 53.135-22.922-13.234-21.66-11.717-76.295-44.05c-2.987-1.723-5.728-1.937-7.913-.923l-.006-.01 51.497-30.125z" stroke="#33475C" stroke-linecap="round" stroke-linejoin="round"/>
        <path fill="#E4EAEF" d="M102.859 85.134L51.023 115.06l-17.106-9.876 51.834-29.926z"/>
        <path stroke="#33475C" stroke-linecap="round" stroke-linejoin="round" d="M102.859 85.134L51.023 115.06l-17.106-9.876 51.834-29.926z"/>
        <path fill="#E4EAEF" d="M85.238 134.814l-17.107-9.877 51.835-29.926 17.106 9.877z"/>
        <path stroke="#33475C" stroke-linecap="round" stroke-linejoin="round" d="M85.238 134.814l-17.107-9.877 51.835-29.926 17.106 9.877z"/>
        <path d="M84.08 148.468c0-2.038 1.444-2.872 3.208-1.853 1.766 1.019 3.21 3.521 3.21 5.559 0 2.038-1.444 2.871-3.21 1.853-1.764-1.02-3.209-3.522-3.209-5.56" fill="#9DB2C9"/>
        <path d="M84.08 148.468c0-2.038 1.444-2.872 3.208-1.853 1.766 1.019 3.21 3.521 3.21 5.559 0 2.038-1.444 2.871-3.21 1.853-1.764-1.02-3.209-3.522-3.209-5.56z" stroke="#33475C" stroke-linecap="round" stroke-linejoin="round"/>
        <path d="M56.457 132.652c0-4.555 3.227-6.42 7.173-4.141 3.944 2.277 7.17 7.868 7.17 12.422 0 4.555-3.226 6.42-7.17 4.142-3.946-2.278-7.173-7.867-7.173-12.423" fill="#9DB2C9"/>
        <path d="M56.457 132.652c0-4.555 3.227-6.42 7.173-4.141 3.944 2.277 7.17 7.868 7.17 12.422 0 4.555-3.226 6.42-7.17 4.142-3.946-2.278-7.173-7.867-7.173-12.423z" stroke="#33475C" stroke-linecap="round" stroke-linejoin="round"/>
        <path d="M89.947 143.75l9.187 4.97-9.473 5.469-.01-.02c.52-.359.847-1.038.847-1.994 0-2.04-1.444-4.54-3.21-5.56-.776-.448-1.482-.52-2.038-.305l-.012-.021 4.55-2.628.029.016.13.073" fill="#CBD6E3"/>
        <path d="M89.947 143.75l9.187 4.97-9.473 5.469-.01-.02c.52-.359.847-1.038.847-1.994 0-2.04-1.444-4.54-3.21-5.56-.776-.448-1.482-.52-2.038-.305l-.012-.021 4.55-2.628.029.016.13.073z" stroke="#33475C" stroke-linecap="round" stroke-linejoin="round"/>
        <path d="M64.381 128.991l16.026 9.254.364.498-11.843 6.837-.066-.13c1.199-.791 1.94-2.342 1.94-4.516 0-4.261-2.826-9.429-6.421-11.943" fill="#CBD6E3"/>
        <path d="M64.381 128.991l16.026 9.254.364.498-11.843 6.837-.066-.13c1.199-.791 1.94-2.342 1.94-4.516 0-4.261-2.826-9.429-6.421-11.943z" stroke="#33475C" stroke-linecap="round" stroke-linejoin="round"/>
        <path d="M89.789 143.66l-4.55 2.628.01.021c-.708.272-1.17 1.018-1.17 2.159 0 1.39.679 2.985 1.666 4.188l-19.103-21.625-2.26-2.04 25.407 14.67z" fill="#E4EAEF"/>
        <path d="M89.789 143.66l-4.55 2.628.01.021c-.708.272-1.17 1.018-1.17 2.159 0 1.39.679 2.985 1.666 4.188l-19.103-21.625-2.26-2.04 25.407 14.67z" stroke="#33475C" stroke-linecap="round" stroke-linejoin="round"/>
        <path fill="#E4EAEF" d="M109.297 154.484l-20.333-.044 10.17-5.72z"/>
        <path stroke="#33475C" stroke-linecap="round" stroke-linejoin="round" d="M109.297 154.484l-20.333-.044 10.17-5.72z"/>
        <path fill="#E4EAEF" d="M102.859 85.134L51.023 115.06l17.108 9.877 51.835-29.926z"/>
        <path stroke="#33475C" stroke-linecap="round" stroke-linejoin="round" d="M102.859 85.134L51.023 115.06l17.108 9.877 51.835-29.926z"/>
        <path fill="#E4EAEF" d="M102.687 144.493l51.906-29.969-17.52-9.637-51.665 29.828z"/>
        <path stroke="#33475C" stroke-linecap="round" stroke-linejoin="round" d="M102.687 144.493l51.906-29.969-17.52-9.637-51.665 29.828z"/>
        <path d="M174.255 139.781c.941-6.323-.99-11.061-3.74-14.328l-.179.033-51.06 29.517c2.712 3.264 4.432 8.073 3.5 14.34-.531 3.566-1.993 5.905-4.038 7.213l51.12-29.335-.006-.01c2.236-1.258 3.84-3.655 4.403-7.43" fill="#E4EAEF"/>
        <path d="M174.255 139.781c.941-6.323-.99-11.061-3.74-14.328l-.179.033-51.06 29.517c2.712 3.264 4.432 8.073 3.5 14.34-.531 3.566-1.993 5.905-4.038 7.213l51.12-29.335-.006-.01c2.236-1.258 3.84-3.655 4.403-7.43z" stroke="#33475C" stroke-linecap="round" stroke-linejoin="round"/>
        <path d="M114.428 150.88c1.671.923 3.388 2.303 4.847 4.124l51.06-29.518c-1.365-1.745-3.136-3.748-5.458-5.165-2.518-1.539-10.284-5.796-10.284-5.796l-51.907 29.969.236.15 11.248 6.086.258.15z" fill="#E4EAEF"/>
        <path d="M114.428 150.88c1.671.923 3.388 2.303 4.847 4.124l51.06-29.518c-1.365-1.745-3.136-3.748-5.458-5.165-2.518-1.539-10.284-5.796-10.284-5.796l-51.907 29.969.236.15 11.248 6.086.258.15z" stroke="#33475C" stroke-linecap="round" stroke-linejoin="round"/>
        <path fill="#E4EAEF" d="M85.752 75.258l-51.834 29.925-17.108-9.875L68.646 65.38z"/>
        <path stroke="#33475C" stroke-linecap="round" stroke-linejoin="round" d="M85.752 75.258l-51.834 29.925-17.108-9.875L68.646 65.38z"/>
        <path d="M103.358 159.213c0-4.556 3.227-6.42 7.172-4.142 3.945 2.277 7.173 7.868 7.173 12.422 0 4.555-3.228 6.42-7.173 4.143-3.945-2.279-7.172-7.868-7.172-12.423" fill="#9DB2C9"/>
        <path d="M103.358 159.213c0-4.556 3.227-6.42 7.172-4.142 3.945 2.277 7.173 7.868 7.173 12.422 0 4.555-3.228 6.42-7.173 4.143-3.945-2.279-7.172-7.868-7.172-12.423z" stroke="#33475C" stroke-linecap="round" stroke-linejoin="round"/>
        <path d="M67.694 64.832c-2.982-1.722-5.72-1.937-7.902-.929L8.296 94.03l.007.01c2.183-1.013 4.925-.8 7.912.925l.596.343 51.834-29.926-.95-.549z" fill="#E4EAEF"/>
        <path d="M67.694 64.832c-2.982-1.722-5.72-1.937-7.902-.929L8.296 94.03l.007.01c2.183-1.013 4.925-.8 7.912.925l.596.343 51.834-29.926-.95-.549z" stroke="#33475C" stroke-linecap="round" stroke-linejoin="round"/>
        <path fill="#E4EAEF" d="M16.58 101.106l23.16 25.584 22.24.85z"/>
        <path stroke="#33475C" stroke-linecap="round" stroke-linejoin="round" d="M16.58 101.106l23.16 25.584 22.24.85z"/>
        <path d="M42.061 127.007l-.055-.096c.582-.337.943-1.054.943-2.074 0-2.038-1.444-4.54-3.208-5.56-.857-.494-1.635-.544-2.212-.24l-.01-.016 4.797-2.77 9.186 5.305-9.44 5.451z" fill="#CBD6E3"/>
        <path d="M42.061 127.007l-.055-.096c.582-.337.943-1.054.943-2.074 0-2.038-1.444-4.54-3.208-5.56-.857-.494-1.635-.544-2.212-.24l-.01-.016 4.797-2.77 9.186 5.305-9.44 5.451z" stroke="#33475C" stroke-linecap="round" stroke-linejoin="round"/>
        <path d="M36.53 121.132c0-2.038 1.445-2.873 3.21-1.854 1.766 1.02 3.209 3.521 3.209 5.56 0 2.037-1.443 2.87-3.21 1.852-1.764-1.02-3.208-3.52-3.208-5.558" fill="#9DB2C9"/>
        <path d="M36.53 121.132c0-2.038 1.445-2.873 3.21-1.854 1.766 1.02 3.209 3.521 3.209 5.56 0 2.037-1.443 2.87-3.21 1.852-1.764-1.02-3.208-3.52-3.208-5.558z" stroke="#33475C" stroke-linecap="round" stroke-linejoin="round"/>
        <path d="M8.296 104.502c0-4.555 3.227-6.418 7.172-4.14 3.945 2.277 7.171 7.868 7.171 12.422s-3.226 6.418-7.17 4.141c-3.946-2.278-7.173-7.867-7.173-12.423" fill="#9DB2C9"/>
        <path d="M8.296 104.502c0-4.555 3.227-6.418 7.172-4.14 3.945 2.277 7.171 7.868 7.171 12.422s-3.226 6.418-7.17 4.141c-3.946-2.278-7.173-7.867-7.173-12.423z" stroke="#33475C" stroke-linecap="round" stroke-linejoin="round"/>
        <path fill-opacity=".1" fill="#33475C" d="M91.52 84.68L50.73 108.208l28.877 16.674 40.792-23.528zM144.557 111.358c-.668-1.097-2.117-1.465-3.232-.823l-13.118 7.598c-.247.141-.47.333-.654.557l-.027.034-.068.09-.089.131c-.129.209-.225.439-.285.677l-.071.153v4.666l-3.985-1.91c-.689-.326-1.5-.303-2.16.06l-14.519 7.878c-.877.476-1.368 1.458-1.22 2.45.147.985.904 1.783 1.883 1.983l34.769 7.092 15.84-9.158-13.064-21.478zM77.14 76.379l-9.43-5.445-41.079 23.612 9.43 5.445z"/>
        <path fill="#FFF" d="M142.028 92.9l23.127 38.027-39.249-28.686z"/>
        <path stroke="#33475C" stroke-linecap="round" stroke-linejoin="round" d="M142.028 92.9l23.127 38.027-39.249-28.686z"/>
        <path fill="#FFF" d="M165.155 130.927l-48.332-23.173-17.839 9.68z"/>
        <path stroke="#33475C" stroke-linecap="round" stroke-linejoin="round" d="M165.155 130.927l-48.332-23.173-17.839 9.68z"/>
        <path fill="#9DB2C9" d="M125.906 102.24l39.25 28.687-39.25-18.818z"/>
        <path stroke="#33475C" stroke-linecap="round" stroke-linejoin="round" d="M125.906 102.24l39.25 28.687-39.25-18.818z"/>
        <path d="M125.211 49.503l-21.367-11.24c-.863-.454-2.276.362-3.138 1.812L79.34 75.987l-.518 26.31 46.908-29.055-.518-23.739z" fill="#FFF"/>
        <path d="M125.211 49.503l-21.367-11.24c-.863-.454-2.276.362-3.138 1.812L79.34 75.987l-.518 26.31 46.908-29.055-.518-23.739z" stroke="#33475C" stroke-linecap="round" stroke-linejoin="round"/>
        <path d="M125.211 49.502c-.012-.008-.026-.01-.039-.02l.04.021z" fill="#FFF"/>
        <path d="M125.211 49.502c-.012-.008-.026-.01-.039-.02l.04.021z" stroke="#33475C" stroke-linecap="round" stroke-linejoin="round"/>
        <path d="M79.377 75.925l-.038.061v.002l.038-.063z" fill="#FFF"/>
        <path d="M79.377 75.925l-.038.061v.002l.038-.063z" stroke="#33475C" stroke-linecap="round" stroke-linejoin="round"/>
        <path d="M79.34 75.987l21.366 11.24c.863.454 2.276-.362 3.137-1.812l21.367-35.912-45.87 26.484z" fill="#EAF0F6"/>
        <path d="M81.04 112.018l42.47-24.52c.67-.386 1.266-1.07 1.674-1.827l-.06-.115-21.367-11.24c-.863-.455-2.275.36-3.138 1.811l-21.365 35.911c.403.377 1.053.404 1.786-.02" fill="#D4E7F7"/>
        <path d="M81.04 112.018l42.47-24.52c.67-.386 1.266-1.07 1.674-1.827l-.06-.115-21.367-11.24c-.863-.455-2.275.36-3.138 1.811l-21.365 35.911c.403.377 1.053.404 1.786-.02z" stroke="#33475C" stroke-linecap="round" stroke-linejoin="round"/>
        <path d="M79.253 112.038l.009.005-.007-.009-.002.004z" fill="#E6EFF6"/>
        <path d="M79.253 112.038l.009.005-.007-.009-.002.004z" stroke="#33475C" stroke-linecap="round" stroke-linejoin="round"/>
        <path d="M79.342 75.988c-.32.608-.522 1.257-.522 1.848v33.015c0 .538.165.937.435 1.183l16.356-27.487-16.269-8.559z" fill="#E6EFF6"/>
        <path d="M79.342 75.988c-.32.608-.522 1.257-.522 1.848v33.015c0 .538.165.937.435 1.183l16.356-27.487-16.269-8.559z" stroke="#33475C" stroke-linecap="round" stroke-linejoin="round"/>
        <path d="M79.261 112.042c.094.085.2.15.317.197-.116-.046-.223-.112-.317-.197" fill="#E6EFF6"/>
        <path d="M79.261 112.042c.094.085.2.15.317.197-.116-.046-.223-.112-.317-.197z" stroke="#33475C" stroke-linecap="round" stroke-linejoin="round"/>
        <path d="M125.208 49.508l-16.355 27.488 16.27 8.559.061.116c.336-.623.545-1.296.545-1.902V50.753c0-.59-.2-1.008-.521-1.245" fill="#E6EFF6"/>
        <path d="M125.208 49.508l-16.355 27.488 16.27 8.559.061.116c.336-.623.545-1.296.545-1.902V50.753c0-.59-.2-1.008-.521-1.245z" stroke="#33475C" stroke-linecap="round" stroke-linejoin="round"/>
        <path fill="#FFF" d="M118.933 81.393l-33.315 19.234V54.18l33.315-19.235z"/>
        <path stroke="#33475C" stroke-linecap="round" stroke-linejoin="round" d="M118.933 81.393l-33.315 19.234V54.18l33.315-19.235z"/>
        <path d="M88.895 67.539L116.4 51.514" fill="#33475C"/>
        <path d="M88.895 67.539L116.4 51.514" stroke="#EAF0F6" stroke-linecap="round" stroke-linejoin="round"/>
        <path d="M88.895 71.156l16.684-9.632" fill="#33475C"/>
        <path d="M88.895 71.156l16.684-9.632" stroke="#EAF0F6" stroke-linecap="round" stroke-linejoin="round"/>
        <path d="M100.082 76.775L88.981 83.13" fill="#33475C"/>
        <path d="M100.082 76.775L88.981 83.13" stroke="#EAF0F6" stroke-linecap="round" stroke-linejoin="round"/>
        <path d="M98.298 80.974l-9.317 5.334" fill="#33475C"/>
        <path d="M98.298 80.974l-9.317 5.334" stroke="#EAF0F6" stroke-linecap="round" stroke-linejoin="round"/>
        <path d="M100.082 83.13l-11.101 6.355" fill="#33475C"/>
        <path d="M100.082 83.13l-11.101 6.355" stroke="#EAF0F6" stroke-linecap="round" stroke-linejoin="round"/>
        <path d="M97.035 88.051l-8.055 4.612" fill="#33475C"/>
        <path d="M97.035 88.051l-8.055 4.612" stroke="#EAF0F6" stroke-linecap="round" stroke-linejoin="round"/>
        <path d="M114.95 64.47L89.957 78.9c-.536.31-.975.056-.975-.563v-2.805c0-.62.44-1.38.975-1.69l24.995-14.43c.537-.31.975-.056.975.563v2.805c0 .619-.438 1.378-.975 1.69" fill="#EDF8FA"/>
        <path fill="#E5F5F8" d="M85.618 54.179v11.976l33.315-19.234V34.944z"/>
        <path d="M102.866 52.107c1.306-.754 2.374-2.605 2.374-4.113 0-1.508-1.068-2.125-2.374-1.37-1.306.753-2.374 2.605-2.374 4.113 0 1.507 1.068 2.125 2.374 1.37" fill-opacity=".5" fill="#00A4BF"/>
        <path d="M101.73 54.449c1.04-.602 1.892-2.077 1.892-3.277 0-1.202-.851-1.693-1.891-1.093-1.042.6-1.893 2.075-1.893 3.277s.851 1.694 1.893 1.093" fill-opacity=".5" fill="#FF8F52"/>
        <path stroke="#33475C" stroke-linecap="round" stroke-linejoin="round" d="M118.933 81.393l-33.315 19.234V54.18l33.315-19.235z"/>
        <path d="M116.007 67.581l-8.176 4.666" fill="#33475C"/>
        <path d="M116.007 67.581l-8.176 4.666" stroke="#EAF0F6" stroke-linecap="round" stroke-linejoin="round"/>
        <path d="M114.221 71.78l-6.39 3.643" fill="#33475C"/>
        <path d="M114.221 71.78l-6.39 3.643" stroke="#EAF0F6" stroke-linecap="round" stroke-linejoin="round"/>
        <path d="M116.007 73.936l-8.176 4.666" fill="#33475C"/>
        <path d="M116.007 73.936l-8.176 4.666" stroke="#EAF0F6" stroke-linecap="round" stroke-linejoin="round"/>
        <path d="M112.96 78.858l-5.129 2.92" fill="#33475C"/>
        <path d="M112.96 78.858l-5.129 2.92" stroke="#EAF0F6" stroke-linecap="round" stroke-linejoin="round"/>
        <path d="M81.04 112.018l42.47-24.52c.67-.386 1.266-1.07 1.674-1.827l-.06-.115-21.367-11.24c-.863-.455-2.275.36-3.138 1.811l-21.365 35.911c.403.377 1.053.404 1.786-.02" fill="#D4E7F7"/>
        <path d="M81.04 112.018l42.47-24.52c.67-.386 1.266-1.07 1.674-1.827l-.06-.115-21.367-11.24c-.863-.455-2.275.36-3.138 1.811l-21.365 35.911c.403.377 1.053.404 1.786-.02z" stroke="#33475C" stroke-linecap="round" stroke-linejoin="round"/>
        <path d="M79.342 75.988c-.32.608-.522 1.257-.522 1.848v33.015c0 .538.165.937.435 1.183l16.356-27.487-16.269-8.559z" fill="#E6EFF6"/>
        <path d="M79.342 75.988c-.32.608-.522 1.257-.522 1.848v33.015c0 .538.165.937.435 1.183l16.356-27.487-16.269-8.559z" stroke="#33475C" stroke-linecap="round" stroke-linejoin="round"/>
        <path d="M125.208 49.508l-16.355 27.488 16.27 8.559.061.116c.336-.623.545-1.296.545-1.902V50.753c0-.59-.2-1.008-.521-1.245" fill="#E6EFF6"/>
        <path d="M125.208 49.508l-16.355 27.488 16.27 8.559.061.116c.336-.623.545-1.296.545-1.902V50.753c0-.59-.2-1.008-.521-1.245z" stroke="#33475C" stroke-linecap="round" stroke-linejoin="round"/>
        <path d="M73.816 72.842L37.04 94.074c-1.058.61-1.922.156-1.922-1.01v-28.59c0-1.166.864-2.619 1.922-3.23l36.777-21.233c1.057-.61 1.922-.156 1.922 1.01v28.59c0 1.166-.865 2.62-1.922 3.23" fill="#E6EFF6"/>
        <path d="M73.816 72.842L37.04 94.074c-1.058.61-1.922.156-1.922-1.01v-28.59c0-1.166.864-2.619 1.922-3.23l36.777-21.233c1.057-.61 1.922-.156 1.922 1.01v28.59c0 1.166-.865 2.62-1.922 3.23z" stroke="#33475C"/>
        <path d="M73.816 40.01L37.04 61.245c-.594.343-1.12.954-1.473 1.628l18.502 9.734c.747.393 1.97-.314 2.718-1.569L75.29 39.938c-.353-.267-.88-.27-1.473.073" fill="#FFF"/>
        <path d="M73.816 40.01L37.04 61.245c-.594.343-1.12.954-1.473 1.628l18.502 9.734c.747.393 1.97-.314 2.718-1.569L75.29 39.938c-.353-.267-.88-.27-1.473.073z" stroke="#33475C"/>
        <path d="M61.199 63.62l-4.412 7.417c-.748 1.255-1.971 1.962-2.718 1.569l-4.413-2.322-14.165 23.807c.35.326.912.35 1.548-.016l36.777-21.233c.636-.367 1.198-1.04 1.548-1.771L61.2 63.62z" fill="#D4E7F7"/>
        <path d="M61.199 63.62l-4.412 7.417c-.748 1.255-1.971 1.962-2.718 1.569l-4.413-2.322-14.165 23.807c.35.326.912.35 1.548-.016l36.777-21.233c.636-.367 1.198-1.04 1.548-1.771L61.2 63.62z" stroke="#33475C"/>
        <path d="M141.67 142.057s6.517 1.17 11.949 6.663c.709.719 1.93 1.207 4.018-.434 0 0 5.327-5.27.175-15.136l-16.141 8.907z" fill-opacity=".1" fill="#33475C"/>
    </g>
</svg>
