<svg viewBox="0 0 124 157" xmlns="http://www.w3.org/2000/svg" xmlns:xlink="http://www.w3.org/1999/xlink">
    <defs>
        <path id="a" d="M7.28.67v7.064H.218V.67H7.28z"/>
    </defs>
    <g fill="none" fill-rule="evenodd">
        <path d="M71.926 95.28c-1.906-1.102-5.025-1.102-6.931 0l-49.906 28.812c-1.906 1.101-1.896 2.885.02 3.964l49.863 28.064c1.919 1.079 5.058 1.079 6.975 0l49.864-28.064c1.918-1.079 1.928-2.863.02-3.964L71.927 95.28z" fill="#7BDED2" opacity=".5"/>
        <path d="M41.2 68.096s1.615 4.233-.012 6.4c0 0 4.256 1.387 7.25-2.214 0 0-3.198-1.291-3.508-5.822l-3.73 1.636z" stroke="#33475C" stroke-width="5" stroke-linecap="round" stroke-linejoin="round"/>
        <path d="M55.703 52.332c1.254 9.223-5.206 17.716-14.43 18.97-9.223 1.255-17.717-5.206-18.97-14.43-1.254-9.222 5.206-17.717 14.43-18.97 9.223-1.254 17.716 5.207 18.97 14.43z" stroke="#33475C" stroke-width="5" stroke-linecap="round" stroke-linejoin="round"/>
        <path d="M42.916 43.06c1.681 2.9-.34 7.214-4.515 9.635-4.176 2.42-8.923 2.03-10.605-.87-1.682-2.9.34-7.213 4.516-9.634 4.175-2.42 8.923-2.031 10.604.87z" stroke="#33475C" stroke-width="5" stroke-linecap="round" stroke-linejoin="round"/>
        <path d="M28.49 46.42c.862.318 1.19 1.581.733 2.823-.456 1.24-1.525 1.988-2.387 1.67-.863-.317-1.19-1.58-.734-2.82.457-1.24 1.526-1.99 2.388-1.672zM38.56 42.731c.54 1.66-.957 3.634-3.346 4.41-2.388.779-4.761.064-5.3-1.595-.541-1.66.957-3.635 3.345-4.411 2.389-.777 4.762-.062 5.302 1.596zM68.456 138.925c-2.518 0-4.902-1.212-6.38-3.285l-21.613-29.613c-2.517-3.522-1.7-8.42 1.825-10.936 3.52-2.516 8.42-1.704 10.94 1.824l13.936 18.865L94.91 58.586c1.89-3.894 6.583-5.515 10.479-3.632 3.896 1.892 5.522 6.58 3.632 10.48l-33.509 69.072c-1.206 2.49-3.637 4.159-6.394 4.39-.22.019-.443.029-.662.029z" stroke="#33475C" stroke-width="5" stroke-linecap="round" stroke-linejoin="round"/>
        <path d="M93.497 48.573v-.001.001c-3.896-1.885-8.588-.262-10.478 3.632l-24.9 51.327v.003l9.046 12.246L94.91 58.587c1.89-3.897 6.583-5.517 10.48-3.633l-11.893-6.38zM62.076 135.64l-21.612-29.612c-2.517-3.523-1.7-8.422 1.824-10.939 2.388-1.705 5.396-1.847 7.88-.682l-.018-.045-11.566-6.22-.007.03c-2.536-1.324-5.695-1.24-8.18.535-3.525 2.517-4.342 7.416-1.824 10.94l21.611 29.61c.736 1.032 1.697 1.85 2.785 2.411l11.896 6.385c-1.091-.563-2.052-1.38-2.789-2.413z" stroke="#33475C" stroke-width="5" stroke-linecap="round" stroke-linejoin="round"/>
        <path d="M62.076 135.64l-21.612-29.612c-2.517-3.523-1.7-8.422 1.824-10.939 2.388-1.705 5.396-1.847 7.88-.682l-.018-.045-11.566-6.22-.007.03c-2.536-1.324-5.695-1.24-8.18.535-3.525 2.517-4.342 7.416-1.824 10.94l21.611 29.61c.736 1.032 1.697 1.85 2.785 2.411l11.896 6.385c-1.091-.563-2.052-1.38-2.789-2.413zM66.944 80.112s.489 4.504-1.635 6.187c0 0 3.764 2.421 7.574-.3 0 0-2.765-2.061-1.915-6.523l-4.024.636z" stroke="#33475C" stroke-width="5" stroke-linecap="round" stroke-linejoin="round"/>
        <path d="M84.666 64.296c1.175 9.233-5.355 17.673-14.59 18.848-9.233 1.176-17.671-5.355-18.848-14.59-1.176-9.233 5.356-17.671 14.59-18.848 9.233-1.176 17.672 5.357 18.848 14.59z" stroke="#33475C" stroke-width="5" stroke-linecap="round" stroke-linejoin="round"/>
        <path d="M71.932 55.281c1.657 2.914-.4 7.21-4.597 9.596-4.195 2.386-8.94 1.956-10.597-.958-1.656-2.915.402-7.211 4.597-9.596 4.195-2.386 8.94-1.956 10.597.958z" stroke="#33475C" stroke-width="5" stroke-linecap="round" stroke-linejoin="round"/>
        <path d="M68.266 55.257c.652 1.816-.938 4.049-3.552 4.988-2.615.939-5.262.228-5.914-1.588-.653-1.816.938-4.05 3.552-4.989 2.614-.938 5.263-.227 5.914 1.589z" stroke="#33475C" stroke-width="5" stroke-linecap="round" stroke-linejoin="round"/>
        <path d="M41.2 68.096s1.615 4.233-.012 6.4c0 0 4.256 1.387 7.25-2.214 0 0-3.198-1.291-3.508-5.822l-3.73 1.636z" fill="#8E98DF"/>
        <path d="M41.2 68.096s1.615 4.233-.012 6.4c0 0 4.256 1.387 7.25-2.214 0 0-3.198-1.291-3.508-5.822l-3.73 1.636z" stroke="#33475C" stroke-linecap="round" stroke-linejoin="round"/>
        <path d="M55.703 52.332c1.254 9.223-5.206 17.716-14.43 18.97-9.223 1.255-17.717-5.206-18.97-14.43-1.254-9.222 5.206-17.717 14.43-18.97 9.223-1.254 17.716 5.207 18.97 14.43" fill="#8E98DF"/>
        <path d="M55.703 52.332c1.254 9.223-5.206 17.716-14.43 18.97-9.223 1.255-17.717-5.206-18.97-14.43-1.254-9.222 5.206-17.717 14.43-18.97 9.223-1.254 17.716 5.207 18.97 14.43z" stroke="#33475C" stroke-linecap="round" stroke-linejoin="round"/>
        <path d="M42.916 43.06c1.681 2.9-.34 7.214-4.515 9.635-4.176 2.42-8.923 2.03-10.605-.87-1.682-2.9.34-7.213 4.516-9.634 4.175-2.42 8.923-2.031 10.604.87" fill="#FFF" opacity=".25"/>
        <path d="M28.49 46.42c.862.318 1.19 1.581.733 2.823-.456 1.24-1.525 1.988-2.387 1.67-.863-.317-1.19-1.58-.734-2.82.457-1.24 1.526-1.99 2.388-1.672M38.56 42.731c.54 1.66-.957 3.634-3.346 4.41-2.388.779-4.761.064-5.3-1.595-.541-1.66.957-3.635 3.345-4.411 2.389-.777 4.762-.062 5.302 1.596" fill="#FFF"/>
        <path d="M68.456 138.925c-2.518 0-4.902-1.212-6.38-3.285l-21.613-29.613c-2.517-3.522-1.7-8.42 1.825-10.936 3.52-2.516 8.42-1.704 10.94 1.824l13.936 18.865L94.91 58.586c1.89-3.894 6.583-5.515 10.479-3.632 3.896 1.892 5.522 6.58 3.632 10.48l-33.509 69.072c-1.206 2.49-3.637 4.159-6.394 4.39-.22.019-.443.029-.662.029" fill="#E4F8F6"/>
        <path d="M68.456 138.925c-2.518 0-4.902-1.212-6.38-3.285l-21.613-29.613c-2.517-3.522-1.7-8.42 1.825-10.936 3.52-2.516 8.42-1.704 10.94 1.824l13.936 18.865L94.91 58.586c1.89-3.894 6.583-5.515 10.479-3.632 3.896 1.892 5.522 6.58 3.632 10.48l-33.509 69.072c-1.206 2.49-3.637 4.159-6.394 4.39-.22.019-.443.029-.662.029z" stroke="#33475C" stroke-linecap="round" stroke-linejoin="round"/>
        <path d="M93.497 48.573v-.001.001c-3.896-1.885-8.588-.262-10.478 3.632l-24.9 51.327v.003l9.046 12.246L94.91 58.587c1.89-3.897 6.583-5.517 10.48-3.633l-11.893-6.38z" fill="#7BDED2"/>
        <path d="M93.497 48.573v-.001.001c-3.896-1.885-8.588-.262-10.478 3.632l-24.9 51.327v.003l9.046 12.246L94.91 58.587c1.89-3.897 6.583-5.517 10.48-3.633l-11.893-6.38z" stroke="#33475C" stroke-linecap="round" stroke-linejoin="round"/>
        <path d="M62.076 135.64l-21.612-29.612c-2.517-3.523-1.7-8.422 1.824-10.939 2.388-1.705 5.396-1.847 7.88-.682l-.018-.045-11.566-6.22-.007.03c-2.536-1.324-5.695-1.24-8.18.535-3.525 2.517-4.342 7.416-1.824 10.94l21.611 29.61c.736 1.032 1.697 1.85 2.785 2.411l11.896 6.385c-1.091-.563-2.052-1.38-2.789-2.413" fill="#CBD6E3"/>
        <path d="M62.076 135.64l-21.612-29.612c-2.517-3.523-1.7-8.422 1.824-10.939 2.388-1.705 5.396-1.847 7.88-.682l-.018-.045-11.566-6.22-.007.03c-2.536-1.324-5.695-1.24-8.18.535-3.525 2.517-4.342 7.416-1.824 10.94l21.611 29.61c.736 1.032 1.697 1.85 2.785 2.411l11.896 6.385c-1.091-.563-2.052-1.38-2.789-2.413z" stroke="#33475C" stroke-linecap="round" stroke-linejoin="round"/>
        <path d="M62.076 135.64l-21.612-29.612c-2.517-3.523-1.7-8.422 1.824-10.939 2.388-1.705 5.396-1.847 7.88-.682l-.018-.045-11.566-6.22-.007.03c-2.536-1.324-5.695-1.24-8.18.535-3.525 2.517-4.342 7.416-1.824 10.94l21.611 29.61c.736 1.032 1.697 1.85 2.785 2.411l11.896 6.385c-1.091-.563-2.052-1.38-2.789-2.413" fill="#7BDED2"/>
        <path d="M62.076 135.64l-21.612-29.612c-2.517-3.523-1.7-8.422 1.824-10.939 2.388-1.705 5.396-1.847 7.88-.682l-.018-.045-11.566-6.22-.007.03c-2.536-1.324-5.695-1.24-8.18.535-3.525 2.517-4.342 7.416-1.824 10.94l21.611 29.61c.736 1.032 1.697 1.85 2.785 2.411l11.896 6.385c-1.091-.563-2.052-1.38-2.789-2.413z" stroke="#33475C" stroke-linecap="round" stroke-linejoin="round"/>
        <path d="M66.944 80.112s.489 4.504-1.635 6.187c0 0 3.764 2.421 7.574-.3 0 0-2.765-2.061-1.915-6.523l-4.024.636z" fill="#F9D28C"/>
        <path d="M66.944 80.112s.489 4.504-1.635 6.187c0 0 3.764 2.421 7.574-.3 0 0-2.765-2.061-1.915-6.523l-4.024.636z" stroke="#33475C" stroke-linecap="round" stroke-linejoin="round"/>
        <path d="M84.666 64.296c1.175 9.233-5.355 17.673-14.59 18.848-9.233 1.176-17.671-5.355-18.848-14.59-1.176-9.233 5.356-17.671 14.59-18.848 9.233-1.176 17.672 5.357 18.848 14.59" fill="#F9D28C"/>
        <path d="M84.666 64.296c1.175 9.233-5.355 17.673-14.59 18.848-9.233 1.176-17.671-5.355-18.848-14.59-1.176-9.233 5.356-17.671 14.59-18.848 9.233-1.176 17.672 5.357 18.848 14.59z" stroke="#33475C" stroke-linecap="round" stroke-linejoin="round"/>
        <path d="M71.932 55.281c1.657 2.914-.4 7.21-4.597 9.596-4.195 2.386-8.94 1.956-10.597-.958-1.656-2.915.402-7.211 4.597-9.596 4.195-2.386 8.94-1.956 10.597.958" fill="#FFF" opacity=".25"/>
        <path d="M68.266 55.257c.652 1.816-.938 4.049-3.552 4.988-2.615.939-5.262.228-5.914-1.588-.653-1.816.938-4.05 3.552-4.989 2.614-.938 5.263-.227 5.914 1.589" fill="#FFF"/>
        <path d="M70.256 32.862s2.111 4.01.756 6.355c0 0 4.39.866 6.933-3.068 0 0-3.33-.897-4.182-5.36l-3.507 2.073z" stroke="#33475C" stroke-width="5" stroke-linecap="round" stroke-linejoin="round"/>
        <path d="M82.593 13.05c3.596 8.586-.45 18.461-9.036 22.057-8.586 3.595-18.461-.451-22.055-9.037-3.596-8.586.45-18.46 9.035-22.056 8.586-3.596 18.46.45 22.056 9.036z" stroke="#33475C" stroke-width="5" stroke-linecap="round" stroke-linejoin="round"/>
        <path d="M67.336 7.974c2.287 2.451 1.283 7.107-2.243 10.402-3.527 3.293-8.242 3.977-10.53 1.528-2.29-2.45-1.285-7.108 2.243-10.402 3.527-3.293 8.242-3.979 10.53-1.528z" stroke="#33475C" stroke-width="5" stroke-linecap="round" stroke-linejoin="round"/>
        <path d="M64.225 7.891c.845 1.527-.251 3.75-2.449 4.966-2.197 1.215-4.663.964-5.507-.563-.846-1.525.251-3.748 2.448-4.965 2.198-1.216 4.664-.965 5.508.562zM55.96 13.897c.825.406 1.019 1.697.435 2.882-.583 1.187-1.725 1.82-2.55 1.413-.824-.405-1.018-1.695-.434-2.882.585-1.185 1.725-1.818 2.55-1.413z" stroke="#33475C" stroke-width="5" stroke-linecap="round" stroke-linejoin="round"/>
        <path d="M70.256 32.862s2.111 4.01.756 6.355c0 0 4.39.866 6.933-3.068 0 0-3.33-.897-4.182-5.36l-3.507 2.073z" fill="#F77D81"/>
        <path d="M70.256 32.862s2.111 4.01.756 6.355c0 0 4.39.866 6.933-3.068 0 0-3.33-.897-4.182-5.36l-3.507 2.073z" stroke="#33475C" stroke-linecap="round" stroke-linejoin="round"/>
        <path d="M82.593 13.05c3.596 8.586-.45 18.461-9.036 22.057-8.586 3.595-18.461-.451-22.055-9.037-3.596-8.586.45-18.46 9.035-22.056 8.586-3.596 18.46.45 22.056 9.036" fill="#F77D81"/>
        <path d="M82.593 13.05c3.596 8.586-.45 18.461-9.036 22.057-8.586 3.595-18.461-.451-22.055-9.037-3.596-8.586.45-18.46 9.035-22.056 8.586-3.596 18.46.45 22.056 9.036z" stroke="#33475C" stroke-linecap="round" stroke-linejoin="round"/>
        <path d="M67.336 7.974c2.287 2.451 1.283 7.107-2.243 10.402-3.527 3.293-8.242 3.977-10.53 1.528-2.29-2.45-1.285-7.108 2.243-10.402 3.527-3.293 8.242-3.979 10.53-1.528" fill="#FFF" opacity=".25"/>
        <path d="M64.225 7.891c.845 1.527-.251 3.75-2.449 4.966-2.197 1.215-4.663.964-5.507-.563-.846-1.525.251-3.748 2.448-4.965 2.198-1.216 4.664-.965 5.508.562M55.96 13.897c.825.406 1.019 1.697.435 2.882-.583 1.187-1.725 1.82-2.55 1.413-.824-.405-1.018-1.695-.434-2.882.585-1.185 1.725-1.818 2.55-1.413" fill="#FFF"/>
        <path d="M1.053 79.186l13.618-1.777M13.157 89.713l4.232-5.576M10.194 93.616l.712-.938M13.96 68.987l1.625 1.234M7.852 64.35l3.438 2.61" stroke="#FFF" stroke-width="1.5" stroke-linecap="round" stroke-linejoin="round"/>
        <path d="M45.398 74.57c3.304 5.644 6.832 13.058 7.587 16.058.457 1.816 1.225 5.986 1.568 8.082" stroke="#34475B" stroke-linecap="round" stroke-linejoin="round"/>
        <path d="M70.725 74.127c-1.905-1.88-2.018-4.984-1.179-7.525.84-2.54 2.46-4.737 3.7-7.11 3.45-6.598 4.389-12.775 1.659-19.68" stroke="#33475C" stroke-linecap="round" stroke-linejoin="round"/>
        <path d="M69.096 87.513s1.493 15.067-1.931 28.268" stroke="#34475B" stroke-linecap="round" stroke-linejoin="round"/>
        <path d="M114.285 49.463c-.329 0-.614-.227-.686-.549-1.136-5.088-1.928-5.963-6.52-7.2-.308-.082-.52-.359-.52-.678 0-.318.212-.595.52-.677 4.592-1.237 5.384-2.112 6.52-7.2.072-.322.357-.55.686-.55.328 0 .613.23.685.551 1.13 5.087 1.923 5.962 6.517 7.2.308.08.521.358.521.676 0 .32-.213.596-.521.677-4.594 1.238-5.386 2.113-6.517 7.2-.072.321-.357.55-.685.55" fill="#FFF"/>
        <path d="M114.284 31.908c-.657 0-1.227.456-1.37 1.098-1.089 4.875-1.65 5.499-6.019 6.674-.613.166-1.039.722-1.039 1.357s.426 1.191 1.04 1.357c4.367 1.175 4.93 1.799 6.018 6.674.143.642.713 1.098 1.37 1.098.66 0 1.228-.458 1.371-1.1 1.084-4.873 1.646-5.497 6.016-6.672.612-.166 1.039-.722 1.039-1.357s-.427-1.19-1.04-1.357c-4.369-1.175-4.93-1.799-6.015-6.672-.143-.642-.712-1.1-1.37-1.1zm0 1.404c1.19 5.35 2.156 6.415 7.021 7.725-4.865 1.31-5.831 2.372-7.02 7.725-1.194-5.353-2.16-6.415-7.024-7.725 4.863-1.31 5.83-2.375 7.023-7.725z" fill="#33475C"/>
        <path d="M102.82 38.777c-.337 0-.627-.24-.69-.571-1.517-8.063-2.574-9.45-8.693-11.4-.29-.093-.489-.363-.489-.67 0-.305.198-.575.489-.669 6.12-1.95 7.175-3.337 8.694-11.399.062-.331.352-.572.69-.572.338 0 .627.24.689.572 1.517 8.062 2.573 9.447 8.694 11.399.292.094.489.364.489.67 0 .306-.197.576-.49.67-6.12 1.95-7.176 3.336-8.693 11.399-.062.331-.351.571-.69.571" fill="#FFF"/>
        <path d="M102.82 12.794c-.675 0-1.255.48-1.38 1.145-1.465 7.782-2.386 9.001-8.216 10.86-.583.186-.978.727-.978 1.338 0 .612.395 1.153.978 1.338 5.83 1.859 6.751 3.076 8.216 10.86.125.664.705 1.145 1.38 1.145.676 0 1.256-.48 1.381-1.145 1.464-7.784 2.385-9.001 8.217-10.86.581-.185.977-.726.977-1.338 0-.611-.394-1.152-.977-1.339-5.832-1.86-6.753-3.077-8.217-10.86-.125-.663-.705-1.144-1.38-1.144m0 1.405c1.556 8.27 2.816 9.911 9.17 11.938-6.354 2.025-7.614 3.666-9.17 11.938-1.558-8.272-2.816-9.913-9.17-11.938 6.354-2.027 7.612-3.667 9.17-11.938" fill="#33475C"/>
        <path d="M120.322 32.13c-1.56 0-2.829-1.269-2.829-2.83 0-1.561 1.268-2.83 2.829-2.83 1.56 0 2.83 1.269 2.83 2.83 0 1.561-1.27 2.83-2.83 2.83" fill="#FFF"/>
        <g transform="translate(116.573 25.098)">
            <mask id="b" fill="#fff">
                <use xlink:href="#a"/>
            </mask>
            <path d="M3.749.67C1.801.67.217 2.255.217 4.201c0 1.948 1.584 3.533 3.532 3.533S7.281 6.149 7.281 4.2c0-1.946-1.584-3.53-3.532-3.53m0 1.404c1.174 0 2.128.952 2.128 2.126 0 1.176-.954 2.128-2.128 2.128-1.174 0-2.128-.952-2.128-2.128 0-1.174.954-2.126 2.128-2.126" fill="#33475C" mask="url(#b)"/>
        </g>
        <path d="M1.417 82.222l13.618-1.776M13.52 92.75l4.232-5.576M10.557 96.653l.713-.938M14.323 72.024l1.625 1.234M8.215 67.387l3.438 2.61" stroke="#34475B" stroke-width="1.5" stroke-linecap="round" stroke-linejoin="round"/>
    </g>
</svg>
