<svg viewBox="0 0 154 121" xmlns="http://www.w3.org/2000/svg">
    <g fill="none" fill-rule="evenodd">
        <path d="M83.743 36.13c-2.609-1.507-6.878-1.507-9.487 0L5.948 75.568c-2.61 1.506-2.595 3.947.03 5.425l68.249 38.412c2.625 1.477 6.921 1.477 9.546 0l68.25-38.412c2.624-1.478 2.638-3.92.03-5.425L83.742 36.13z" fill="#FF8F52" opacity=".2"/>
        <path d="M67.581 16.655l70.355 40.62c1.135.655 2.756.881 4.373.728l5.476-44.033c.221-1.778-2.118-3.129-5.199-3L66.32 14.13c-.266.934.126 1.87 1.261 2.525z" stroke="#33475C" stroke-width="5" stroke-linecap="round" stroke-linejoin="round"/>
        <path d="M75.828 93.47L5.473 52.85c-2.022-1.168-1.766-3.225.569-4.573l57.233-33.044c2.335-1.348 5.899-1.496 7.92-.328l70.356 40.62c2.022 1.166 1.766 3.224-.57 4.572L83.75 93.141c-2.335 1.348-5.9 1.495-7.921.328z" stroke="#33475C" stroke-width="5" stroke-linecap="round" stroke-linejoin="round"/>
        <path d="M141.55 55.524L71.195 14.905c-1.134-.656-2.755-.882-4.372-.729L61.345 58.21c-.22 1.778 2.118 3.13 5.2 3.001l76.265-3.16c.266-.935-.126-1.87-1.26-2.526zM142.812 58.049v-.001.001z" stroke="#33475C" stroke-width="5" stroke-linecap="round" stroke-linejoin="round"/>
        <path d="M55.714 28.196S75.785 21.83 75.785 3.771l64.513 36.858s-1.555 24.618-22.443 24.618" stroke="#33475C" stroke-width="5" stroke-linecap="round" stroke-linejoin="round"/>
        <path d="M117.856 66.157c-.503 0-.91-.406-.91-.91 0-.502.407-.91.91-.91 18.088 0 21.087-19.625 21.482-23.208L76.647 5.312C75.551 22.656 56.19 29 55.989 29.064c-.481.156-.992-.114-1.143-.592-.151-.48.114-.99.592-1.143.194-.062 19.436-6.39 19.436-23.558 0-.324.173-.624.453-.787.28-.163.626-.164.909-.003l64.515 36.859c.303.172.479.5.457.848-.016.254-1.858 25.47-23.352 25.47zM131.919 46.096L80.272 16.278" stroke="#33475C" stroke-width="5" stroke-linecap="round" stroke-linejoin="round"/>
        <path d="M131.92 47.006c-.155 0-.311-.039-.455-.122L79.818 17.066c-.435-.25-.584-.808-.332-1.243.25-.435.809-.582 1.243-.333l51.646 29.817c.436.252.585.808.333 1.244-.168.291-.475.455-.788.455zM85.907 39.792L69.311 30.21M85.907 40.247c-.078 0-.156-.02-.228-.06l-16.595-9.583c-.216-.126-.291-.404-.167-.622.127-.219.407-.292.622-.166l16.596 9.582c.216.125.29.404.167.621-.086.146-.24.228-.395.228zM114.047 58.429l-14.013-8.09M114.046 59.339c-.155 0-.31-.039-.455-.122l-14.012-8.09c-.436-.252-.585-.808-.333-1.244.251-.435.811-.581 1.243-.333l14.012 8.09c.436.252.585.808.333 1.244-.168.292-.475.455-.788.455zM122.71 58.429l-14.013-8.09M122.711 58.884c-.078 0-.156-.02-.228-.061l-14.013-8.091c-.217-.125-.292-.403-.167-.621.126-.219.407-.293.622-.166l14.014 8.09c.216.125.291.404.167.621-.086.146-.239.228-.395.228zM125.494 56.252L107.04 45.598M125.493 56.707c-.078 0-.156-.02-.228-.06l-18.452-10.655c-.217-.126-.292-.404-.167-.622.128-.219.407-.29.622-.166l18.453 10.654c.216.125.291.404.167.621-.086.146-.239.228-.395.228zM126.958 53.182l-14.013-8.09M126.958 53.637c-.078 0-.156-.02-.228-.061l-14.012-8.091c-.216-.125-.291-.403-.167-.621.127-.22.409-.292.623-.166l14.012 8.09c.216.125.291.404.167.621-.086.146-.239.228-.395.228zM101.135 34.397l-24.438-14.11M101.135 34.852c-.078 0-.156-.02-.228-.061L76.469 20.68c-.217-.125-.291-.404-.167-.621.126-.22.409-.292.622-.167l24.439 14.11c.216.125.29.404.167.62-.086.147-.24.229-.395.229zM76.053 93.34L5.698 52.72c-1.135-.656-1.527-1.592-1.261-2.525l76.266-3.162c3.08-.127 5.42 1.223 5.199 3.002l-5.476 44.032c-1.617.154-3.238-.073-4.373-.728z" stroke="#33475C" stroke-width="5" stroke-linecap="round" stroke-linejoin="round"/>
        <path d="M5.32 51.07c.11.316.389.605.833.861l70.355 40.62c.772.446 1.913.677 3.11.651l5.38-43.28c.038-.302-.067-.581-.318-.855-.695-.755-2.252-1.198-3.94-1.124L5.32 51.07zm74.152 43.952c-1.494.001-2.866-.311-3.874-.895L5.243 53.508c-1.451-.838-2.078-2.17-1.68-3.562l.179-.632 76.924-3.19c2.262-.09 4.28.545 5.353 1.711.619.672.89 1.471.786 2.312l-5.566 44.757-.727.069c-.351.033-.7.049-1.04.049z" stroke="#33475C" stroke-width="5" stroke-linecap="round" stroke-linejoin="round"/>
        <path d="M4.248 50.2l.189-.006 58.207-2.413 4.178-33.605c-.182.018-.365.025-.547.053-1.076.162-2.124.498-3 1.005L6.042 48.276c-.876.506-1.46 1.111-1.74 1.732-.028.063-.032.127-.054.191z" stroke="#33475C" stroke-width="5" stroke-linecap="round" stroke-linejoin="round"/>
        <path d="M65.772 15.249c-.757.17-1.454.434-2.043.772L6.497 49.066c-.08.046-.158.093-.233.142l55.57-2.303 3.938-31.656zM4.247 51.109c-.292 0-.566-.138-.738-.376-.17-.236-.219-.541-.126-.817.017-.068.067-.234.09-.281.37-.821 1.101-1.563 2.114-2.146L62.82 14.445c.946-.545 2.094-.931 3.32-1.116.147-.022.294-.034.442-.045.265-.02.626.074.814.272.19.197.365.462.331.733l-4.18 33.605c-.055.442-.42.779-.865.798L4.272 51.11h-.025zM80.426 94.067l.001.109c1.187-.14 2.359-.48 3.321-1.035l57.234-33.044c1.024-.59 1.622-1.319 1.83-2.047l-58.207 2.412-4.179 33.605z" stroke="#33475C" stroke-width="5" stroke-linecap="round" stroke-linejoin="round"/>
        <path d="M85.414 61.339l-3.947 31.726c.68-.168 1.3-.409 1.826-.713l57.234-33.043c.151-.086.29-.178.42-.271l-55.533 2.301zm-4.987 33.747c-.218 0-.432-.08-.599-.225-.193-.17-.307-.414-.31-.671 0-.042 0-.192.005-.234l4.18-33.606c.054-.442.42-.779.865-.798l58.206-2.412c.31-.009.571.116.752.346.181.23.24.532.16.813-.288 1.009-1.065 1.903-2.249 2.587L84.203 93.929c-1.024.59-2.293.989-3.669 1.15-.035.005-.07.007-.107.007z" stroke="#33475C" stroke-width="5" stroke-linecap="round" stroke-linejoin="round"/>
        <path d="M67.581 16.655l70.355 40.62c1.135.655 2.756.881 4.373.728l5.476-44.033c.221-1.778-2.118-3.129-5.199-3L66.32 14.13c-.266.934.126 1.87 1.261 2.525" fill="#D4E7F7"/>
        <path d="M67.581 16.655l70.355 40.62c1.135.655 2.756.881 4.373.728l5.476-44.033c.221-1.778-2.118-3.129-5.199-3L66.32 14.13c-.266.934.126 1.87 1.261 2.525z" stroke="#33475C"/>
        <path d="M75.828 93.47L5.473 52.85c-2.022-1.168-1.766-3.225.569-4.573l57.233-33.044c2.335-1.348 5.899-1.496 7.92-.328l70.356 40.62c2.022 1.166 1.766 3.224-.57 4.572L83.75 93.141c-2.335 1.348-5.9 1.495-7.921.328" fill="#E6EFF6"/>
        <path d="M75.828 93.47L5.473 52.85c-2.022-1.168-1.766-3.225.569-4.573l57.233-33.044c2.335-1.348 5.899-1.496 7.92-.328l70.356 40.62c2.022 1.166 1.766 3.224-.57 4.572L83.75 93.141c-2.335 1.348-5.9 1.495-7.921.328z" stroke="#33475C" stroke-linecap="round" stroke-linejoin="round"/>
        <path d="M141.55 55.524L71.195 14.905c-1.134-.656-2.755-.882-4.372-.729L61.345 58.21c-.22 1.778 2.118 3.13 5.2 3.001l76.265-3.16c.266-.935-.126-1.87-1.26-2.526" fill="#D4E7F7"/>
        <path d="M141.55 55.524L71.195 14.905c-1.134-.656-2.755-.882-4.372-.729L61.345 58.21c-.22 1.778 2.118 3.13 5.2 3.001l76.265-3.16c.266-.935-.126-1.87-1.26-2.526z" stroke="#33475C"/>
        <path d="M142.812 58.049v-.001.001z" fill="#E6EFF6"/>
        <path d="M142.812 58.049v-.001.001z" stroke="#33475C" stroke-linecap="round" stroke-linejoin="round"/>
        <path d="M55.714 28.196S75.785 21.83 75.785 3.771l64.513 36.858s-1.555 24.618-22.443 24.618" fill="#FFF"/>
        <path d="M117.856 66.157c-.503 0-.91-.406-.91-.91 0-.502.407-.91.91-.91 18.088 0 21.087-19.625 21.482-23.208L76.647 5.312C75.551 22.656 56.19 29 55.989 29.064c-.481.156-.992-.114-1.143-.592-.151-.48.114-.99.592-1.143.194-.062 19.436-6.39 19.436-23.558 0-.324.173-.624.453-.787.28-.163.626-.164.909-.003l64.515 36.859c.303.172.479.5.457.848-.016.254-1.858 25.47-23.352 25.47" fill="#33475C"/>
        <path d="M131.919 46.096L80.272 16.278M131.92 47.006c-.155 0-.311-.039-.455-.122L79.818 17.066c-.435-.25-.584-.808-.332-1.243.25-.435.809-.582 1.243-.333l51.646 29.817c.436.252.585.808.333 1.244-.168.291-.475.455-.788.455M85.907 39.792L69.311 30.21" fill="#6976D4"/>
        <path d="M85.907 40.247c-.078 0-.156-.02-.228-.06l-16.595-9.583c-.216-.126-.291-.404-.167-.622.127-.219.407-.292.622-.166l16.596 9.582c.216.125.29.404.167.621-.086.146-.24.228-.395.228" fill="#8E98DF"/>
        <path d="M114.047 58.429l-14.013-8.09M114.046 59.339c-.155 0-.31-.039-.455-.122l-14.012-8.09c-.436-.252-.585-.808-.333-1.244.251-.435.811-.581 1.243-.333l14.012 8.09c.436.252.585.808.333 1.244-.168.292-.475.455-.788.455" fill="#00BEA5"/>
        <path d="M122.71 58.429l-14.013-8.09" fill="#6976D4"/>
        <path d="M122.711 58.884c-.078 0-.156-.02-.228-.061l-14.013-8.091c-.217-.125-.292-.403-.167-.621.126-.219.407-.293.622-.166l14.014 8.09c.216.125.291.404.167.621-.086.146-.239.228-.395.228" fill="#33475C"/>
        <path d="M125.494 56.252L107.04 45.598" fill="#6976D4"/>
        <path d="M125.493 56.707c-.078 0-.156-.02-.228-.06l-18.452-10.655c-.217-.126-.292-.404-.167-.622.128-.219.407-.29.622-.166l18.453 10.654c.216.125.291.404.167.621-.086.146-.239.228-.395.228" fill="#33475C"/>
        <path d="M126.958 53.182l-14.013-8.09" fill="#6976D4"/>
        <path d="M126.958 53.637c-.078 0-.156-.02-.228-.061l-14.012-8.091c-.216-.125-.291-.403-.167-.621.127-.22.409-.292.623-.166l14.012 8.09c.216.125.291.404.167.621-.086.146-.239.228-.395.228" fill="#33475C"/>
        <path d="M101.135 34.397l-24.438-14.11" fill="#6976D4"/>
        <path d="M101.135 34.852c-.078 0-.156-.02-.228-.061L76.469 20.68c-.217-.125-.291-.404-.167-.621.126-.22.409-.292.622-.167l24.439 14.11c.216.125.29.404.167.62-.086.147-.24.229-.395.229" fill="#33475C"/>
        <path d="M76.053 93.34L5.698 52.72c-1.135-.656-1.527-1.592-1.261-2.525l76.266-3.162c3.08-.127 5.42 1.223 5.199 3.002l-5.476 44.032c-1.617.154-3.238-.073-4.373-.728" fill="#FFF"/>
        <path d="M5.32 51.07c.11.316.389.605.833.861l70.355 40.62c.772.446 1.913.677 3.11.651l5.38-43.28c.038-.302-.067-.581-.318-.855-.695-.755-2.252-1.198-3.94-1.124L5.32 51.07zm74.152 43.952c-1.494.001-2.866-.311-3.874-.895L5.243 53.508c-1.451-.838-2.078-2.17-1.68-3.562l.179-.632 76.924-3.19c2.262-.09 4.28.545 5.353 1.711.619.672.89 1.471.786 2.312l-5.566 44.757-.727.069c-.351.033-.7.049-1.04.049z" fill="#33475C"/>
        <path d="M4.248 50.2l.189-.006 58.207-2.413 4.178-33.605c-.182.018-.365.025-.547.053-1.076.162-2.124.498-3 1.005L6.042 48.276c-.876.506-1.46 1.111-1.74 1.732-.028.063-.032.127-.054.191" fill="#E6EFF6"/>
        <path d="M65.772 15.249c-.757.17-1.454.434-2.043.772L6.497 49.066c-.08.046-.158.093-.233.142l55.57-2.303 3.938-31.656zM4.247 51.109c-.292 0-.566-.138-.738-.376-.17-.236-.219-.541-.126-.817.017-.068.067-.234.09-.281.37-.821 1.101-1.563 2.114-2.146L62.82 14.445c.946-.545 2.094-.931 3.32-1.116.147-.022.294-.034.442-.045.265-.02.626.074.814.272.19.197.365.462.331.733l-4.18 33.605c-.055.442-.42.779-.865.798L4.272 51.11h-.025z" fill="#33475C"/>
        <path d="M80.426 94.067l.001.109c1.187-.14 2.359-.48 3.321-1.035l57.234-33.044c1.024-.59 1.622-1.319 1.83-2.047l-58.207 2.412-4.179 33.605z" fill="#E6EFF6"/>
        <path d="M85.414 61.339l-3.947 31.726c.68-.168 1.3-.409 1.826-.713l57.234-33.043c.151-.086.29-.178.42-.271l-55.533 2.301zm-4.987 33.747c-.218 0-.432-.08-.599-.225-.193-.17-.307-.414-.31-.671 0-.042 0-.192.005-.234l4.18-33.606c.054-.442.42-.779.865-.798l58.206-2.412c.31-.009.571.116.752.346.181.23.24.532.16.813-.288 1.009-1.065 1.903-2.249 2.587L84.203 93.929c-1.024.59-2.293.989-3.669 1.15-.035.005-.07.007-.107.007z" fill="#33475C"/>
    </g>
</svg>
